  0
SECTION
  2
HEADER
  9
$ACADVER
  1
AC1032
  9
$ACADMAINTVER
 90
      155
  9
$DWGCODEPAGE
  3
ANSI_1252
  9
$LASTSAVEDBY
  1
Leif Harfst
  9
$REQUIREDVERSIONS
160
                 0
  9
$INSBASE
 10
0.0
 20
0.0
 30
0.0
  9
$EXTMIN
 10
0.0
 20
0.0
 30
0.0
  9
$EXTMAX
 10
327.1871284245364
 20
335.2268377571364
 30
0.0
  9
$LIMMIN
 10
0.0
 20
0.0
  9
$LIMMAX
 10
12.0
 20
9.0
  9
$ORTHOMODE
 70
     0
  9
$REGENMODE
 70
     1
  9
$FILLMODE
 70
     1
  9
$QTEXTMODE
 70
     0
  9
$MIRRTEXT
 70
     1
  9
$LTSCALE
 40
1.0
  9
$ATTMODE
 70
     1
  9
$TEXTSIZE
 40
0.12
  9
$TRACEWID
 40
0.05
  9
$TEXTSTYLE
  7
Standard
  9
$CLAYER
  8
0
  9
$CELTYPE
  6
ByLayer
  9
$CECOLOR
 62
   256
  9
$CELTSCALE
 40
1.0
  9
$DISPSILH
 70
     0
  9
$DIMSCALE
 40
1.0
  9
$DIMASZ
 40
0.18
  9
$DIMEXO
 40
0.0393700787
  9
$DIMDLI
 40
0.38
  9
$DIMRND
 40
0.0
  9
$DIMDLE
 40
0.0
  9
$DIMEXE
 40
0.0393700787
  9
$DIMTP
 40
0.0
  9
$DIMTM
 40
0.0
  9
$DIMTXT
 40
0.12
  9
$DIMCEN
 40
0.09
  9
$DIMTSZ
 40
0.0
  9
$DIMTOL
 70
     0
  9
$DIMLIM
 70
     0
  9
$DIMTIH
 70
     1
  9
$DIMTOH
 70
     1
  9
$DIMSE1
 70
     0
  9
$DIMSE2
 70
     0
  9
$DIMTAD
 70
     1
  9
$DIMZIN
 70
     1
  9
$DIMBLK
  1

  9
$DIMASO
 70
     1
  9
$DIMSHO
 70
     1
  9
$DIMPOST
  1

  9
$DIMAPOST
  1

  9
$DIMALT
 70
     0
  9
$DIMALTD
 70
     2
  9
$DIMALTF
 40
25.4
  9
$DIMLFAC
 40
1.0
  9
$DIMTOFL
 70
     0
  9
$DIMTVP
 40
0.0
  9
$DIMTIX
 70
     0
  9
$DIMSOXD
 70
     0
  9
$DIMSAH
 70
     0
  9
$DIMBLK1
  1

  9
$DIMBLK2
  1

  9
$DIMSTYLE
  2
Standard
  9
$DIMCLRD
 70
     0
  9
$DIMCLRE
 70
     0
  9
$DIMCLRT
 70
     0
  9
$DIMTFAC
 40
1.0
  9
$DIMGAP
 40
0.06
  9
$DIMJUST
 70
     0
  9
$DIMSD1
 70
     0
  9
$DIMSD2
 70
     0
  9
$DIMTOLJ
 70
     1
  9
$DIMTZIN
 70
     1
  9
$DIMALTZ
 70
     0
  9
$DIMALTTZ
 70
     0
  9
$DIMUPT
 70
     0
  9
$DIMDEC
 70
     3
  9
$DIMTDEC
 70
     3
  9
$DIMALTU
 70
     2
  9
$DIMALTTD
 70
     2
  9
$DIMTXSTY
  7
Standard
  9
$DIMAUNIT
 70
     0
  9
$DIMADEC
 70
     0
  9
$DIMALTRND
 40
0.0
  9
$DIMAZIN
 70
     0
  9
$DIMDSEP
 70
    46
  9
$DIMATFIT
 70
     3
  9
$DIMFRAC
 70
     0
  9
$DIMLDRBLK
  1

  9
$DIMLUNIT
 70
     2
  9
$DIMLWD
 70
    -2
  9
$DIMLWE
 70
    -2
  9
$DIMTMOVE
 70
     0
  9
$DIMFXL
 40
1.0
  9
$DIMFXLON
 70
     0
  9
$DIMJOGANG
 40
0.7853981633974483
  9
$DIMTFILL
 70
     0
  9
$DIMTFILLCLR
 70
     0
  9
$DIMARCSYM
 70
     0
  9
$DIMLTYPE
  6

  9
$DIMLTEX1
  6

  9
$DIMLTEX2
  6

  9
$DIMTXTDIRECTION
 70
     0
  9
$LUNITS
 70
     2
  9
$LUPREC
 70
     3
  9
$SKETCHINC
 40
0.1
  9
$FILLETRAD
 40
0.5
  9
$AUNITS
 70
     0
  9
$AUPREC
 70
     0
  9
$MENU
  1
.
  9
$ELEVATION
 40
0.0
  9
$PELEVATION
 40
0.0
  9
$THICKNESS
 40
0.0
  9
$LIMCHECK
 70
     0
  9
$CHAMFERA
 40
0.0
  9
$CHAMFERB
 40
0.0
  9
$CHAMFERC
 40
0.0
  9
$CHAMFERD
 40
0.0
  9
$SKPOLY
 70
     0
  9
$TDCREATE
 40
2459164.511145834
  9
$TDUCREATE
 40
2459164.844480718
  9
$TDUPDATE
 40
2459164.526585649
  9
$TDUUPDATE
 40
2459164.859918982
  9
$TDINDWG
 40
0.0120949190
  9
$TDUSRTIMER
 40
0.0120949190
  9
$USRTIMER
 70
     1
  9
$ANGBASE
 50
0.0
  9
$ANGDIR
 70
     0
  9
$PDMODE
 70
     0
  9
$PDSIZE
 40
-1.0
  9
$PLINEWID
 40
0.0
  9
$SPLFRAME
 70
     0
  9
$SPLINETYPE
 70
     6
  9
$SPLINESEGS
 70
     8
  9
$HANDSEED
  5
16D
  9
$SURFTAB1
 70
     6
  9
$SURFTAB2
 70
     6
  9
$SURFTYPE
 70
     6
  9
$SURFU
 70
     6
  9
$SURFV
 70
     6
  9
$UCSBASE
  2

  9
$UCSNAME
  2

  9
$UCSORG
 10
0.0
 20
0.0
 30
0.0
  9
$UCSXDIR
 10
1.0
 20
0.0
 30
0.0
  9
$UCSYDIR
 10
0.0
 20
1.0
 30
0.0
  9
$UCSORTHOREF
  2

  9
$UCSORTHOVIEW
 70
     0
  9
$UCSORGTOP
 10
0.0
 20
0.0
 30
0.0
  9
$UCSORGBOTTOM
 10
0.0
 20
0.0
 30
0.0
  9
$UCSORGLEFT
 10
0.0
 20
0.0
 30
0.0
  9
$UCSORGRIGHT
 10
0.0
 20
0.0
 30
0.0
  9
$UCSORGFRONT
 10
0.0
 20
0.0
 30
0.0
  9
$UCSORGBACK
 10
0.0
 20
0.0
 30
0.0
  9
$PUCSBASE
  2

  9
$PUCSNAME
  2

  9
$PUCSORG
 10
0.0
 20
0.0
 30
0.0
  9
$PUCSXDIR
 10
1.0
 20
0.0
 30
0.0
  9
$PUCSYDIR
 10
0.0
 20
1.0
 30
0.0
  9
$PUCSORTHOREF
  2

  9
$PUCSORTHOVIEW
 70
     0
  9
$PUCSORGTOP
 10
0.0
 20
0.0
 30
0.0
  9
$PUCSORGBOTTOM
 10
0.0
 20
0.0
 30
0.0
  9
$PUCSORGLEFT
 10
0.0
 20
0.0
 30
0.0
  9
$PUCSORGRIGHT
 10
0.0
 20
0.0
 30
0.0
  9
$PUCSORGFRONT
 10
0.0
 20
0.0
 30
0.0
  9
$PUCSORGBACK
 10
0.0
 20
0.0
 30
0.0
  9
$USERI1
 70
     0
  9
$USERI2
 70
     0
  9
$USERI3
 70
     0
  9
$USERI4
 70
     0
  9
$USERI5
 70
     0
  9
$USERR1
 40
0.0
  9
$USERR2
 40
0.0
  9
$USERR3
 40
0.0
  9
$USERR4
 40
0.0
  9
$USERR5
 40
0.0
  9
$WORLDVIEW
 70
     1
  9
$SHADEDGE
 70
     3
  9
$SHADEDIF
 70
    70
  9
$TILEMODE
 70
     1
  9
$MAXACTVP
 70
    64
  9
$PINSBASE
 10
0.0
 20
0.0
 30
0.0
  9
$PLIMCHECK
 70
     0
  9
$PEXTMIN
 10
1.000000000000000E+20
 20
1.000000000000000E+20
 30
1.000000000000000E+20
  9
$PEXTMAX
 10
-1.000000000000000E+20
 20
-1.000000000000000E+20
 30
-1.000000000000000E+20
  9
$PLIMMIN
 10
0.0
 20
0.0
  9
$PLIMMAX
 10
12.0
 20
9.0
  9
$UNITMODE
 70
     0
  9
$VISRETAIN
 70
     1
  9
$PLINEGEN
 70
     0
  9
$PSLTSCALE
 70
     1
  9
$TREEDEPTH
 70
  3020
  9
$CMLSTYLE
  2
Standard
  9
$CMLJUST
 70
     0
  9
$CMLSCALE
 40
1.0
  9
$PROXYGRAPHICS
 70
     1
  9
$MEASUREMENT
 70
     0
  9
$CELWEIGHT
370
    -1
  9
$ENDCAPS
280
     0
  9
$JOINSTYLE
280
     0
  9
$LWDISPLAY
290
     1
  9
$INSUNITS
 70
     1
  9
$HYPERLINKBASE
  1

  9
$STYLESHEET
  1

  9
$XEDIT
290
     1
  9
$CEPSNTYPE
380
     0
  9
$PSTYLEMODE
290
     1
  9
$FINGERPRINTGUID
  2
{D942FE7F-BA69-499C-A4CF-F6B925E3F1FB}
  9
$VERSIONGUID
  2
{E758911E-F07C-2B48-AFDD-906E4C0CEF4E}
  9
$EXTNAMES
290
     1
  9
$PSVPSCALE
 40
0.0
  9
$OLESTARTUP
290
     0
  9
$SORTENTS
280
   127
  9
$INDEXCTL
280
     0
  9
$HIDETEXT
280
     0
  9
$XCLIPFRAME
280
     2
  9
$HALOGAP
280
     0
  9
$OBSCOLOR
 70
   257
  9
$OBSLTYPE
280
     0
  9
$INTERSECTIONDISPLAY
280
     0
  9
$INTERSECTIONCOLOR
 70
   257
  9
$DIMASSOC
280
     1
  9
$PROJECTNAME
  1

  9
$CAMERADISPLAY
290
     0
  9
$LENSLENGTH
 40
50.0
  9
$CAMERAHEIGHT
 40
0.0
  9
$STEPSPERSEC
 40
2.0
  9
$STEPSIZE
 40
6.0
  9
$3DDWFPREC
 40
2.0
  9
$PSOLWIDTH
 40
0.25
  9
$PSOLHEIGHT
 40
4.0
  9
$LOFTANG1
 40
1.570796326794896
  9
$LOFTANG2
 40
1.570796326794896
  9
$LOFTMAG1
 40
0.0
  9
$LOFTMAG2
 40
0.0
  9
$LOFTPARAM
 70
     7
  9
$LOFTNORMALS
280
     1
  9
$LATITUDE
 40
37.795
  9
$LONGITUDE
 40
-122.394
  9
$NORTHDIRECTION
 40
0.0
  9
$TIMEZONE
 70
 -8000
  9
$LIGHTGLYPHDISPLAY
280
     1
  9
$TILEMODELIGHTSYNCH
280
     1
  9
$CMATERIAL
347
7E
  9
$SOLIDHIST
280
     0
  9
$SHOWHIST
280
     1
  9
$DWFFRAME
280
     2
  9
$DGNFRAME
280
     0
  9
$REALWORLDSCALE
290
     1
  9
$INTERFERECOLOR
 62
     1
  9
$INTERFEREOBJVS
345
A0
  9
$INTERFEREVPVS
346
9D
  9
$CSHADOW
280
     0
  9
$SHADOWPLANELOCATION
 40
0.0
  0
ENDSEC
  0
SECTION
  2
CLASSES
  0
CLASS
  1
ACDBDICTIONARYWDFLT
  2
AcDbDictionaryWithDefault
  3
ObjectDBX Classes
 90
        0
 91
        1
280
     0
281
     0
  0
CLASS
  1
VISUALSTYLE
  2
AcDbVisualStyle
  3
ObjectDBX Classes
 90
     4095
 91
       24
280
     0
281
     0
  0
CLASS
  1
MATERIAL
  2
AcDbMaterial
  3
ObjectDBX Classes
 90
     1153
 91
        3
280
     0
281
     0
  0
CLASS
  1
SCALE
  2
AcDbScale
  3
ObjectDBX Classes
 90
     1153
 91
       33
280
     0
281
     0
  0
CLASS
  1
TABLESTYLE
  2
AcDbTableStyle
  3
ObjectDBX Classes
 90
     4095
 91
        1
280
     0
281
     0
  0
CLASS
  1
MLEADERSTYLE
  2
AcDbMLeaderStyle
  3
ACDB_MLEADERSTYLE_CLASS
 90
     4095
 91
        1
280
     0
281
     0
  0
CLASS
  1
SUN
  2
AcDbSun
  3
SCENEOE
 90
     1153
 91
        0
280
     0
281
     0
  0
CLASS
  1
ACDBSECTIONVIEWSTYLE
  2
AcDbSectionViewStyle
  3
ObjectDBX Classes
 90
     1025
 91
        1
280
     0
281
     0
  0
CLASS
  1
ACDBDETAILVIEWSTYLE
  2
AcDbDetailViewStyle
  3
ObjectDBX Classes
 90
     1025
 91
        1
280
     0
281
     0
  0
CLASS
  1
SORTENTSTABLE
  2
AcDbSortentsTable
  3
ObjectDBX Classes
 90
        0
 91
        1
280
     0
281
     0
  0
CLASS
  1
DICTIONARYVAR
  2
AcDbDictionaryVar
  3
ObjectDBX Classes
 90
        0
 91
       19
280
     0
281
     0
  0
CLASS
  1
ACARRAYJIGENTITY
  2
AcArrayJigEntity
  3
ACAD_ARRAY
 90
      129
 91
        3
280
     0
281
     1
  0
CLASS
  1
ACDBASSOCNETWORK
  2
AcDbAssocNetwork
  3
ObjectDBX Classes
 90
     1025
 91
        2
280
     0
281
     0
  0
CLASS
  1
ACDBASSOCACTION
  2
AcDbAssocAction
  3
ObjectDBX Classes
 90
     1025
 91
        3
280
     0
281
     0
  0
CLASS
  1
ACDBASSOCARRAYACTIONBODY
  2
AcDbAssocArrayActionBody
  3
ObjectDBX Classes
 90
     1025
 91
        3
280
     0
281
     0
  0
CLASS
  1
ACDBASSOCVERTEXACTIONPARAM
  2
AcDbAssocVertexActionParam
  3
ObjectDBX Classes
 90
     1025
 91
        9
280
     0
281
     0
  0
CLASS
  1
ACDBASSOCEDGEACTIONPARAM
  2
AcDbAssocEdgeActionParam
  3
ObjectDBX Classes
 90
     1025
 91
        3
280
     0
281
     0
  0
CLASS
  1
ACDBASSOCDEPENDENCY
  2
AcDbAssocDependency
  3
ObjectDBX Classes
 90
     1025
 91
       12
280
     0
281
     0
  0
CLASS
  1
ACDBASSOCARRAYPATHPARAMETERS
  2
AcDbAssocArrayPathParameters
  3
ObjectDBX Classes
 90
     1025
 91
        0
280
     0
281
     0
  0
CLASS
  1
CELLSTYLEMAP
  2
AcDbCellStyleMap
  3
ObjectDBX Classes
 90
     1152
 91
        2
280
     0
281
     0
  0
ENDSEC
  0
SECTION
  2
TABLES
  0
TABLE
  2
VPORT
  5
8
330
0
100
AcDbSymbolTable
 70
     1
  0
VPORT
  5
29
330
8
100
AcDbSymbolTableRecord
100
AcDbViewportTableRecord
  2
*Active
 70
     0
 10
0.0
 20
0.0
 11
1.0
 21
1.0
 12
6.424372978313757
 22
4.342183932151101
 13
0.0
 23
0.0
 14
0.5
 24
0.5
 15
0.5
 25
0.5
 16
0.0
 26
0.0
 36
1.0
 17
0.0
 27
0.0
 37
0.0
 40
14.13438632873249
 41
2.224462365591397
 42
50.0
 43
0.0
 44
0.0
 50
0.0
 51
0.0
 71
     0
 72
   100
 73
     1
 74
     3
 75
     0
 76
     0
 77
     0
 78
     0
281
     0
 65
     1
110
0.0
120
0.0
130
0.0
111
1.0
121
0.0
131
0.0
112
0.0
122
1.0
132
0.0
 79
     0
146
0.0
348
9C
 60
     3
 61
     5
292
     1
282
     1
141
0.0
142
0.0
 63
   250
421
  3355443
1001
ACAD_NAV_VCDISPLAY
1070
     3
  0
ENDTAB
  0
TABLE
  2
LTYPE
  5
5
330
0
100
AcDbSymbolTable
 70
     6
  0
LTYPE
  5
14
330
5
100
AcDbSymbolTableRecord
100
AcDbLinetypeTableRecord
  2
ByBlock
 70
     0
  3

 72
    65
 73
     0
 40
0.0
  0
LTYPE
  5
15
330
5
100
AcDbSymbolTableRecord
100
AcDbLinetypeTableRecord
  2
ByLayer
 70
     0
  3

 72
    65
 73
     0
 40
0.0
  0
LTYPE
  5
16
330
5
100
AcDbSymbolTableRecord
100
AcDbLinetypeTableRecord
  2
Continuous
 70
     0
  3
Solid line
 72
    65
 73
     0
 40
0.0
  0
LTYPE
  5
6E
330
5
100
AcDbSymbolTableRecord
100
AcDbLinetypeTableRecord
  2
HIDDEN
 70
     0
  3
Hidden __ __ __ __ __ __ __ __ __ __ __ __ __ __
 72
    65
 73
     2
 40
0.075
 49
0.05
 74
     0
 49
-0.025
 74
     0
  0
LTYPE
  5
6F
330
5
100
AcDbSymbolTableRecord
100
AcDbLinetypeTableRecord
  2
PHANTOM
 70
     0
  3
Phantom ______  __  __  ______  __  __  ______
 72
    65
 73
     6
 40
0.5
 49
0.25
 74
     0
 49
-0.05
 74
     0
 49
0.05
 74
     0
 49
-0.05
 74
     0
 49
0.05
 74
     0
 49
-0.05
 74
     0
  0
LTYPE
  5
70
330
5
100
AcDbSymbolTableRecord
100
AcDbLinetypeTableRecord
  2
CENTER
 70
     0
  3
Center ____ _ ____ _ ____ _ ____ _ ____ _ ____
 72
    65
 73
     4
 40
0.4
 49
0.25
 74
     0
 49
-0.05
 74
     0
 49
0.05
 74
     0
 49
-0.05
 74
     0
  0
LTYPE
  5
71
330
5
100
AcDbSymbolTableRecord
100
AcDbLinetypeTableRecord
  2
CENTERX2
 70
     0
  3
Center (2x) ________  __  ________  __  _____
 72
    65
 73
     4
 40
0.8
 49
0.5
 74
     0
 49
-0.1
 74
     0
 49
0.1
 74
     0
 49
-0.1
 74
     0
  0
LTYPE
  5
72
330
5
100
AcDbSymbolTableRecord
100
AcDbLinetypeTableRecord
  2
DOT2
 70
     0
  3
Dot (.5x) ........................................
 72
    65
 73
     2
 40
0.025
 49
0.0
 74
     0
 49
-0.025
 74
     0
  0
ENDTAB
  0
TABLE
  2
LAYER
  5
2
102
{ACAD_XDICTIONARY
360
164
102
}
330
0
100
AcDbSymbolTable
 70
     1
  0
LAYER
  5
10
102
{ACAD_XDICTIONARY
360
153
102
}
330
2
100
AcDbSymbolTableRecord
100
AcDbLayerTableRecord
  2
0
 70
     0
 62
     7
  6
Continuous
370
    -3
390
F
347
8E
348
0
  0
ENDTAB
  0
TABLE
  2
STYLE
  5
3
330
0
100
AcDbSymbolTable
 70
     1
  0
STYLE
  5
11
330
3
100
AcDbSymbolTableRecord
100
AcDbTextStyleTableRecord
  2
Standard
 70
     0
 40
0.0
 41
1.0
 50
0.0
 71
     0
 42
0.12
  3
txt
  4

  0
ENDTAB
  0
TABLE
  2
VIEW
  5
6
330
0
100
AcDbSymbolTable
 70
     1
  0
ENDTAB
  0
TABLE
  2
UCS
  5
7
330
0
100
AcDbSymbolTable
 70
     0
  0
ENDTAB
  0
TABLE
  2
APPID
  5
9
330
0
100
AcDbSymbolTable
 70
     2
  0
APPID
  5
12
330
9
100
AcDbSymbolTableRecord
100
AcDbRegAppTableRecord
  2
ACAD
 70
     0
  0
APPID
  5
BB
330
9
100
AcDbSymbolTableRecord
100
AcDbRegAppTableRecord
  2
ACAD_NAV_VCDISPLAY
 70
     0
  0
ENDTAB
  0
TABLE
  2
DIMSTYLE
  5
A
330
0
100
AcDbSymbolTable
 70
     1
100
AcDbDimStyleTable
 71
     0
  0
DIMSTYLE
105
27
330
A
100
AcDbSymbolTableRecord
100
AcDbDimStyleTableRecord
  2
Standard
 70
     0
340
11
  0
ENDTAB
  0
TABLE
  2
BLOCK_RECORD
  5
1
330
0
100
AcDbSymbolTable
 70
    10
  0
BLOCK_RECORD
  5
1F
102
{ACAD_XDICTIONARY
360
E2
102
}
330
1
100
AcDbSymbolTableRecord
100
AcDbBlockTableRecord
  2
*Model_Space
340
22
 70
     0
280
     1
281
     0
  0
BLOCK_RECORD
  5
1B
330
1
100
AcDbSymbolTableRecord
100
AcDbBlockTableRecord
  2
*Paper_Space
340
1E
 70
     0
280
     1
281
     0
  0
BLOCK_RECORD
  5
23
330
1
100
AcDbSymbolTableRecord
100
AcDbBlockTableRecord
  2
*Paper_Space0
340
26
 70
     0
280
     1
281
     0
  0
BLOCK_RECORD
  5
BC
330
1
100
AcDbSymbolTableRecord
100
AcDbBlockTableRecord
  2
A$C2fe8dcf4
340
0
 70
     0
280
     1
281
     0
  0
BLOCK_RECORD
  5
F6
102
{ACAD_REACTORS
330
10A
102
}
330
1
100
AcDbSymbolTableRecord
100
AcDbBlockTableRecord
  2
*U2
340
0
102
{BLKREFS
331
10F
331
110
331
111
331
112
331
113
331
114
331
115
331
116
102
}
 70
     0
280
     1
281
     0
  0
BLOCK_RECORD
  5
F9
102
{ACAD_REACTORS
330
109
102
}
330
1
100
AcDbSymbolTableRecord
100
AcDbBlockTableRecord
  2
*U3
340
0
102
{BLKREFS
331
FC
102
}
 70
     0
280
     1
281
     1
  0
BLOCK_RECORD
  5
118
102
{ACAD_REACTORS
330
12D
102
}
330
1
100
AcDbSymbolTableRecord
100
AcDbBlockTableRecord
  2
*U4
340
0
102
{BLKREFS
331
120
331
121
331
122
331
123
331
124
331
125
331
126
331
127
102
}
 70
     0
280
     1
281
     0
  0
BLOCK_RECORD
  5
11E
102
{ACAD_REACTORS
330
12C
102
}
330
1
100
AcDbSymbolTableRecord
100
AcDbBlockTableRecord
  2
*U6
340
0
102
{BLKREFS
331
117
102
}
 70
     0
280
     1
281
     1
  0
BLOCK_RECORD
  5
136
102
{ACAD_REACTORS
330
14B
102
}
330
1
100
AcDbSymbolTableRecord
100
AcDbBlockTableRecord
  2
*U7
340
0
102
{BLKREFS
331
13E
331
13F
331
140
331
141
331
142
331
143
331
144
331
145
102
}
 70
     0
280
     1
281
     0
  0
BLOCK_RECORD
  5
13C
102
{ACAD_REACTORS
330
14A
102
}
330
1
100
AcDbSymbolTableRecord
100
AcDbBlockTableRecord
  2
*U9
340
0
102
{BLKREFS
331
135
102
}
 70
     0
280
     1
281
     1
  0
ENDTAB
  0
ENDSEC
  0
SECTION
  2
BLOCKS
  0
BLOCK
  5
20
330
1F
100
AcDbEntity
  8
0
100
AcDbBlockBegin
  2
*Model_Space
 70
     0
 10
0.0
 20
0.0
 30
0.0
  3
*Model_Space
  1

  0
ENDBLK
  5
21
330
1F
100
AcDbEntity
  8
0
100
AcDbBlockEnd
  0
BLOCK
  5
1C
330
1B
100
AcDbEntity
 67
     1
  8
0
100
AcDbBlockBegin
  2
*Paper_Space
 70
     0
 10
0.0
 20
0.0
 30
0.0
  3
*Paper_Space
  1

  0
ENDBLK
  5
1D
330
1B
100
AcDbEntity
 67
     1
  8
0
100
AcDbBlockEnd
  0
BLOCK
  5
24
330
23
100
AcDbEntity
 67
     1
  8
0
100
AcDbBlockBegin
  2
*Paper_Space0
 70
     0
 10
0.0
 20
0.0
 30
0.0
  3
*Paper_Space0
  1

  0
ENDBLK
  5
25
330
23
100
AcDbEntity
 67
     1
  8
0
100
AcDbBlockEnd
  0
BLOCK
  5
C8
330
BC
100
AcDbEntity
  8
0
100
AcDbBlockBegin
  2
A$C2fe8dcf4
 70
     0
 10
0.0
 20
0.0
 30
0.0
  3
A$C2fe8dcf4
  1

  0
LWPOLYLINE
  5
BD
330
BC
100
AcDbEntity
  8
0
100
AcDbPolyline
 90
      170
 70
     1
 43
0.0
 10
186.4230087424957
 20
329.1154761811228
 42
-0.04908
 10
186.3263797424957
 20
328.1334531811227
 42
-0.001599
 10
185.5417587424957
 20
324.2500821811227
 42
-0.003053
 10
184.5724337424958
 20
319.6724121811227
 42
-0.002116
 10
183.4230087424957
 20
314.5082721811227
 42
0.000706
 10
182.2730067424957
 20
309.4093821811227
 42
0.001121
 10
181.3042587424958
 20
305.0397821811227
 42
0.000228
 10
180.4617477424958
 20
301.1904591811227
 42
0.053807
 10
180.4230087424958
 20
300.8315171811227
 42
0.355424
 10
180.5541627424957
 20
300.6703211811228
 42
0.03537
 10
181.0839457424957
 20
300.5988531811227
 42
0.03213
 10
181.8103407424957
 20
300.5994751811227
 42
0.018999
 10
182.6730087424957
 20
300.6887211811227
 42
0.182433
 10
184.0625507424958
 20
301.4514011811227
 42
0.066122
 10
185.3079297424958
 20
303.3694901811227
 42
0.028793
 10
186.7997197424957
 20
307.0377461811228
 42
0.004094
 10
189.3624137424957
 20
314.7582721811227
 42
-0.0067
 10
191.2848897424957
 20
320.4506511811227
 42
-0.014246
 10
192.9554057424957
 20
324.7885871811228
 42
-0.009612
 10
194.3931547424957
 20
328.0491411811228
 42
-0.291963
 10
195.1124137424957
 20
328.5082721811227
 42
-0.2635050000000001
 10
195.9778837424957
 20
328.0181261811228
 42
-0.158846
 10
196.2485677424957
 20
326.8362261811227
 42
-0.029348
 10
195.8348237424957
 20
324.0724431811227
 42
-0.001413
 10
193.8903607424957
 20
314.9542551811227
 42
0.004912
 10
192.9577437424958
 20
310.4257901811227
 42
0.007775
 10
192.2571807424958
 20
306.5257251811227
 42
0.00284
 10
191.7304717424957
 20
303.1877861811228
 42
0.238425
 10
191.8870837424957
 20
302.7108631811227
 42
0.210316
 10
192.3623017424958
 20
302.5261011811227
 42
0.003121
 10
195.4197277424957
 20
302.6791651811227
 42
0.007869
 10
199.0098327424958
 20
302.9381011811227
 42
0.005041
 10
203.1697317424957
 20
303.3463261811227
 42
-0.005165
 10
213.9087387424957
 20
304.3974961811227
 42
-0.039066
 10
218.9995167424958
 20
304.4440731811227
 42
-0.092202
 10
222.0102077424958
 20
303.6662411811227
 42
-0.126803
 10
224.1583877424958
 20
301.8969821811227
 10
226.0605807424958
 20
299.2856921811227
 10
239.7837707424958
 20
303.4300561811227
 42
-0.00764
 10
247.8424007424958
 20
305.7299801811228
 42
-0.031847
 10
252.7901807424958
 20
306.7280811811227
 42
-0.148187
 10
254.6053667424958
 20
306.4372891811227
 42
-0.519999
 10
254.7601407424957
 20
305.4700861811227
 42
-0.09327
 10
253.6195167424958
 20
304.7155331811227
 42
-0.003032
 10
248.5232757424957
 20
302.6065601811227
 42
-0.005328
 10
242.1315257424957
 20
300.0857891811227
 42
-0.002838
 10
234.1730087424958
 20
297.0963721811227
 42
0.07778
 10
230.4876747424958
 20
295.0403211811227
 42
0.655579
 10
230.8305027424958
 20
293.7192911811227
 42
0.06621
 10
236.5542037424958
 20
293.5814391811227
 42
0.011192
 10
247.4230087424958
 20
295.0082721811227
 42
-0.001108
 10
255.3794627424958
 20
296.2164731811227
 42
-0.036705
 10
257.3070267424958
 20
296.3615221811227
 42
-0.232232
 10
258.0986697424958
 20
295.9745721811227
 42
-0.166457
 10
258.4230087424958
 20
295.0273241811227
 42
-0.233795
 10
257.8785227424958
 20
293.9265211811227
 42
-0.089308
 10
256.3149287424958
 20
293.1244321811227
 42
-0.024086
 10
252.8615927424957
 20
292.2512121811227
 42
-0.001539
 10
242.6409267424958
 20
290.2173171811227
 42
0.008034
 10
238.3172997424958
 20
289.2983781811227
 42
0.013038
 10
234.6795007424958
 20
288.3634291811227
 42
0.006701
 10
231.7163547424958
 20
287.4758251811227
 42
0.333784
 10
231.3811227424958
 20
287.0082721811227
 42
0.369645
 10
231.7770447424958
 20
286.5662251811227
 42
0.006283
 10
235.2626397424958
 20
286.1470461811227
 42
0.011917
 10
239.6922107424958
 20
285.7772581811227
 42
0.005893
 10
245.3304487424958
 20
285.5082721811227
 42
-0.00495
 10
250.7234447424957
 20
285.2611771811227
 42
-0.007578
 10
255.3914657424958
 20
284.9299391811227
 42
-0.003283
 10
259.3454097424957
 20
284.5629101811227
 42
-0.173369
 10
260.0235867424958
 20
284.2416051811227
 42
-0.438303
 10
259.9764807424957
 20
283.0974621811227
 42
-0.126896
 10
258.1833807424958
 20
282.2290031811227
 42
-0.036299
 10
253.7394597424957
 20
281.6659631811227
 42
-0.007009
 10
245.6360027424957
 20
281.3461681811227
 42
0.004661
 10
238.8412887424958
 20
281.1099811811227
 42
0.020912
 10
234.8769247424958
 20
280.7686611811227
 42
0.033439
 10
232.4185047424958
 20
280.2842331811227
 42
0.179177
 10
231.3223437424958
 20
279.5082721811227
 42
0.126708
 10
230.9089537424958
 20
278.3691781811227
 42
0.012189
 10
230.6961407424958
 20
275.4053861811227
 42
0.013826
 10
230.6214107424958
 20
271.6035151811228
 42
0.00788
 10
230.7305997424958
 20
267.0082721811227
 42
-0.004539
 10
230.8618797424958
 20
262.6965651811228
 42
-0.006367
 10
230.8951017424958
 20
258.8449821811227
 42
-0.003959
 10
230.8562627424957
 20
255.6158281811227
 42
-0.081931
 10
230.6798857424957
 20
254.6651551811227
 42
-0.5125790000000001
 10
230.2657357424958
 20
254.5476161811227
 42
-0.053693
 10
229.4172017424958
 20
255.3837981811227
 42
-0.032038
 10
228.2889467424957
 20
256.9595441811227
 42
-0.014271
 10
227.0001997424958
 20
259.1651551811227
 42
0.020358
 10
225.2139317424958
 20
262.1385751811227
 42
0.043063
 10
223.5502997424958
 20
264.2481801811227
 42
0.049415
 10
221.7097497424958
 20
265.8566931811227
 42
0.03679
 10
219.4026827424958
 20
267.2582721811227
 42
0.127989
 10
209.4844547424957
 20
269.4531321811227
 42
0.103107
 10
198.8496957424958
 20
266.8247341811227
 42
0.096207
 10
189.5628607424958
 20
259.9159381811227
 42
0.095625
 10
183.5131347424957
 20
250.0196081811227
 42
0.059429
 10
181.7015327424958
 20
242.5944311811227
 42
0.042582
 10
181.3981717424957
 20
234.0465511811227
 42
0.026413
 10
182.6110317424957
 20
222.2496721811227
 42
0.006792
 10
185.8311287424957
 20
203.3604291811227
 42
-0.003199
 10
189.4799587424957
 20
182.8470381811227
 42
-0.013861
 10
191.2289377424957
 20
170.6057791811227
 42
-0.023354
 10
191.7997187424957
 20
162.1620801811227
 42
-0.045148
 10
191.3303547424957
 20
155.4135721811227
 42
-0.023104
 10
190.3278977424958
 20
150.6132901811227
 42
-0.044448
 10
189.0150487424957
 20
146.9126621811227
 42
-0.046027
 10
187.1028697424957
 20
143.5864011811227
 42
-0.026708
 10
184.2489887424957
 20
139.9628561811227
 42
-0.099747
 10
176.7494567424957
 20
134.2447851811227
 42
-0.088001
 10
167.2793157424957
 20
131.5519401811227
 42
-0.051002
 10
153.3954947424957
 20
131.5578691811227
 42
-0.012118
 10
130.4230087424957
 20
134.4812901811227
 42
0.007118
 10
124.3637657424957
 20
135.3140231811227
 42
0.004529
 10
117.2901967424957
 20
136.1187871811227
 42
0.004548
 10
110.3345657424957
 20
136.7824741811227
 42
0.008417
 10
104.6730087424957
 20
137.1748711811227
 42
-0.005439
 10
99.97602074249579
 20
137.4723101811227
 42
-0.009009
 10
96.02144574249578
 20
137.8376981811227
 42
-0.003229
 10
92.68971874249578
 20
138.2279771811227
 42
-0.378611
 10
92.42300874249577
 20
138.5297081811227
 42
-0.20436
 10
92.59094174249577
 20
138.9234241811227
 42
-0.01347
 10
93.52457074249576
 20
139.7716791811227
 42
-0.017763
 10
94.73627774249576
 20
140.7416821811227
 42
-0.012228
 10
96.17300874249577
 20
141.7567521811227
 42
0.037645
 10
101.3859367424957
 20
145.8519061811227
 42
0.013172
 10
108.2499077424958
 20
152.4742281811227
 42
0.013364
 10
114.8346307424958
 20
159.5389761811227
 42
0.032019
 10
119.2207577424958
 20
165.1962551811227
 42
-0.00599
 10
120.8998917424958
 20
167.6117401811227
 42
-0.00813
 10
122.4769177424957
 20
169.7489471811227
 42
-0.005736
 10
123.8412357424957
 20
171.4944271811227
 42
-0.085787
 10
124.4181547424958
 20
172.0052721811227
 42
-0.515761
 10
124.8605057424958
 20
171.8188851811227
 42
-0.026576
 10
125.1628497424958
 20
170.0200651811227
 42
-0.020976
 10
125.3634977424957
 20
167.2161581811227
 42
-0.007373
 10
125.4230087424957
 20
163.1808331811227
 10
125.4230087424957
 20
153.7353601811227
 10
129.7962087424957
 20
153.0795581811227
 42
0.049065
 10
134.2644917424957
 20
152.8523811811227
 42
0.02437
 10
139.9165107424957
 20
153.3965551811227
 42
0.024235
 10
145.3927797424957
 20
154.4677931811227
 42
0.058971
 10
149.2387097424957
 20
155.9129671811227
 42
0.069054
 10
152.9213427424958
 20
158.5151031811227
 42
0.047357
 10
156.3119697424957
 20
162.3566951811227
 42
0.044985
 10
159.0958637424957
 20
167.0160181811227
 42
0.04611
 10
160.9744887424957
 20
172.0603861811227
 42
0.055072
 10
162.2754347424957
 20
180.4235621811227
 42
0.030878
 10
162.0957127424958
 20
190.7219031811227
 42
0.023263
 10
160.4429937424958
 20
203.8003051811227
 42
0.0101
 10
157.0903477424958
 20
221.0082721811227
 42
-0.003015
 10
155.2674557424957
 20
229.7060631811227
 42
-0.002964
 10
153.5389517424958
 20
238.4744331811227
 42
-0.002914
 10
152.1141517424958
 20
246.1783811811227
 42
-0.011287
 10
151.3667447424957
 20
250.9781821811227
 42
-0.04678
 10
150.7821167424957
 20
266.1915161811227
 42
-0.074567
 10
153.4135287424957
 20
278.9149001811227
 42
-0.085984
 10
159.2551737424957
 20
289.0154791811227
 42
-0.087124
 10
168.1311897424958
 20
296.5082721811227
 10
174.1420807424958
 20
300.0082721811227
 10
178.4185637424957
 20
313.0082721811227
 42
-0.000634
 10
180.1176737424957
 20
318.1513771811227
 42
-0.000828
 10
181.6853537424958
 20
322.8504591811228
 42
-0.00061
 10
183.0107797424957
 20
326.7856461811228
 42
-0.007727
 10
183.5342767424957
 20
328.2582721811227
 42
-0.06787
 10
184.3276517424958
 20
329.7366391811227
 42
-0.165039
 10
185.3251737424957
 20
330.4421651811227
 42
-0.323943
 10
186.0925017424957
 20
330.1723821811227
 42
-0.15271
  0
LWPOLYLINE
  5
BE
330
BC
100
AcDbEntity
  8
0
100
AcDbPolyline
 90
      136
 70
     1
 43
0.0
 10
152.4587747424958
 20
290.5585011811227
 42
0.05769
 10
148.2200227424957
 20
282.8641011811228
 42
0.044535
 10
145.3940857424957
 20
273.7047091811227
 42
0.041834
 10
144.1050387424957
 20
263.5798211811227
 42
0.037614
 10
144.4453197424957
 20
253.0082721811227
 42
0.008612
 10
145.2900517424958
 20
246.2634451811227
 42
0.012314
 10
146.2890897424957
 20
240.3166901811228
 42
0.007955
 10
147.8714157424957
 20
232.7813381811227
 42
0.001625
 10
150.9252057424958
 20
219.5082721811227
 42
-0.015885
 10
154.6942377424957
 20
200.6851511811227
 42
-0.035819
 10
156.0624717424957
 20
186.2104031811227
 42
-0.048526
 10
155.2422057424958
 20
175.1963761811227
 42
-0.104138
 10
152.1068437424957
 20
167.3199501811227
 42
-0.078709
 10
149.3937927424957
 20
164.3692491811227
 42
-0.049653
 10
145.4486417424958
 20
161.8348801811227
 42
-0.049044
 10
141.0060907424957
 20
160.0924281811227
 42
-0.069052
 10
136.7964387424957
 20
159.5082721811227
 10
132.5936487424957
 20
159.5082721811227
 10
131.9584157424957
 20
167.2582721811227
 42
0.01567
 10
131.1759107424957
 20
174.1462291811227
 42
0.01194
 10
129.9039307424958
 20
181.6309021811226
 42
0.005425
 10
128.4611487424957
 20
188.6379561811227
 42
0.203571
 10
127.5455807424958
 20
189.9325181811227
 42
0.397
 10
127.0952647424957
 20
189.8401741811227
 42
0.007241
 10
125.5967287424957
 20
187.6413771811227
 42
0.013608
 10
123.8706137424957
 20
184.8667891811227
 42
0.008141
 10
121.9639697424957
 20
181.4822361811227
 42
-0.028932
 10
115.2527847424957
 20
170.6479391811227
 42
-0.027167
 10
107.2034757424957
 20
160.4199781811227
 42
-0.027923
 10
98.36583074249578
 20
151.4309891811227
 42
-0.036462
 10
89.29639274249575
 20
144.3167821811227
 42
-0.029452
 10
85.55517574249575
 20
142.1076801811227
 42
-0.021385
 10
81.16206674249577
 20
140.0836651811227
 42
-0.013198
 10
77.01980874249577
 20
138.5123011811227
 42
-0.287983
 10
75.80902974249577
 20
138.7889171811227
 42
-0.2876
 10
75.70116574249576
 20
139.2595191811227
 42
-0.007735
 10
76.46217574249575
 20
141.3427621811227
 42
-0.013822
 10
77.49616974249576
 20
143.8344341811227
 42
-0.008743
 10
78.83207474249577
 20
146.6832891811227
 42
0.034731
 10
82.59918174249577
 20
155.9388991811227
 42
0.027154
 10
85.41844474249575
 20
166.4183571811227
 42
0.02085
 10
86.97617374249574
 20
175.6695411811227
 42
0.451354
 10
85.35422874249579
 20
177.5082721811227
 42
0.052919
 10
84.60636274249578
 20
177.4288971811227
 42
0.001853
 10
81.75554474249574
 20
176.8057931811227
 42
0.003429
 10
78.39105874249577
 20
176.0330831811227
 42
0.00239
 10
74.60422874249577
 20
175.1168551811227
 42
-0.000941
 10
62.46005274249575
 20
172.1412761811227
 42
-0.123467
 10
60.93722674249576
 20
172.1523701811227
 42
-0.5372060000000002
 10
60.67473574249575
 20
172.9140261811227
 42
-0.006654
 10
64.47400474249576
 20
177.7356671811227
 42
0.033722
 10
70.83996074249578
 20
186.7813011811227
 42
0.016989
 10
77.67802174249576
 20
198.9531611811227
 42
0.016987
 10
83.72147474249578
 20
211.6611501811227
 42
0.031266
 10
87.61886174249573
 20
222.4240241811227
 42
-0.387481
 10
88.15872274249576
 20
222.7524561811227
 42
-0.0826
 10
89.28336774249576
 20
222.3321961811227
 42
-0.037996
 10
91.06094774249578
 20
221.1202681811227
 42
-0.010115
 10
93.69728074249579
 20
218.9240241811227
 42
-0.008614
 10
97.2611537424958
 20
215.7215471811227
 42
-0.07896
 10
98.54017274249578
 20
214.0868791811227
 42
-0.124836
 10
98.97779774249578
 20
212.4281701811227
 42
-0.033541
 10
98.82002274249579
 20
209.6866891811227
 42
0.038385
 10
98.69935774249578
 20
207.1648751811227
 42
0.056136
 10
99.01160274249576
 20
204.9662551811227
 42
0.042714
 10
99.88344674249574
 20
202.4906081811227
 42
0.013307
 10
101.6010017424958
 20
198.9403881811227
 42
0.008052
 10
102.9250627424957
 20
196.4776971811227
 42
0.012499
 10
104.1536737424957
 20
194.4018441811227
 42
0.006754
 10
105.2376287424958
 20
192.7215341811227
 42
0.249786
 10
105.6260047424957
 20
192.5119711811227
 42
0.378221
 10
107.3359397424958
 20
194.0054251811227
 42
0.015907
 10
108.1893557424958
 20
202.6966191811228
 42
0.024052
 10
108.3501377424958
 20
211.6417561811227
 42
0.073263
 10
107.2865277424957
 20
217.6090491811227
 42
0.018598
 10
106.1631637424957
 20
220.5949361811227
 42
0.112301
 10
105.2063897424957
 20
221.9331451811227
 42
0.290888
 10
104.2401457424958
 20
222.0893541811227
 42
0.128771
 10
103.1767557424958
 20
221.2606301811227
 42
-0.171423
 10
102.2469817424957
 20
220.6533431811227
 42
-0.185014
 10
101.1762037424958
 20
220.7898981811227
 42
-0.059037
 10
99.55502774249575
 20
221.9245901811227
 42
-0.006364
 10
96.17300874249577
 20
225.0209781811227
 42
-0.013922
 10
93.97074974249576
 20
227.2079101811227
 42
-0.018782
 10
92.11207174249574
 20
229.3122511811227
 42
-0.01604
 10
90.71596474249577
 20
231.1341281811227
 42
-0.156708
 10
90.42300874249576
 20
232.0458931811227
 42
-0.109085
 10
90.94739174249577
 20
234.4208541811227
 42
-0.007558
 10
93.94536774249576
 20
240.6313281811228
 42
-0.011467
 10
97.51408574249579
 20
247.3578311811227
 42
-0.013904
 10
101.1759757424957
 20
253.4872801811228
 10
105.0092597424957
 20
259.5163151811227
 10
108.4988697424957
 20
255.7622931811228
 42
-0.004473
 10
113.0520897424958
 20
250.7753451811227
 42
-0.057328
 10
114.5117757424957
 20
248.7154501811227
 42
-0.151214
 10
114.8386207424958
 20
247.1178681811228
 42
-0.08248
 10
114.3136867424957
 20
245.1676811811227
 42
0.076705
 10
113.8454677424957
 20
243.5044871811227
 42
0.131038
 10
114.0444847424957
 20
242.0849011811228
 42
0.064124
 10
115.0753797424957
 20
240.3171501811227
 42
0.008184
 10
117.8216397424957
 20
236.8677511811227
 42
-0.003961
 10
119.6827987424957
 20
234.5701671811227
 42
-0.004769
 10
121.3940827424958
 20
232.3805211811227
 42
-0.004093
 10
122.8014247424958
 20
230.5124601811227
 42
-0.031826
 10
123.3935997424957
 20
229.5963391811227
 42
0.062348
 10
123.7911057424958
 20
229.0565441811227
 42
0.100566
 10
124.2570227424958
 20
228.7301681811227
 42
0.135365
 10
124.7139237424957
 20
228.6650771811227
 42
0.166634
 10
125.0980057424958
 20
228.8543271811227
 42
0.198917
 10
125.9007757424957
 20
230.8070791811227
 42
0.005005
 10
125.7766987424957
 20
240.5899011811227
 42
0.008578
 10
125.4023917424958
 20
249.9784241811227
 42
0.081416
 10
124.5297797424957
 20
253.8902491811227
 42
0.012533
 10
123.7376897424957
 20
255.7276641811227
 42
0.212066
 10
123.2533537424958
 20
256.1531231811227
 42
0.24745
 10
122.6563787424957
 20
256.0430601811227
 42
0.017024
 10
121.3019877424958
 20
254.8987501811227
 42
-0.069644
 10
119.9222247424958
 20
253.9618741811227
 42
-0.238853
 10
118.8708447424957
 20
253.9739471811227
 42
-0.086082
 10
117.5910147424958
 20
254.9512151811228
 42
-0.005291
 10
114.3592427424957
 20
258.5167731811227
 42
-0.005177
 10
112.4896857424957
 20
260.6682651811228
 42
-0.007788
 10
110.9086357424957
 20
262.5859811811227
 42
-0.003733
 10
109.6105537424958
 20
264.2365271811227
 42
-0.153695
 10
109.4548367424957
 20
264.6579291811227
 42
-0.22862
 10
110.0796247424957
 20
266.1333811811227
 42
-0.005068
 10
116.1031107424957
 20
271.3168591811227
 42
-0.011985
 10
122.6110127424957
 20
276.5417541811227
 42
-0.016352
 10
128.7334737424957
 20
280.9108731811227
 42
-0.013179
 10
135.8745897424958
 20
285.3954761811227
 42
-0.013182
 10
143.2416897424958
 20
289.4973201811227
 42
-0.01013
 10
149.8086577424957
 20
292.7624651811228
 42
-0.104099
 10
152.7411027424957
 20
293.4605351811228
 42
-0.050616
 10
153.7141147424958
 20
293.3875241811227
 42
-0.391242
 10
153.9664407424957
 20
293.0548371811227
 42
-0.124372
 10
153.7297687424957
 20
292.3951371811227
 42
-0.006712
  0
LWPOLYLINE
  5
BF
330
BC
100
AcDbEntity
  8
0
100
AcDbPolyline
 90
       30
 70
     1
 43
0.0
 10
242.0747517424958
 20
206.0082721811227
 42
-0.042224
 10
243.2871707424958
 20
192.3806651811228
 42
-0.065314
 10
241.8028547424957
 20
180.6727471811227
 42
-0.081141
 10
237.8120437424958
 20
171.6994901811227
 42
-0.128995
 10
231.6064517424958
 20
166.1031341811227
 42
-0.111956
 10
222.7244107424958
 20
163.7947781811227
 42
-0.123285
 10
214.0537297424958
 20
165.6796141811227
 42
-0.10444
 10
206.2374777424957
 20
171.8404271811227
 42
-0.063325
 10
199.8709297424958
 20
181.8020251811227
 42
-0.035871
 10
196.5758057424958
 20
190.2853441811227
 42
-0.010208
 10
192.6883047424957
 20
203.8885081811227
 42
-0.003376
 10
188.9874587424958
 20
218.3104391811227
 42
-0.487762
 10
189.9232167424957
 20
219.5082721811227
 42
-0.269856
 10
190.1361267424958
 20
219.3843361811227
 42
-0.002321
 10
191.0978967424957
 20
217.6723341811227
 42
-0.007233
 10
192.1814137424957
 20
215.6542601811227
 42
-0.004502
 10
193.3962807424958
 20
213.2582721811227
 42
0.036261
 10
199.1295327424957
 20
203.5346261811227
 42
0.067997
 10
205.2791077424958
 20
196.8135981811227
 42
0.083731
 10
212.0267837424957
 20
192.8879811811227
 42
0.08978
 10
219.5251257424957
 20
191.5176561811227
 42
0.102753
 10
226.8391057424958
 20
193.0239811811226
 42
0.126861
 10
232.3188417424958
 20
197.2792181811227
 42
0.10275
 10
235.8130407424957
 20
204.4509571811227
 42
0.050934
 10
237.3002347424957
 20
214.5082721811227
 10
237.6832287424958
 20
223.0082721811227
 10
239.0920197424958
 20
219.0082721811227
 42
-0.02194
 10
239.7382507424958
 20
216.8797251811227
 42
-0.006337
 10
240.5493237424957
 20
213.5395221811227
 42
-0.00636
 10
241.3687757424958
 20
209.7473321811227
 42
-0.006741
  0
LWPOLYLINE
  5
C0
330
BC
100
AcDbEntity
  8
0
100
AcDbPolyline
 90
       18
 70
     1
 43
0.0
 10
200.4742507424958
 20
139.0948391811227
 42
-0.009009
 10
200.8346587424958
 20
136.1104891811227
 42
-0.012638
 10
201.0408297424957
 20
133.4345081811227
 42
-0.008951
 10
201.1156327424958
 20
131.2168411811227
 42
-0.143317
 10
200.9182757424958
 20
130.5006131811227
 42
-0.219739
 10
200.3245377424958
 20
130.1076831811227
 42
-0.011117
 10
197.9653957424958
 20
129.7997721811227
 42
-0.016089
 10
195.0584857424957
 20
129.5802441811227
 42
-0.010801
 10
191.7271497424957
 20
129.5082721811227
 10
183.1493247424957
 20
129.5082721811227
 10
187.7020327424958
 20
134.3754851811227
 42
0.020272
 10
189.6417137424957
 20
136.6253971811227
 42
0.013112
 10
191.7084167424958
 20
139.3739861811227
 42
0.013185
 10
193.5897147424958
 20
142.1708191811227
 42
0.024191
 10
194.9476247424958
 20
144.5568501811227
 42
-0.028391
 10
197.1039307424958
 20
148.2728541811227
 42
-0.473152
 10
198.3463957424957
 20
148.4029921811227
 42
-0.157442
 10
199.3376527424958
 20
146.4941071811227
 42
-0.007109
  0
LWPOLYLINE
  5
C1
330
BC
100
AcDbEntity
  8
0
100
AcDbPolyline
 90
      372
 70
     1
 43
0.0
 10
183.2005027424957
 20
110.9515681811227
 42
-0.036601
 10
184.0509517424958
 20
110.2579401811227
 42
-0.039211
 10
184.7701477424958
 20
109.4624381811227
 42
-0.042554
 10
185.2697127424957
 20
108.6858301811227
 42
-0.122246
 10
185.4230087424958
 20
108.0681991811227
 42
0.241751
 10
185.9973897424957
 20
106.9496681811227
 42
0.105892
 10
187.5687537424958
 20
106.2648351811227
 42
0.056151
 10
190.2642487424957
 20
106.0275091811227
 42
0.017859
 10
194.2941277424958
 20
106.2699101811227
 10
199.4626397424957
 20
106.7665391811227
 10
197.6005157424957
 20
102.3874051811227
 42
0.013561
 10
195.8411327424958
 20
97.91696418112273
 42
0.04776
 10
195.0704937424958
 20
94.92848618112271
 42
0.079069
 10
195.0724207424957
 20
92.75231118112271
 42
0.118722
 10
195.7999297424957
 20
91.00747918112274
 42
0.164227
 10
197.3705907424958
 20
89.90062718112273
 42
0.232585
 10
199.0282937424958
 20
90.18299218112273
 42
0.092994
 10
200.9818277424957
 20
92.24009018112273
 42
0.018065
 10
203.6171927424958
 20
96.65655518112274
 42
-0.052218
 10
207.1387927424957
 20
101.7360381811227
 42
-0.081683
 10
211.2072187424958
 20
105.1436511811227
 42
-0.076117
 10
216.3678957424957
 20
107.2186141811227
 42
-0.039751
 10
223.2348487424958
 20
108.2626971811227
 42
-0.036208
 10
228.5223897424958
 20
108.2576351811227
 42
-0.070029
 10
232.6478317424958
 20
107.3646361811227
 42
-0.090194
 10
235.6583147424958
 20
105.5889831811227
 42
-0.108034
 10
237.6268777424958
 20
102.9601721811227
 42
0.057189
 10
238.2414817424958
 20
101.9389841811227
 42
0.070195
 10
239.0362477424958
 20
101.1611941811227
 42
0.075653
 10
239.9613297424957
 20
100.6755521811227
 42
0.083293
 10
240.9585237424957
 20
100.5082721811227
 42
-0.019614
 10
242.0172177424957
 20
100.4667251811227
 42
-0.008927
 10
243.3963437424958
 20
100.3335041811227
 42
-0.008824
 10
244.8469217424957
 20
100.1412031811227
 42
-0.011988
 10
246.1477827424958
 20
99.91331718112272
 10
249.1225567424958
 20
99.31836218112273
 10
246.7965177424958
 20
93.66331718112272
 42
0.03992
 10
244.7587097424957
 20
87.31106318112271
 42
0.113488
 10
244.7373597424958
 20
82.69116918112272
 42
0.223142
 10
246.6085337424957
 20
80.28256718112272
 42
0.181229
 10
249.8918337424957
 20
79.91109218112271
 42
0.141835
 10
252.1675727424958
 20
81.2374491811227
 42
0.076895
 10
254.0324787424958
 20
83.91813018112273
 42
0.058396
 10
255.4015447424957
 20
87.81722818112271
 42
0.032658
 10
256.1823167424958
 20
92.79050018112272
 10
256.7225627424958
 20
98.74842818112274
 10
262.0118147424958
 20
98.12678018112274
 42
-0.016971
 10
267.1434197424958
 20
97.34632318112273
 42
-0.06637
 10
270.1830017424958
 20
96.34775218112274
 42
-0.125056
 10
271.8190987424958
 20
94.97309518112272
 42
-0.157072
 10
272.4230087424958
 20
93.09812318112273
 42
0.08908
 10
273.2175917424958
 20
88.67358018112273
 42
0.065757
 10
275.5495677424958
 20
84.26669818112273
 42
0.064076
 10
279.0246917424958
 20
80.50643918112271
 42
0.074799
 10
283.1730087424958
 20
77.97739318112272
 42
-0.041268
 10
285.6324667424957
 20
76.6949121811227
 42
-0.27187
 10
286.2443717424957
 20
75.5101371811227
 42
-0.238768
 10
285.5333077424958
 20
74.27662818112273
 42
-0.033547
 10
282.8918457424958
 20
72.79202018112272
 42
0.064397
 10
280.6529037424958
 20
71.34557618112274
 42
0.09355
 10
279.1740667424958
 20
69.52443018112274
 42
0.097019
 10
278.4940377424958
 20
67.34192618112271
 42
0.074144
 10
278.5927687424958
 20
64.83736718112272
 42
0.253654
 10
279.7978217424957
 20
63.36005718112272
 42
0.080277
 10
282.6637037424958
 20
62.69050518112272
 42
0.066366
 10
286.2403437424958
 20
62.91698018112274
 42
0.070485
 10
289.5548577424958
 20
64.07645418112273
 42
0.034793
 10
291.1497887424957
 20
65.04732318112272
 42
0.011419
 10
293.3574727424958
 20
66.68830618112273
 42
0.011313
 10
295.7319687424957
 20
68.62685718112271
 42
0.01256
 10
297.9331117424958
 20
70.60627118112271
 10
303.0592377424958
 20
75.45434718112272
 10
308.2518497424958
 20
73.48130918112272
 42
0.012045
 10
310.3935907424958
 20
72.72603018112272
 42
0.012647
 10
312.5349087424958
 20
72.08785218112272
 42
0.012374
 10
314.4066677424957
 20
71.63057618112273
 42
0.053767
 10
315.5407237424958
 20
71.50827218112272
 42
-0.040407
 10
316.5459517424957
 20
71.42690318112272
 42
-0.188615
 10
317.0368157424958
 20
71.13639718112273
 42
-0.214691
 10
317.1639517424957
 20
70.6182161811227
 42
-0.053023
 10
316.9089147424957
 20
69.75827218112272
 42
0.061303
 10
315.8376797424958
 20
65.91462818112273
 42
0.052057
 10
315.6466057424958
 20
61.70265618112273
 42
0.047779
 10
316.3456927424958
 20
57.20420418112272
 42
0.037199
 10
317.9223297424958
 20
52.50988518112271
 42
-0.058917
 10
320.0370077424958
 20
45.17493318112272
 42
-0.112174
 10
319.6681627424958
 20
39.07790618112273
 42
-0.133579
 10
316.8245887424957
 20
34.43389218112273
 42
-0.102561
 10
311.7364967424958
 20
31.30466818112271
 42
0.046948
 10
309.2698677424958
 20
30.14100518112272
 42
0.377686
 10
308.9131317424958
 20
29.04218418112274
 42
0.233039
 10
310.0585297424958
 20
28.06846318112273
 42
0.02789
 10
313.4174497424958
 20
27.41938018112274
 42
-0.103161
 10
318.2032977424957
 20
25.72258218112273
 42
-0.121788
 10
321.5809827424958
 20
22.32254818112273
 42
-0.11735
 10
323.0631637424957
 20
17.63239818112272
 42
-0.09114
 10
322.4773967424958
 20
12.29546818112271
 42
-0.088482
 10
319.8647057424957
 20
7.121324181122716
 42
-0.122331
 10
315.8476257424958
 20
3.851288181122711
 42
-0.119631
 10
310.6955087424958
 20
2.798011181122703
 42
-0.082269
 10
304.8284127424957
 20
3.991248181122728
 42
-0.036026
 10
302.5527377424958
 20
5.053795181122723
 42
-0.010678
 10
299.2360897424957
 20
6.998001181122717
 42
-0.010655
 10
295.5911517424958
 20
9.349087181122712
 42
-0.0113
 10
292.1215507424957
 20
11.80923618112271
 42
0.010682
 10
283.7195497424957
 20
17.78235518112272
 42
0.017338
 10
276.3078647424958
 20
22.44956518112272
 42
0.018381
 10
268.9150167424958
 20
26.39802218112271
 42
0.014226
 10
260.5974557424958
 20
30.16581118112271
 42
0.022175
 10
244.0538507424957
 20
36.25248518112272
 42
0.022365
 10
227.0829187424958
 20
40.8304151811227
 42
0.022551
 10
209.9120487424957
 20
43.84268418112273
 42
0.023482
 10
192.7702087424957
 20
45.24476318112272
 42
-0.004009
 10
186.8825687424958
 20
45.49616018112272
 42
-0.005983
 10
181.7400367424957
 20
45.81880518112273
 42
-0.002788
 10
177.3816397424958
 20
46.16910318112272
 42
-0.117486
 10
176.4990857424957
 20
46.46125418112274
 42
-0.2524739999999999
 10
176.1162587424957
 20
47.12584618112271
 42
-0.052509
 10
176.2233837424957
 20
48.51574418112273
 42
-0.033933
 10
176.7514277424957
 20
50.58645718112273
 42
-0.010887
 10
177.8081117424957
 20
53.58034418112271
 10
180.2354607424957
 20
60.00827218112272
 10
192.0792347424957
 20
59.90694818112271
 42
-0.030716
 10
206.7215957424958
 20
58.88078318112272
 42
-0.02557
 10
222.0695077424958
 20
56.04812718112274
 42
-0.023727
 10
238.1773447424957
 20
51.39735318112272
 42
-0.018788
 10
255.1033977424958
 20
44.90820518112272
 42
-0.013626
 10
266.5169167424958
 20
39.66102118112272
 42
-0.019821
 10
276.2506677424958
 20
34.37116418112271
 42
-0.018697
 10
285.9419167424958
 20
28.09312418112273
 42
-0.010429
 10
297.2796917424958
 20
19.77301218112271
 42
0.006214
 10
304.4779707424958
 20
14.39669918112272
 42
0.052212
 10
307.9825107424957
 20
12.36797118112271
 42
0.139926
 10
310.3286057424958
 20
12.03167118112272
 42
0.151108
 10
312.4189467424957
 20
13.00459618112272
 42
0.017968
 10
313.1863277424958
 20
13.75093218112273
 42
0.022996
 10
313.8343157424958
 20
14.49365318112272
 42
0.021804
 10
314.3089787424958
 20
15.14768318112273
 42
0.147097
 10
314.4230087424958
 20
15.52689618112272
 42
0.209303
 10
313.6672877424958
 20
17.25313318112273
 42
0.034711
 10
310.7701747424958
 20
19.57730218112272
 42
0.03554
 10
306.9812757424958
 20
21.82618418112273
 42
0.035855
 10
302.9230087424958
 20
23.50827218112272
 42
-0.056248
 10
296.8194057424958
 20
26.33436018112272
 42
-0.078441
 10
292.2345557424957
 20
30.21628618112271
 42
-0.087376
 10
289.4065737424958
 20
34.96245718112272
 42
-0.091012
 10
288.4230087424958
 20
40.32116618112271
 42
-0.136872
 10
289.3877347424957
 20
43.77932418112272
 42
-0.161239
 10
291.9612077424958
 20
45.97773918112269
 42
-0.226234
 10
294.7024477424957
 20
45.81928218112273
 42
-0.212164
 10
296.4067467424958
 20
43.5771601811227
 42
0.065489
 10
297.1383477424957
 20
41.64880518112272
 42
0.222818
 10
298.1896437424957
 20
40.86783918112272
 42
0.226529
 10
299.4484777424958
 20
41.18270518112271
 42
0.067389
 10
300.8297167424958
 20
42.67854218112271
 42
0.085595
 10
301.9268027424958
 20
45.00744718112272
 42
0.059237
 10
302.3661957424958
 20
47.89263318112273
 42
0.060553
 10
302.1166987424958
 20
50.71532218112273
 42
0.105957
 10
301.1633837424958
 20
52.84865218112273
 42
0.133457
 10
300.1755967424958
 20
53.63780818112272
 42
0.160678
 10
298.9976317424958
 20
53.74422818112273
 42
0.055993
 10
297.0949777424958
 20
53.07032518112271
 42
0.005443
 10
292.7170977424958
 20
50.88405618112273
 42
-0.014021
 10
288.7125947424958
 20
48.96934918112271
 42
-0.036183
 10
285.6993897424958
 20
47.88433618112271
 42
-0.041198
 10
282.7977277424957
 20
47.32343418112273
 42
-0.023416
 10
279.2267227424958
 20
47.10254618112273
 42
-0.064567
 10
271.9614857424958
 20
47.93440018112272
 42
-0.100569
 10
266.2881287424958
 20
50.62905518112273
 42
-0.111247
 10
262.4942817424958
 20
55.08486618112272
 42
-0.093144
 10
260.6673037424958
 20
61.03324918112273
 42
-0.075261
 10
260.8019047424958
 20
64.57387318112274
 42
-0.058693
 10
261.9612957424958
 20
68.25026618112272
 42
-0.062159
 10
263.8136907424957
 20
71.29273618112271
 42
-0.134129
 10
266.0066267424958
 20
72.9019861811227
 42
0.070382
 10
266.5499157424957
 20
73.20370018112271
 42
0.10057
 10
266.9136437424957
 20
73.61602418112273
 42
0.123764
 10
267.0426227424958
 20
74.07120718112273
 42
0.146897
 10
266.9273737424958
 20
74.50120918112273
 42
0.209765
 10
265.6602037424958
 20
75.37500618112273
 42
0.139762
 10
263.8770497424958
 20
75.21845618112272
 42
0.07871
 10
261.5840187424958
 20
73.89826518112272
 42
0.030637
 10
258.8759567424958
 20
71.42187418112271
 42
-0.07046
 10
251.1014167424958
 20
65.37169318112271
 42
-0.093878
 10
242.6625717424958
 20
62.44894518112272
 42
-0.106371
 10
234.5502917424958
 20
62.98299618112273
 42
-0.115814
 10
227.6551257424958
 20
66.82434918112273
 42
0.034917
 10
226.1575997424958
 20
68.00853118112271
 42
0.13747
 10
225.0539717424958
 20
68.38168518112272
 42
0.08942
 10
223.6698887424958
 20
68.20700318112272
 42
0.010061
 10
220.6551257424958
 20
67.1944401811227
 42
-0.050053
 10
214.3920867424957
 20
65.63432818112272
 42
-0.094667
 10
209.2129317424958
 20
65.86579818112273
 42
-0.09553
 10
204.5148717424957
 20
67.98592218112273
 42
-0.051693
 10
199.7194657424957
 20
72.17226918112271
 10
195.5022317424958
 20
76.70087218112271
 10
192.2742767424957
 20
74.40236518112271
 42
-0.028923
 10
190.6909797424957
 20
73.40763218112272
 42
-0.013962
 10
188.5609667424958
 20
72.31170718112273
 42
-0.013794
 10
186.2706147424957
 20
71.2897641811227
 42
-0.019244
 10
184.1660967424957
 20
70.51291918112273
 42
0.025543
 10
181.1106007424957
 20
69.34111618112272
 42
0.115813
 10
179.5999167424958
 20
68.19773218112271
 42
0.082665
 10
178.5083757424958
 20
66.32345018112272
 42
0.009397
 10
176.8510387424957
 20
61.69151018112271
 42
-0.022447
 10
172.3642167424958
 20
50.11335918112272
 42
-0.018398
 10
166.5752907424957
 20
38.17163718112272
 42
-0.018711
 10
160.4566707424957
 20
27.62258918112272
 42
-0.048299
 10
155.0681617424957
 20
20.67295318112272
 42
-0.041967
 10
150.9210227424958
 20
16.95525018112272
 42
-0.089933
 10
147.0982417424957
 20
15.02501918112271
 42
-0.108864
 10
143.3333887424957
 20
14.75602918112272
 42
-0.083116
 10
139.3902757424957
 20
16.02519918112271
 42
-0.204971
 10
134.3294407424957
 20
22.16697818112272
 42
-0.119554
 10
133.8747457424958
 20
31.85773018112272
 42
-0.084572
 10
138.3058147424958
 20
43.63577018112272
 42
-0.054638
 10
147.0017197424957
 20
55.37042018112271
 42
0.011888
 10
151.1726827424958
 20
60.09600418112274
 42
0.095899
 10
152.5746667424957
 20
62.61334618112272
 42
0.353534
 10
152.0679967424958
 20
63.94846218112272
 42
0.132887
 10
149.9988507424957
 20
64.50827218112272
 42
-0.069076
 10
148.9234757424958
 20
64.65755018112273
 42
-0.031256
 10
147.5788467424958
 20
65.13071118112271
 42
-0.030204
 10
146.1996517424958
 20
65.81616118112271
 42
-0.036238
 10
144.9989267424957
 20
66.62721518112272
 10
142.3051287424958
 20
68.74615718112273
 10
140.1140687424957
 20
66.73220918112273
 42
-0.048827
 10
135.4417967424957
 20
63.21173418112272
 42
-0.067514
 10
130.6406817424957
 20
61.10600718112272
 42
-0.079456
 10
126.1117477424957
 20
60.56026018112271
 42
-0.113671
 10
122.2215077424958
 20
61.6161121811227
 42
0.07063
 10
121.0044007424957
 20
62.06090218112271
 42
0.093915
 10
119.8291457424957
 20
62.08683518112272
 42
0.066574
 10
118.4408077424958
 20
61.66015518112271
 42
0.020231
 10
116.4757537424958
 20
60.65807318112272
 42
-0.092978
 10
107.8670037424958
 20
57.74192818112272
 42
-0.181689
 10
100.8938217424957
 20
59.28859618112273
 42
-0.179662
 10
96.61339374249578
 20
65.06728118112272
 42
-0.090775
 10
95.68718474249573
 20
74.21058318112272
 10
96.18538074249579
 20
80.41704518112272
 10
93.13424074249576
 20
79.17205118112272
 42
0.052142
 10
91.32003674249574
 20
78.2006191811227
 42
0.157009
 10
90.46591874249577
 20
77.1080611811227
 42
0.076629
 10
90.09455874249576
 20
75.26742118112273
 42
0.006626
 10
89.93672074249577
 20
70.4676641811227
 42
-0.045672
 10
89.12414374249578
 20
63.17073618112272
 42
-0.05604
 10
87.00645174249578
 20
56.65286418112271
 42
-0.055926
 10
83.48986774249576
 20
50.75754718112273
 42
-0.045209
 10
78.51782874249576
 20
45.31155918112273
 42
-0.024269
 10
73.60740374249576
 20
41.24246918112271
 42
-0.059032
 10
69.54501974249578
 20
38.88663318112273
 42
-0.073383
 10
65.62031174249577
 20
37.83799818112271
 42
-0.058183
 10
61.22556974249576
 20
37.84525018112274
 10
56.49756874249579
 20
38.40521218112272
 10
54.80429374249578
 20
32.37042318112273
 42
-0.095049
 10
47.36024274249579
 20
17.46116818112271
 42
-0.10823
 10
35.20003574249577
 20
7.165264181122708
 42
-0.130215
 10
21.62168674249577
 20
4.01497018112272
 42
-0.174112
 10
9.948220742495777
 20
8.620279181122725
 42
-0.03938
 10
6.604288742495782
 20
12.05817218112271
 42
-0.050181
 10
4.135523742495763
 20
15.72509618112272
 42
-0.045775
 10
2.291792742495772
 20
20.07641618112271
 42
-0.02594
 10
0.83349374249579
 20
25.61558818112272
 42
-0.108423
 10
1.010684742495755
 20
42.5849721811227
 42
-0.079585
 10
8.105239742495768
 20
60.0787931811227
 42
-0.067474
 10
21.71476574249579
 20
76.94791918112272
 42
-0.04706
 10
41.01152874249575
 20
92.02174818112272
 42
-0.013888
 10
46.11953274249578
 20
95.09281618112272
 42
-0.009231
 10
52.13430774249577
 20
98.34042618112272
 42
-0.00256
 10
58.17792074249578
 20
101.4218161811227
 42
-0.323578
 10
58.97026674249577
 20
101.2943471811227
 42
-0.273947
 10
59.05040974249576
 20
100.9812971811227
 42
-0.001756
 10
58.20440174249575
 20
98.12191418112272
 42
-0.006289
 10
57.17133174249577
 20
94.82617118112273
 42
-0.003892
 10
55.87877174249576
 20
90.97887118112272
 42
0.008022
 10
54.51568874249577
 20
86.80785518112273
 42
0.007604
 10
53.26144474249577
 20
82.52055218112273
 42
0.00758
 10
52.26724874249575
 20
78.69469218112271
 42
0.026376
 10
51.79426774249577
 20
76.18585918112273
 42
-0.055737
 10
50.91328574249576
 20
72.66164018112272
 42
-0.114199
 10
49.35252874249576
 20
70.29869818112271
 42
-0.046654
 10
46.09758774249576
 20
67.73891318112271
 42
-0.003368
 10
36.42300874249577
 20
61.58637518112271
 10
26.92300874249577
 20
55.63436418112272
 10
26.41843074249576
 20
58.29105118112273
 10
25.91385274249575
 20
60.9477381811227
 10
23.66800574249575
 20
58.09260618112273
 42
0.083183
 10
20.60862774249577
 20
52.49952918112274
 42
0.096766
 10
19.75428274249577
 20
46.50710018112272
 42
0.109276
 10
21.21944374249577
 20
41.19248318112272
 42
0.134949
 10
24.72747874249578
 20
37.46418718112273
 42
0.022097
 10
26.08227574249577
 20
36.71813118112272
 42
0.02149
 10
27.51008674249576
 20
36.08700418112273
 42
0.02198
 10
28.81075874249578
 20
35.64254518112273
 42
0.070927
 10
29.71284674249574
 20
35.51201018112272
 42
0.107237
 10
32.56870174249576
 20
36.12539918112273
 42
0.037984
 10
36.25592174249576
 20
38.14527818112273
 42
0.033023
 10
40.35891774249577
 20
41.22001918112272
 42
0.023158
 10
44.56364774249576
 20
45.18008318112274
 42
0.012867
 10
47.58235174249577
 20
48.46419718112272
 42
0.044525
 10
49.27891074249578
 20
50.79798818112272
 42
0.06001
 10
50.26250074249574
 20
53.00217518112271
 42
0.039942
 10
50.86697074249577
 20
55.70525818112272
 42
-0.054496
 10
52.32303674249576
 20
61.43043218112274
 42
-0.040731
 10
55.09470974249578
 20
67.32778918112271
 42
-0.03849
 10
58.98676674249577
 20
73.04487818112272
 42
-0.036038
 10
63.78903074249575
 20
78.23406218112271
 42
-0.019853
 10
68.74295774249578
 20
82.51246018112272
 42
-0.041495
 10
72.97466374249578
 20
85.34407818112274
 42
-0.053427
 10
76.80357574249575
 20
86.96301118112272
 42
-0.073449
 10
80.49539674249576
 20
87.50827218112272
 42
0.041783
 10
81.8745807424958
 20
87.62372518112272
 42
0.034196
 10
83.3139807424958
 20
87.96895918112273
 42
0.035422
 10
84.60064074249576
 20
88.47479718112271
 42
0.072671
 10
85.49847574249577
 20
89.07656918112271
 42
-0.03967
 10
86.50621974249574
 20
89.85267218112273
 42
-0.128673
 10
87.30044274249577
 20
90.11677518112273
 42
-0.12226
 10
88.14638974249579
 20
89.96438918112273
 42
-0.034191
 10
89.34156974249575
 20
89.32705818112273
 42
0.077537
 10
90.69417374249576
 20
88.74962718112271
 42
0.111541
 10
91.99102674249578
 20
88.71518418112273
 42
0.062019
 10
93.68611874249578
 20
89.27595718112272
 42
0.01094
 10
96.68736174249573
 20
90.78258118112273
 42
0.023247
 10
99.08393974249577
 20
92.19843018112271
 42
0.011531
 10
101.9923827424958
 20
94.20172218112274
 42
0.011419
 10
104.9179007424957
 20
96.42136718112272
 42
0.016418
 10
107.3948207424958
 20
98.52774518112273
 42
-0.028908
 10
111.1585217424957
 20
101.5698131811227
 42
-0.032996
 10
115.0910217424957
 20
104.0133891811227
 42
-0.030991
 10
118.5123347424957
 20
105.5744571811227
 42
-0.2961
 10
120.0085057424958
 20
105.2561081811227
 42
-0.28041
 10
120.1023877424957
 20
104.8701671811227
 42
-0.005274
 10
119.4242947424957
 20
102.8150391811227
 42
-0.011209
 10
118.5315657424957
 20
100.3820201811227
 42
-0.00706
 10
117.3856897424957
 20
97.58009618112271
 42
0.027399
 10
115.1495597424957
 20
91.40712718112272
 42
0.077208
 10
114.5169977424958
 20
86.87403218112274
 42
0.146444
 10
115.4168687424958
 20
84.0284411811227
 42
0.218047
 10
117.6158337424958
 20
82.69736718112273
 42
0.180288
 10
120.0384897424958
 20
83.29484418112272
 42
0.127736
 10
121.8988897424958
 20
85.42388618112269
 42
0.080897
 10
123.0579197424957
 20
89.13620718112273
 42
0.03531
 10
123.4230087424957
 20
94.29959518112273
 10
123.4230087424957
 20
100.1902381811227
 10
129.8648237424957
 20
103.3311441811227
 42
-0.018668
 10
134.1199237424957
 20
105.2126601811227
 42
-0.016202
 10
138.7078127424957
 20
106.8697081811227
 42
-0.01608
 10
142.9073137424957
 20
108.0865801811227
 42
-0.05487
 10
145.7210497424958
 20
108.4838261811227
 42
-0.536074
 10
145.8765117424957
 20
108.2647891811227
 42
-0.024021
 10
145.4306127424958
 20
107.2526531811227
 42
-0.022459
 10
144.6708007424957
 20
105.8876121811227
 42
-0.011788
 10
143.6116757424958
 20
104.2582721811227
 42
0.014412
 10
140.5930937424958
 20
99.56077618112272
 42
0.036172
 10
138.7499797424958
 20
95.93251218112271
 42
0.04773
 10
137.7578687424957
 20
92.75142818112271
 42
0.051779
 10
137.4230087424958
 20
89.5265471811227
 42
0.098989
 10
138.1492617424957
 20
85.89413718112272
 42
0.305941
 10
140.1358637424957
 20
84.58595418112272
 42
0.256583
 10
142.4349987424957
 20
85.88347918112274
 42
0.084819
 10
143.9434467424957
 20
89.60132518112272
 42
-0.045114
 10
144.3682657424957
 20
90.94428118112274
 42
-0.022694
 10
145.1292747424958
 20
92.55274818112273
 42
-0.022334
 10
146.0731087424957
 20
94.15640118112273
 42
-0.030731
 10
147.0689547424957
 20
95.49935018112273
 42
-0.074871
 10
152.5563677424957
 20
100.3299501811227
 42
-0.02089
 10
162.4542807424957
 20
106.1371571811227
 42
-0.019804
 10
172.6898877424958
 20
111.0716001811227
 42
-0.096275
 10
178.9505027424957
 20
112.4561681811227
 42
-0.061222
 10
179.8866087424957
 20
112.3654591811227
 42
-0.03035
 10
181.0352807424958
 20
112.0356851811227
 42
-0.029581
 10
182.2008687424958
 20
111.5437061811227
 42
-0.038135
  0
LWPOLYLINE
  5
C2
330
BC
100
AcDbEntity
  8
0
100
AcDbPolyline
 90
       32
 70
     1
 43
0.0
 10
135.7524527424957
 20
48.88754318112271
 42
-0.026591
 10
133.7406747424958
 20
45.9733911811227
 42
-0.0965
 10
132.0574007424957
 20
44.49404918112273
 42
-0.064298
 10
129.6132197424957
 20
43.46014418112273
 42
-0.007569
 10
123.8866427424957
 20
41.95744018112271
 42
0.033138
 10
105.8543197424957
 20
36.22615718112272
 42
0.026111
 10
87.19364974249577
 20
27.75369818112273
 42
0.025964
 10
69.38922874249576
 20
17.31403818112271
 42
0.031452
 10
53.92300874249577
 20
5.675114181122708
 42
-0.005581
 10
51.21092474249576
 20
3.405341181122707
 42
-0.009216
 10
48.86433474249577
 20
1.556716181122709
 42
-0.003382
 10
46.84557274249576
 20
0.0471991811227213
 42
-0.369498
 10
46.53177674249576
 20
0.070015181122713
 42
-0.385879
 10
46.47116874249576
 20
1.195707181122728
 42
-0.005003
 10
51.36807674249576
 20
7.095620181122711
 42
-0.01273
 10
56.93036574249578
 20
13.33320718112273
 42
-0.013244
 10
62.73194274249579
 20
19.19567818112273
 42
-0.010423
 10
66.34359874249577
 20
22.51527618112271
 42
-0.007963
 10
70.42625774249578
 20
25.99977518112272
 42
-0.008061
 10
74.35624074249577
 20
29.14200218112274
 42
-0.018752
 10
77.42300874249576
 20
31.33531618112272
 42
-0.021279
 10
85.05306574249576
 20
35.91724118112271
 42
-0.01251
 10
94.52836574249573
 20
40.7688601811227
 42
-0.012464
 10
104.3387847424957
 20
45.1885621811227
 42
-0.019396
 10
113.0200907424957
 20
48.45193218112274
 42
-0.01722
 10
119.9187727424958
 20
50.4831421811227
 42
-0.009788
 10
128.3864397424958
 20
52.48662218112272
 42
-0.003393
 10
136.8815167424957
 20
54.26151718112271
 42
-0.22548
 10
138.2888187424958
 20
53.91061518112272
 42
-0.343698
 10
138.3477797424958
 20
53.64792518112273
 42
-0.006573
 10
137.6946577424958
 20
52.31107818112272
 42
-0.012933
 10
136.8387507424957
 20
50.71970318112272
 42
-0.007931
  0
LWPOLYLINE
  5
C3
330
BC
100
AcDbEntity
  8
0
100
AcDbPolyline
 90
       18
 70
     1
 43
0.0
 10
178.4230087424957
 20
277.9230821811227
 42
0.065333
 10
173.1421107424958
 20
275.2164191811227
 42
0.074113
 10
168.9898737424958
 20
271.3321761811227
 42
0.078833
 10
166.3391237424957
 20
266.6312511811227
 42
0.08926
 10
165.4230087424958
 20
261.5403911811227
 10
165.4230087424958
 20
258.5082721811227
 10
171.3082067424958
 20
264.3934701811227
 42
-0.039308
 10
176.5717657424957
 20
268.8886581811227
 42
-0.053998
 10
181.9680157424958
 20
271.9809101811227
 42
-0.049861
 10
188.2291747424958
 20
274.0060641811227
 42
-0.027716
 10
196.1599477424958
 20
275.2677831811227
 42
0.002911
 10
201.1002127424958
 20
275.8042921811227
 42
0.070644
 10
202.4373167424958
 20
276.1529131811228
 42
0.540983
 10
202.5293827424958
 20
276.6506481811227
 42
0.062656
 10
201.4230087424958
 20
277.4688391811227
 42
0.099416
 10
197.4640897424958
 20
278.7519991811227
 42
0.023881
 10
190.5423717424957
 20
279.2199321811227
 42
0.025255
 10
183.4264507424957
 20
279.0010371811227
 42
0.065568
  0
LWPOLYLINE
  5
C4
330
BC
100
AcDbEntity
  8
0
100
AcDbPolyline
 90
       12
 70
     1
 43
0.0
 10
167.8029477424958
 20
96.01961818112272
 42
0.081506
 10
163.7965137424957
 20
92.6267861811227
 42
0.135353
 10
161.9379307424958
 20
88.6418981811227
 42
0.189433
 10
162.6669107424957
 20
85.17215118112273
 42
0.172159
 10
165.5957517424958
 20
82.95344518112273
 42
0.150351
 10
167.3886177424957
 20
82.93755318112273
 42
0.13968
 10
168.9412347424957
 20
83.92653718112271
 42
0.086521
 10
170.2640487424957
 20
86.06747418112272
 42
0.031224
 10
171.3880587424958
 20
89.47737418112271
 42
0.003913
 10
173.2080097424957
 20
96.65992918112273
 42
0.187564
 10
173.0175407424957
 20
98.11135818112274
 42
0.411416
 10
172.0162117424957
 20
98.4089441811227
 42
0.012068
  0
LWPOLYLINE
  5
C5
330
BC
100
AcDbEntity
  8
0
100
AcDbPolyline
 90
       16
 70
     1
 43
0.0
 10
221.8111257424957
 20
94.46018818112269
 42
0.093741
 10
219.6655467424957
 20
93.16549418112272
 42
0.048643
 10
217.5395297424957
 20
90.85443018112272
 42
0.048903
 10
215.9360157424957
 20
88.23186418112271
 42
0.113244
 10
215.4230087424958
 20
85.99585818112274
 42
0.101812
 10
215.8429727424957
 20
83.9547851811227
 42
0.124553
 10
217.0241927424958
 20
82.41277318112272
 42
0.147489
 10
218.6337017424957
 20
81.77658318112273
 42
0.16262
 10
220.2568317424958
 20
82.17183418112274
 42
0.08569
 10
221.8277757424957
 20
83.58405918112273
 42
0.031793
 10
223.5219947424957
 20
86.03922418112274
 42
0.031454
 10
224.9984797424958
 20
88.89216118112271
 42
0.043331
 10
225.9279117424957
 20
91.62273718112272
 42
0.085874
 10
226.0590087424958
 20
93.48866918112273
 42
0.219985
 10
225.3857747424957
 20
94.62656218112272
 42
0.182526
 10
223.9581207424958
 20
94.97955118112272
 42
0.059397
  0
LWPOLYLINE
  5
C6
330
BC
100
AcDbEntity
  8
0
100
AcDbPolyline
 90
       16
 70
     1
 43
0.0
 10
69.46601074249577
 20
68.75827218112272
 42
0.027931
 10
68.29914274249578
 20
67.17575618112272
 42
0.030797
 10
67.35698774249576
 20
65.52233418112274
 42
0.032345
 10
66.73923374249577
 20
64.0266861811227
 42
0.117036
 10
66.64320674249577
 20
63.00827218112272
 42
0.189935
 10
67.52032174249575
 20
61.45625618112274
 42
0.136407
 10
69.36612374249574
 20
60.65432018112272
 42
0.123914
 10
71.50360374249576
 20
60.88574918112271
 42
0.147302
 10
73.11698074249576
 20
62.10443218112271
 42
0.118689
 10
74.02062374249576
 20
64.27129718112272
 42
0.030617
 10
74.39239674249574
 20
68.0679101811227
 42
0.025697
 10
74.33765474249577
 20
71.72052618112272
 42
0.394906
 10
73.49581274249576
 20
72.50827218112272
 42
0.173382
 10
72.97892374249577
 20
72.32347818112273
 42
0.015688
 10
71.92958974249577
 20
71.40671018112271
 42
0.018895
 10
70.72200374249575
 20
70.19467918112272
 42
0.013644
  0
LWPOLYLINE
  5
C7
330
BC
100
AcDbEntity
  8
0
100
AcDbPolyline
 90
       12
 70
     1
 43
0.0
 10
154.8473297424958
 20
48.7058661811227
 42
0.049596
 10
151.8394027424957
 20
45.63599318112273
 42
0.091765
 10
150.1924057424958
 20
42.57095018112273
 42
0.196005
 10
150.3551407424957
 20
40.46280718112273
 42
0.283945
 10
151.9004667424957
 20
39.50827218112272
 42
0.217389
 10
153.1618917424957
 20
40.0839161811227
 42
0.028849
 10
154.9980017424958
 20
42.4650151811227
 42
0.032742
 10
156.7275427424957
 20
45.39173018112274
 42
0.04358
 10
157.8763757424957
 20
48.25827218112272
 42
0.054708
 10
158.1694857424958
 20
49.82660718112274
 42
0.393495
 10
157.7305667424958
 20
50.37573318112274
 42
0.190948
 10
156.7243747424958
 20
50.13945218112272
 42
0.022123
  0
ENDBLK
  5
C9
330
BC
100
AcDbEntity
  8
0
100
AcDbBlockEnd
  0
BLOCK
  5
F7
330
F6
100
AcDbEntity
  8
0
100
AcDbBlockBegin
  2
*U2
 70
     1
 10
0.0
 20
0.0
 30
0.0
  3
*U2
  1

  0
LWPOLYLINE
  5
FD
330
F6
100
AcDbEntity
  8
0
100
AcDbPolyline
 90
        4
 70
     1
 43
0.0
 10
3.638430741637421
 20
-3.245597983028801
 10
3.804728769109715
 20
-3.245597983028801
 10
3.804728769109715
 20
-6.458259473642556
 10
3.638430741637421
 20
-6.458259473642556
  0
ENDBLK
  5
F8
330
F6
100
AcDbEntity
  8
0
100
AcDbBlockEnd
  0
BLOCK
  5
FA
330
F9
100
AcDbEntity
  8
0
100
AcDbBlockBegin
  2
*U3
 70
     1
 10
0.0
 20
0.0
 30
0.0
  3
*U3
  1

  0
INSERT
  5
10F
330
F9
100
AcDbEntity
  8
0
  6
ByBlock
347
86
 62
     0
440
 16777216
370
    -2
380
     1
100
AcDbBlockReference
  2
*U2
 10
0.0
 20
10.0
 30
0.0
  0
INSERT
  5
110
330
F9
100
AcDbEntity
  8
0
  6
ByBlock
347
86
 62
     0
440
 16777216
370
    -2
380
     1
100
AcDbBlockReference
  2
*U2
 10
0.25
 20
10.0
 30
0.0
  0
INSERT
  5
111
330
F9
100
AcDbEntity
  8
0
  6
ByBlock
347
86
 62
     0
440
 16777216
370
    -2
380
     1
100
AcDbBlockReference
  2
*U2
 10
0.5
 20
10.0
 30
0.0
  0
INSERT
  5
112
330
F9
100
AcDbEntity
  8
0
  6
ByBlock
347
86
 62
     0
440
 16777216
370
    -2
380
     1
100
AcDbBlockReference
  2
*U2
 10
0.75
 20
10.0
 30
0.0
  0
INSERT
  5
113
330
F9
100
AcDbEntity
  8
0
  6
ByBlock
347
86
 62
     0
440
 16777216
370
    -2
380
     1
100
AcDbBlockReference
  2
*U2
 10
1.0
 20
10.0
 30
0.0
  0
INSERT
  5
114
330
F9
100
AcDbEntity
  8
0
  6
ByBlock
347
86
 62
     0
440
 16777216
370
    -2
380
     1
100
AcDbBlockReference
  2
*U2
 10
1.25
 20
10.0
 30
0.0
  0
INSERT
  5
115
330
F9
100
AcDbEntity
  8
0
  6
ByBlock
347
86
 62
     0
440
 16777216
370
    -2
380
     1
100
AcDbBlockReference
  2
*U2
 10
1.5
 20
10.0
 30
0.0
  0
INSERT
  5
116
330
F9
100
AcDbEntity
  8
0
  6
ByBlock
347
86
 62
     0
440
 16777216
370
    -2
380
     1
100
AcDbBlockReference
  2
*U2
 10
1.75
 20
10.0
 30
0.0
  0
ENDBLK
  5
FB
330
F9
100
AcDbEntity
  8
0
100
AcDbBlockEnd
  0
BLOCK
  5
119
330
118
100
AcDbEntity
  8
0
100
AcDbBlockBegin
  2
*U4
 70
     1
 10
0.0
 20
0.0
 30
0.0
  3
*U4
  1

  0
LWPOLYLINE
  5
11A
330
118
100
AcDbEntity
  8
0
100
AcDbPolyline
 90
        4
 70
     1
 43
0.0
 10
3.638430741637421
 20
-3.245597983028801
 10
3.804728769109715
 20
-3.245597983028801
 10
3.804728769109715
 20
-6.458259473642556
 10
3.638430741637421
 20
-6.458259473642556
  0
ENDBLK
  5
11B
330
118
100
AcDbEntity
  8
0
100
AcDbBlockEnd
  0
BLOCK
  5
11F
330
11E
100
AcDbEntity
  8
0
100
AcDbBlockBegin
  2
*U6
 70
     1
 10
0.0
 20
0.0
 30
0.0
  3
*U6
  1

  0
INSERT
  5
120
330
11E
100
AcDbEntity
  8
0
  6
ByBlock
347
86
 62
     0
440
 16777216
370
    -2
380
     1
100
AcDbBlockReference
  2
*U4
 10
0.0
 20
10.0
 30
0.0
  0
INSERT
  5
121
330
11E
100
AcDbEntity
  8
0
  6
ByBlock
347
86
 62
     0
440
 16777216
370
    -2
380
     1
100
AcDbBlockReference
  2
*U4
 10
0.25
 20
10.0
 30
0.0
  0
INSERT
  5
122
330
11E
100
AcDbEntity
  8
0
  6
ByBlock
347
86
 62
     0
440
 16777216
370
    -2
380
     1
100
AcDbBlockReference
  2
*U4
 10
0.5
 20
10.0
 30
0.0
  0
INSERT
  5
123
330
11E
100
AcDbEntity
  8
0
  6
ByBlock
347
86
 62
     0
440
 16777216
370
    -2
380
     1
100
AcDbBlockReference
  2
*U4
 10
0.75
 20
10.0
 30
0.0
  0
INSERT
  5
124
330
11E
100
AcDbEntity
  8
0
  6
ByBlock
347
86
 62
     0
440
 16777216
370
    -2
380
     1
100
AcDbBlockReference
  2
*U4
 10
1.0
 20
10.0
 30
0.0
  0
INSERT
  5
125
330
11E
100
AcDbEntity
  8
0
  6
ByBlock
347
86
 62
     0
440
 16777216
370
    -2
380
     1
100
AcDbBlockReference
  2
*U4
 10
1.25
 20
10.0
 30
0.0
  0
INSERT
  5
126
330
11E
100
AcDbEntity
  8
0
  6
ByBlock
347
86
 62
     0
440
 16777216
370
    -2
380
     1
100
AcDbBlockReference
  2
*U4
 10
1.5
 20
10.0
 30
0.0
  0
INSERT
  5
127
330
11E
100
AcDbEntity
  8
0
  6
ByBlock
347
86
 62
     0
440
 16777216
370
    -2
380
     1
100
AcDbBlockReference
  2
*U4
 10
1.75
 20
10.0
 30
0.0
  0
ENDBLK
  5
128
330
11E
100
AcDbEntity
  8
0
100
AcDbBlockEnd
  0
BLOCK
  5
137
330
136
100
AcDbEntity
  8
0
100
AcDbBlockBegin
  2
*U7
 70
     1
 10
0.0
 20
0.0
 30
0.0
  3
*U7
  1

  0
LWPOLYLINE
  5
138
330
136
100
AcDbEntity
  8
0
100
AcDbPolyline
 90
        4
 70
     1
 43
0.0
 10
3.638430741637421
 20
-3.245597983028801
 10
3.804728769109715
 20
-3.245597983028801
 10
3.804728769109715
 20
-6.458259473642556
 10
3.638430741637421
 20
-6.458259473642556
  0
ENDBLK
  5
139
330
136
100
AcDbEntity
  8
0
100
AcDbBlockEnd
  0
BLOCK
  5
13D
330
13C
100
AcDbEntity
  8
0
100
AcDbBlockBegin
  2
*U9
 70
     1
 10
0.0
 20
0.0
 30
0.0
  3
*U9
  1

  0
INSERT
  5
13E
330
13C
100
AcDbEntity
  8
0
  6
ByBlock
347
86
 62
     0
440
 16777216
370
    -2
380
     1
100
AcDbBlockReference
  2
*U7
 10
0.0
 20
10.0
 30
0.0
  0
INSERT
  5
13F
330
13C
100
AcDbEntity
  8
0
  6
ByBlock
347
86
 62
     0
440
 16777216
370
    -2
380
     1
100
AcDbBlockReference
  2
*U7
 10
0.25
 20
10.0
 30
0.0
  0
INSERT
  5
140
330
13C
100
AcDbEntity
  8
0
  6
ByBlock
347
86
 62
     0
440
 16777216
370
    -2
380
     1
100
AcDbBlockReference
  2
*U7
 10
0.5
 20
10.0
 30
0.0
  0
INSERT
  5
141
330
13C
100
AcDbEntity
  8
0
  6
ByBlock
347
86
 62
     0
440
 16777216
370
    -2
380
     1
100
AcDbBlockReference
  2
*U7
 10
0.75
 20
10.0
 30
0.0
  0
INSERT
  5
142
330
13C
100
AcDbEntity
  8
0
  6
ByBlock
347
86
 62
     0
440
 16777216
370
    -2
380
     1
100
AcDbBlockReference
  2
*U7
 10
1.0
 20
10.0
 30
0.0
  0
INSERT
  5
143
330
13C
100
AcDbEntity
  8
0
  6
ByBlock
347
86
 62
     0
440
 16777216
370
    -2
380
     1
100
AcDbBlockReference
  2
*U7
 10
1.25
 20
10.0
 30
0.0
  0
INSERT
  5
144
330
13C
100
AcDbEntity
  8
0
  6
ByBlock
347
86
 62
     0
440
 16777216
370
    -2
380
     1
100
AcDbBlockReference
  2
*U7
 10
1.5
 20
10.0
 30
0.0
  0
INSERT
  5
145
330
13C
100
AcDbEntity
  8
0
  6
ByBlock
347
86
 62
     0
440
 16777216
370
    -2
380
     1
100
AcDbBlockReference
  2
*U7
 10
1.75
 20
10.0
 30
0.0
  0
ENDBLK
  5
146
330
13C
100
AcDbEntity
  8
0
100
AcDbBlockEnd
  0
ENDSEC
  0
SECTION
  2
ENTITIES
  0
LINE
  5
77
102
{ACAD_REACTORS
330
108
102
}
330
1F
100
AcDbEntity
  8
0
  6
Continuous
 62
     7
370
    25
100
AcDbLine
 10
15.25
 20
10.0
 30
0.0
 11
0.0
 21
10.0
 31
0.0
  0
LINE
  5
78
330
1F
100
AcDbEntity
  8
0
  6
Continuous
 62
     7
370
    25
100
AcDbLine
 10
15.25
 20
0.0
 30
0.0
 11
15.25
 21
10.0
 31
0.0
  0
LINE
  5
79
330
1F
100
AcDbEntity
  8
0
  6
Continuous
 62
     7
370
    25
100
AcDbLine
 10
0.0
 20
0.0
 30
0.0
 11
15.25
 21
0.0
 31
0.0
  0
LINE
  5
7A
330
1F
100
AcDbEntity
  8
0
  6
Continuous
 62
     7
370
    25
100
AcDbLine
 10
0.0
 20
10.0
 30
0.0
 11
0.0
 21
0.0
 31
0.0
  0
LWPOLYLINE
  5
CB
330
1F
100
AcDbEntity
  8
0
100
AcDbPolyline
 90
      171
 70
     0
 43
0.0
 10
7.886113147880249
 20
5.99827946835847
 42
0.0793209284489734
 10
7.841809160997392
 20
5.920238919481484
 42
0.059429
 10
7.824959913145177
 20
5.851179243228318
 42
0.042582
 10
7.822138429906752
 20
5.771677592903897
 42
0.026413
 10
7.833418931225491
 20
5.661957832076945
 42
0.006792
 10
7.863368231602276
 20
5.486273803770625
 42
-0.003199
 10
7.897305068192553
 20
5.295483989424836
 42
-0.013861
 10
7.913571875504162
 20
5.181631163630759
 42
-0.023354
 10
7.918880563912724
 20
5.103098474198682
 42
-0.045148
 10
7.914515129137917
 20
5.040332323617773
 42
-0.023104
 10
7.905191532423968
 20
4.995686125844456
 42
-0.044448
 10
7.892981058935017
 20
4.961267529275859
 42
-0.046027
 10
7.875196370074656
 20
4.930330824629822
 42
-0.026708
 10
7.848653151249694
 20
4.896629157371415
 42
-0.099747
 10
7.778901918118105
 20
4.843446838343517
 42
-0.088001
 10
7.690822553608438
 20
4.818401374255595
 42
-0.051002
 10
7.561692677860438
 20
4.818456518371418
 42
-0.012118
 10
7.348031448519982
 20
4.845646510988663
 42
0.007118
 10
7.291675975792628
 20
4.853391548094888
 42
0.004529
 10
7.225886515811476
 20
4.860876452670257
 42
0.004548
 10
7.161193967068674
 20
4.867049236073726
 42
0.008417
 10
7.108537270331488
 20
4.870698820424745
 42
-0.005439
 10
7.064851783689897
 20
4.873465224652556
 42
-0.009009
 10
7.028071290885636
 20
4.876863605187699
 42
-0.003229
 10
6.997083748368607
 20
4.880493490561261
 42
-0.378611
 10
6.994603146727259
 20
4.883299813585689
 42
-0.20436
 10
6.996165048701074
 20
4.886961665619072
 42
-0.01347
 10
7.004848493753035
 20
4.894851068885841
 42
-0.017763
 10
7.016118271313045
 20
4.903872819228576
 42
-0.012228
 10
7.029480939667335
 20
4.913313726236484
 42
0.037645
 10
7.0779650525728
 20
4.951401708441744
 42
0.013172
 10
7.141805095048713
 20
5.012994235241333
 42
0.013364
 10
7.203047923145168
 20
5.078701653352746
 42
0.032019
 10
7.243842170962468
 20
5.131318561503732
 42
-0.00599
 10
7.259459367754628
 20
5.153784371018361
 42
-0.00813
 10
7.274126884098393
 20
5.173661987875978
 42
-0.005736
 10
7.286816057620633
 20
5.189896251881591
 42
-0.085787
 10
7.292181834000682
 20
5.194647490850779
 42
-0.515761
 10
7.296296027756637
 20
5.192913952932724
 42
-0.026576
 10
7.299108052137624
 20
5.176183587200334
 42
-0.020976
 10
7.30097422797705
 20
5.150105163795208
 42
-0.007373
 10
7.301527724599885
 20
5.112573635849638
 10
7.301527724599885
 20
5.024723702112297
 10
7.342201741689358
 20
5.018624255081443
 42
0.049065
 10
7.383760101495127
 20
5.016511339783649
 42
0.02437
 10
7.436328087728556
 20
5.021572563275747
 42
0.024235
 10
7.487261468066193
 20
5.03153587451669
 42
0.058971
 10
7.523031481453399
 20
5.044977069059187
 42
0.069054
 10
7.557282711119606
 20
5.069178871888499
 42
0.047357
 10
7.588818067504407
 20
5.104908538644829
 42
0.044985
 10
7.614710355104161
 20
5.148243712734136
 42
0.04611
 10
7.632182966774042
 20
5.195160092098805
 42
0.055072
 10
7.644282733497828
 20
5.272943857658637
 42
0.030878
 10
7.642611185043762
 20
5.368726098998437
 42
0.023263
 10
7.627239667425062
 20
5.490364978183241
 42
0.0101
 10
7.596057562627905
 20
5.650411887502063
 42
-0.003015
 10
7.579103309367072
 20
5.7313078217778
 42
-0.002964
 10
7.563026934804911
 20
5.812860193319645
 42
-0.002914
 10
7.549775233636644
 20
5.884512647497001
 42
-0.011287
 10
7.542823791879859
 20
5.929154371612081
 42
-0.04678
 10
7.537386316058265
 20
6.070649708460115
 42
-0.074567
 10
7.561860407491867
 20
6.188986655833189
 42
-0.085984
 10
7.616192056755707
 20
6.282929563283006
 42
-0.087124
 10
7.698745616270574
 20
6.352618118695492
 10
7.75465137938613
 20
6.385170725439555
 10
7.794425856342334
 20
6.506080407631805
 42
-0.000634
 10
7.810228844812309
 20
6.553915114634214
 42
-0.000828
 10
7.824809436395312
 20
6.597620077035393
 42
-0.00061
 10
7.837136885351418
 20
6.634220246999785
 42
-0.007727
 10
7.842005797343617
 20
6.647916765588091
 42
-0.06787
 10
7.849384775736641
 20
6.661666679752209
 42
-0.165039
 10
7.858662473275074
 20
6.668228597016701
 42
-0.323943
 10
7.865799195168712
 20
6.665719414186632
 42
-0.15271
 10
7.86887315642504
 20
6.655889401219936
 42
-0.0490800000000001
 10
7.867974434757311
 20
6.646755855924899
 42
-0.001599
 10
7.860676875084127
 20
6.610637613352238
 42
-0.003053
 10
7.851661430646354
 20
6.568061872976777
 42
-0.002116
 10
7.840970922072985
 20
6.520031524807833
 42
0.000706
 10
7.830275046969882
 20
6.472608050236047
 42
0.001121
 10
7.821264969061843
 20
6.431967515827796
 42
0.000228
 10
7.813428989273115
 20
6.396165945013545
 42
0.053807
 10
7.81306868772093
 20
6.39282751707928
 42
0.355424
 10
7.814288517602332
 20
6.391328274223075
 42
0.03537
 10
7.819215894076249
 20
6.390663568594849
 42
0.03213
 10
7.825971908583628
 20
6.390669353658105
 42
0.018999
 10
7.833995363484977
 20
6.391499407927099
 42
0.182433
 10
7.846919138993653
 20
6.398592899958976
 42
0.066122
 10
7.85850209123202
 20
6.41643255622101
 42
0.028793
 10
7.872376849293379
 20
6.450550069079454
 42
0.004094
 10
7.896211812146908
 20
6.52235671100384
 42
-0.0067
 10
7.91409227077632
 20
6.575300075296745
 42
-0.014246
 10
7.92962931374994
 20
6.615646110922156
 42
-0.009612
 10
7.943001450262409
 20
6.645971691530667
 42
-0.291963
 10
7.949691094655024
 20
6.650241951784098
 42
-0.2635050000000001
 10
7.95774061024325
 20
6.64568322893119
 42
-0.158846
 10
7.960258173044367
 20
6.634690678670961
 42
-0.029348
 10
7.956410045694447
 20
6.608985438349548
 42
-0.001413
 10
7.938325091589485
 20
6.524179498868844
 42
0.004912
 10
7.929651058891243
 20
6.482061401640484
 42
0.007775
 10
7.923135301223117
 20
6.445787892434398
 42
0.00284
 10
7.918236515238668
 20
6.414742573690777
 42
0.238425
 10
7.919693123480781
 20
6.410306834586145
 42
0.210316
 10
7.924113004815556
 20
6.408588410378363
 42
0.003121
 10
7.952549343737583
 20
6.410012019577978
 42
0.007869
 10
7.985939994090411
 20
6.412420317229372
 42
0.005041
 10
8.024630153016705
 20
6.416217113768831
 42
-0.005165
 10
8.124510916357502
 20
6.42599377766345
 42
-0.039066
 10
8.171858943287597
 20
6.426426978453252
 42
-0.092202
 10
8.199860611902138
 20
6.419192561536413
 42
-0.126803
 10
8.21984028583228
 20
6.402737135120582
 10
8.237532097455215
 20
6.37845019327352
 10
8.365167985267817
 20
6.416995865129599
 42
-0.00764
 10
8.440119246206656
 20
6.438386871276238
 42
-0.031847
 10
8.486137285234134
 20
6.447669953945912
 42
-0.148187
 10
8.503019866955659
 20
6.444965371768678
 42
-0.519999
 10
8.504459380428855
 20
6.435969663511344
 42
-0.09327
 10
8.493850727710325
 20
6.428951758632327
 42
-0.003032
 10
8.446451890811474
 20
6.409336739002934
 42
-0.005328
 10
8.387003855338228
 20
6.385891691272984
 42
-0.002838
 10
8.312983719861952
 20
6.358087886702976
 42
0.07778
 10
8.278707368884077
 20
6.338965081089043
 42
0.655579
 10
8.281895924616899
 20
6.326678518207011
 42
0.06621
 10
8.33513060683793
 20
6.325396391937044
 42
0.011192
 10
8.436218588250197
 20
6.338667001519463
 42
-0.001108
 10
8.510219536289987
 20
6.349904170668261
 42
-0.036705
 10
8.528147317108849
 20
6.351253234398435
 42
-0.232232
 10
8.535510186611904
 20
6.347654311204262
 42
-0.166457
 10
8.538526780874406
 20
6.33884419930909
 42
-0.233795
 10
8.533462655549941
 20
6.328605911548606
 42
-0.089308
 10
8.518920066810114
 20
6.32114588646554
 42
-0.024086
 10
8.486801470020651
 20
6.313024290105238
 42
-0.001539
 10
8.391741664031945
 20
6.294107551792746
 42
0.008034
 10
8.351528712763656
 20
6.28556073468166
 42
0.013038
 10
8.317694472689101
 20
6.276865012646586
 42
0.006701
 10
8.290135007985314
 20
6.268609634373315
 42
0.333784
 10
8.287017100709874
 20
6.26426104324731
 42
0.369645
 10
8.290699470186252
 20
6.26014967691777
 42
0.006283
 10
8.323118099701707
 20
6.256251000019951
 42
0.011917
 10
8.364316409075396
 20
6.252811696207759
 42
0.005893
 10
8.416756221744956
 20
6.250309926071283
 42
-0.00495
 10
8.466915101162193
 20
6.248011758538878
 42
-0.007578
 10
8.51033117312963
 20
6.244930998438107
 42
-0.003283
 10
8.547105797163935
 20
6.241517355380774
 42
-0.173369
 10
8.553413348359322
 20
6.238528979577948
 42
-0.438303
 10
8.552975227475529
 20
6.227887597538524
 42
-0.126896
 10
8.536298062003305
 20
6.21981028202414
 42
-0.036299
 10
8.494966286941965
 20
6.214573590680945
 42
-0.007009
 10
8.419598101516687
 20
6.211599259002741
 42
0.004661
 10
8.356402200722287
 20
6.209402543994434
 42
0.020912
 10
8.319530662927336
 20
6.206228013784752
 42
0.033439
 10
8.296665525935413
 20
6.201722472590522
 42
0.179177
 10
8.286470412232217
 20
6.194505457367171
 42
0.126708
 10
8.282625577345946
 20
6.183911034788163
 42
0.012189
 10
8.280646257946234
 20
6.156345561803244
 42
0.013826
 10
8.279951213288516
 20
6.120985329930481
 42
0.00788
 10
8.280966752310742
 20
6.078246147566934
 42
-0.004539
 10
8.282187754085988
 20
6.038144061176462
 42
-0.006367
 10
8.282496743429197
 20
6.002321470679001
 42
-0.003959
 10
8.282135511802531
 20
5.972287933456703
 42
-0.081931
 10
8.280495074339759
 20
5.963445966510644
 42
-0.5125790000000001
 10
8.276643170887464
 20
5.962352766269476
 42
-0.053693
 10
8.268751172712903
 20
5.970129881644469
 42
-0.032038
 10
8.258257560906606
 20
5.984785493034912
 42
-0.014271
 10
8.246271253968435
 20
6.005299318038734
 42
0.020358
 10
8.229657631184572
 20
6.032954338594431
 42
0.043063
 10
8.214184614538051
 20
6.052575236294522
 42
0.049415
 10
8.197066128725824
 20
6.067535605189299
 42
0.03679
 10
8.175608687359193
 20
6.080571333762935
 42
0.127989
 10
8.083361780021482
 20
6.100985166459587
 42
0.103107
 10
7.984450600722928
 20
6.076539107470765
 42
0.0643482535084612
 10
7.923768116438966
 20
6.037101683734395
 42
0.0643482535084612
  0
LWPOLYLINE
  5
CC
330
1F
100
AcDbEntity
  8
0
100
AcDbPolyline
 90
      136
 70
     1
 43
0.0
 10
7.552980484206351
 20
6.297280817101137
 42
0.05769
 10
7.513556933651599
 20
6.225717166434979
 42
0.044535
 10
7.487273614838882
 20
6.140527999066196
 42
0.041834
 10
7.475284517677273
 20
6.046358999811419
 42
0.037614
 10
7.478449384413128
 20
5.948035720590669
 42
0.008612
 10
7.486306021156021
 20
5.885303806051309
 42
0.012314
 10
7.495597818623561
 20
5.829994555503218
 42
0.007955
 10
7.510314628914677
 20
5.759910169693468
 42
0.001625
 10
7.538717150328666
 20
5.636460770326036
 42
-0.015885
 10
7.573771955043458
 20
5.461391725866324
 42
-0.035819
 10
7.586497550282279
 20
5.326765788905335
 42
-0.048526
 10
7.578868465561271
 20
5.22432713473404
 42
-0.104138
 10
7.549707263793758
 20
5.15107050669783
 42
-0.078709
 10
7.524473868856739
 20
5.123626789762878
 42
-0.049653
 10
7.487781026271321
 20
5.100055270505353
 42
-0.049044
 10
7.446461993230325
 20
5.08384916915495
 42
-0.069052
 10
7.407309094348795
 20
5.078416083284894
 10
7.368220017177964
 20
5.078416083284894
 10
7.362311877166582
 20
5.150496855361041
 42
0.01567
 10
7.355033997869357
 20
5.214559985501336
 42
0.01194
 10
7.343203636518984
 20
5.284173018866178
 42
0.005425
 10
7.329784689358005
 20
5.349343839808017
 42
0.203571
 10
7.321269225057589
 20
5.361384230577105
 42
0.397
 10
7.317080950869438
 20
5.360525362600768
 42
0.007241
 10
7.303143449983764
 20
5.340074912871906
 42
0.013608
 10
7.287089294900903
 20
5.314269178003099
 42
0.008141
 10
7.26935608566292
 20
5.282790314342118
 42
-0.028932
 10
7.206937066779584
 20
5.182023283030853
 42
-0.027167
 10
7.132072498082873
 20
5.086895628108956
 42
-0.027923
 10
7.049875817446121
 20
5.003291335553599
 42
-0.036462
 10
6.965523289273633
 20
4.937123911905922
 42
-0.029452
 10
6.930727184774998
 20
4.916577618002055
 42
-0.021385
 10
6.889867999157624
 20
4.897752771048027
 42
-0.013198
 10
6.851341914670067
 20
4.883137915521234
 42
-0.287983
 10
6.840080768201216
 20
4.88571065034041
 42
-0.2876
 10
6.83907755266583
 20
4.89008759943726
 42
-0.007735
 10
6.846155512453913
 20
4.909463310903349
 42
-0.013822
 10
6.855772426756123
 20
4.932637716260837
 42
-0.008743
 10
6.868197338216814
 20
4.959134189542512
 42
0.034731
 10
6.903234238997912
 20
5.045218255972926
 42
0.027154
 10
6.929455484639936
 20
5.142685020305772
 42
0.02085
 10
6.943943524511595
 20
5.228727921639773
 42
0.451354
 10
6.928858228012884
 20
5.245829489397236
 42
0.052919
 10
6.921902517214244
 20
5.245091242780006
 42
0.001853
 10
6.89538778657055
 20
5.239295911502106
 42
0.003429
 10
6.864095560955146
 20
5.232109133000045
 42
0.00239
 10
6.828875221584683
 20
5.223587530208074
 42
-0.000941
 10
6.715925339996481
 20
5.195912429344387
 42
-0.123467
 10
6.70176192402001
 20
5.196015611807018
 42
-0.5372060000000002
 10
6.699320562220904
 20
5.203099579876234
 42
-0.006654
 10
6.734656593555738
 20
5.247944432257399
 42
0.033722
 10
6.793864725618036
 20
5.332075565501046
 42
0.016989
 10
6.85746378579658
 20
5.445282928907849
 42
0.016987
 10
6.913672399763798
 20
5.563476691314974
 42
0.031266
 10
6.949921001575352
 20
5.663579435531522
 42
-0.387481
 10
6.954942110955197
 20
5.666634097742429
 42
-0.0826
 10
6.965402147072822
 20
5.662725366739499
 42
-0.037996
 10
6.981934964985995
 20
5.651453533714891
 42
-0.010115
 10
7.006454825384688
 20
5.631026828787459
 42
-0.008614
 10
7.039601498600337
 20
5.601241407533769
 42
-0.07896
 10
7.051497327893251
 20
5.586037777659167
 42
-0.124836
 10
7.055567566329356
 20
5.570610548579209
 42
-0.033541
 10
7.054100141321054
 20
5.545112733467972
 42
0.038385
 10
7.052977866951696
 20
5.521657985061207
 42
0.056136
 10
7.05588197800678
 20
5.50120918156417
 42
0.042714
 10
7.063990776542262
 20
5.478183820641844
 42
0.013307
 10
7.07996531724977
 20
5.445164130494723
 42
0.008052
 10
7.092280070689248
 20
5.422259270021823
 42
0.012499
 10
7.103707068039087
 20
5.402952291059682
 42
0.006754
 10
7.113788656851445
 20
5.387324156591649
 42
0.249786
 10
7.117400842907684
 20
5.385375064612475
 42
0.378221
 10
7.133304511939952
 20
5.39926529911315
 42
0.015907
 10
7.141241916350546
 20
5.480099876375543
 42
0.024052
 10
7.142737308698411
 20
5.563296312670635
 42
0.073263
 10
7.13284494353868
 20
5.618796581915094
 42
0.018598
 10
7.122396821675122
 20
5.646567554856014
 42
0.112301
 10
7.11349811088514
 20
5.659013895232691
 42
0.290888
 10
7.104511322042045
 20
5.66046675527466
 42
0.128771
 10
7.094621003046176
 20
5.652759004854266
 42
-0.171423
 10
7.085973412365353
 20
5.647110783456612
 42
-0.185014
 10
7.076014379467013
 20
5.648380846660598
 42
-0.059037
 10
7.060936235241031
 20
5.658934327361067
 42
-0.006364
 10
7.029480939667335
 20
5.687733041901362
 42
-0.013922
 10
7.008998290760024
 20
5.708073138293364
 42
-0.018782
 10
6.991711201046356
 20
5.727645076872915
 42
-0.01604
 10
6.978726366148171
 20
5.744589889877786
 42
-0.156708
 10
6.976001657159228
 20
5.753069983445787
 42
-0.109085
 10
6.980878809611306
 20
5.775158889578787
 42
-0.007558
 10
7.00876221925592
 20
5.832920923240574
 42
-0.011467
 10
7.04195395458005
 20
5.895482410932514
 42
-0.013904
 10
7.076012258897208
 20
5.95249085174817
 10
7.111664655065871
 20
6.008565367577087
 10
7.144120627071623
 20
5.973650167041498
 42
-0.004473
 10
7.186468964237116
 20
5.927267836442323
 42
-0.057328
 10
7.200045131187925
 20
5.908109278765447
 42
-0.151214
 10
7.203085033116854
 20
5.893250576311902
 42
-0.08248
 10
7.198202755954406
 20
5.87511238474379
 42
0.076705
 10
7.193847970532376
 20
5.859643441823479
 42
0.131038
 10
7.195698976857054
 20
5.846440234738512
 42
0.064124
 10
7.205287068151173
 20
5.829998833845816
 42
0.008184
 10
7.23082933152173
 20
5.797916854088569
 42
-0.003961
 10
7.248139496383211
 20
5.776547611684721
 42
-0.004769
 10
7.264055712120189
 20
5.756182273071376
 42
-0.004093
 10
7.277145040886018
 20
5.738807914469394
 42
-0.031826
 10
7.282652709428493
 20
5.730287306857113
 42
0.062348
 10
7.286349811284619
 20
5.72526681132643
 42
0.100566
 10
7.290683186392147
 20
5.722231271446799
 42
0.135365
 10
7.294932705984711
 20
5.721625876668064
 42
0.166634
 10
7.298504954642851
 20
5.72338604261844
 42
0.198917
 10
7.305971313533119
 20
5.741548090596919
 42
0.005005
 10
7.304817305022551
 20
5.832535621286409
 42
0.008578
 10
7.301335971144679
 20
5.919855877608299
 42
0.081416
 10
7.293220029637209
 20
5.956238763573042
 42
0.012533
 10
7.285853002701227
 20
5.97332809155037
 42
0.212066
 10
7.281348317175519
 20
5.977285177125436
 42
0.24745
 10
7.275796005058079
 20
5.976261509252271
 42
0.017024
 10
7.263199160029303
 20
5.965618573988471
 42
-0.069644
 10
7.250366336503869
 20
5.956904929418199
 42
-0.238853
 10
7.240587719452847
 20
5.957017217309976
 42
-0.086082
 10
7.228684347255921
 20
5.966106537563563
 42
-0.005291
 10
7.198626460683776
 20
5.999268882534181
 42
-0.005177
 10
7.181238188167608
 20
6.01927936053104
 42
-0.007788
 10
7.166533245626839
 20
6.037115547615267
 42
-0.003733
 10
7.154460116236103
 20
6.052466854715556
 42
-0.153695
 10
7.153011832160572
 20
6.056386207169026
 42
-0.22862
 10
7.158822825892684
 20
6.070109009662096
 42
-0.005068
 10
7.214845731888804
 20
6.118319215633675
 42
-0.011985
 10
7.27537406747021
 20
6.166914630551973
 42
-0.016352
 10
7.332317514681315
 20
6.207550691301981
 42
-0.013179
 10
7.398735212070389
 20
6.249260839262623
 42
-0.013182
 10
7.467254728968734
 20
6.287411043450482
 42
-0.01013
 10
7.528332422341552
 20
6.3177793237783
 42
-0.104099
 10
7.555606344879734
 20
6.324271894689681
 42
-0.050616
 10
7.564656081163519
 20
6.323592838012256
 42
-0.391242
 10
7.567002900891889
 20
6.320498601132296
 42
-0.124372
 10
7.564801675022366
 20
6.314362899798277
 42
-0.006712
  0
LWPOLYLINE
  5
CD
330
1F
100
AcDbEntity
  8
0
100
AcDbPolyline
 90
       30
 70
     1
 43
0.0
 10
8.386475814853861
 20
5.510900715741778
 42
-0.042224
 10
8.397752214544153
 20
5.384153821017865
 42
-0.065314
 10
8.383946970249311
 20
5.275261463747646
 42
-0.081141
 10
8.346829455657069
 20
5.191803490509231
 42
-0.128995
 10
8.28911282823131
 20
5.139753211632723
 42
-0.111956
 10
8.206503231729115
 20
5.118283781606063
 42
-0.123285
 10
8.125859440644479
 20
5.13581416020179
 42
-0.10444
 10
8.053162475624899
 20
5.19311430957686
 42
-0.063325
 10
7.993948837521694
 20
5.285764590215852
 42
-0.035871
 10
7.963301730166
 20
5.36466577515627
 42
-0.010208
 10
7.927145075517382
 20
5.491185331775427
 42
-0.003376
 10
7.89272445138642
 20
5.625320031299158
 42
-0.487762
 10
7.901427697724033
 20
5.636460770326036
 42
-0.269856
 10
7.90340791929599
 20
5.635308073220481
 42
-0.002321
 10
7.912353096606919
 20
5.61938517954875
 42
-0.007233
 10
7.922430611693068
 20
5.600615588319486
 42
-0.004502
 10
7.93372977960659
 20
5.578331115425917
 42
0.036261
 10
7.987053293241059
 20
5.487893965609766
 42
0.067997
 10
8.044248920846239
 20
5.425383399495523
 42
0.083731
 10
8.107007333207491
 20
5.388872237658717
 42
0.08978
 10
8.176747498452778
 20
5.376127194562556
 42
0.102753
 10
8.244772959788203
 20
5.390137138949342
 42
0.126861
 10
8.295738585808001
 20
5.429714012281855
 42
0.10275
 10
8.328237238931572
 20
5.496416526378452
 42
0.050934
 10
8.342069250769899
 20
5.589957046405938
 10
8.345631380217708
 20
5.669013377070099
 10
8.358734185762729
 20
5.631810397934022
 42
-0.02194
 10
8.364744615365257
 20
5.612013325526231
 42
-0.006337
 10
8.372288198339461
 20
5.580946949896417
 42
-0.00636
 10
8.379909712254212
 20
5.545676758533912
 42
-0.006741
  0
LWPOLYLINE
  5
CE
330
1F
100
AcDbEntity
  8
0
100
AcDbPolyline
 90
       18
 70
     1
 43
0.0
 10
7.999560172165532
 20
4.888555952786224
 42
-0.009009
 10
8.002912234991656
 20
4.860799275090037
 42
-0.012638
 10
8.00482977884452
 20
4.835910658762152
 42
-0.008951
 10
8.005525502456599
 20
4.815284703979211
 42
-0.143317
 10
8.003689935368257
 20
4.808623250144045
 42
-0.219739
 10
7.99816772976168
 20
4.804968708496062
 42
-0.011117
 10
7.976225952110427
 20
4.80210490686887
 42
-0.016089
 10
7.949189524090309
 20
4.800063132967922
 42
-0.010801
 10
7.918205618164501
 20
4.799393739764323
 10
7.838425457037516
 20
4.799393739764323
 10
7.880769032221685
 20
4.844662445686787
 42
0.020272
 10
7.898809510165094
 20
4.865588302985285
 42
0.013112
 10
7.91803138731246
 20
4.891152227790449
 42
0.013185
 10
7.935528859873139
 20
4.917164857726969
 42
0.024191
 10
7.948158434222804
 20
4.93935672310473
 42
-0.028391
 10
7.968213686005064
 20
4.973918327925123
 42
-0.473152
 10
7.979769535873135
 20
4.975128708249823
 42
-0.157442
 10
7.988988964245509
 20
4.957374656042786
 42
-0.007109
  0
LWPOLYLINE
  5
CF
330
1F
100
AcDbEntity
  8
0
100
AcDbPolyline
 90
       61
 70
     0
 43
0.0
 10
6.739160214109584
 20
4.332483398264988
 42
-0.0150405842238574
 10
6.77436103590371
 20
4.362297686434594
 42
-0.041495
 10
6.813719053410707
 20
4.388633842778425
 42
-0.053427
 10
6.84933078672318
 20
4.403691125433854
 42
-0.073449
 10
6.883667471632461
 20
4.408762458835529
 42
0.041783
 10
6.896494910026666
 20
4.409836257723082
 42
0.034196
 10
6.909882402068776
 20
4.413047191047845
 42
0.035422
 10
6.92184929835259
 20
4.417751861187904
 42
0.072671
 10
6.930199832545744
 20
4.423348788978072
 42
-0.03967
 10
6.939572602297372
 20
4.430567124907184
 42
-0.128673
 10
6.946959467721969
 20
4.433023479506879
 42
-0.12226
 10
6.954827404869776
 20
4.43160617621222
 42
-0.034191
 10
6.965943469020745
 20
4.425678523238276
 42
0.077537
 10
6.978523693618578
 20
4.420307984876895
 42
0.111541
 10
6.990585392393976
 20
4.419987639324302
 42
0.062019
 10
7.006351010471407
 20
4.425203245879069
 42
0.01094
 10
7.034264805649234
 20
4.439215971188546
 42
0.023247
 10
7.05655476598222
 20
4.452384421390255
 42
0.011531
 10
7.083605452044091
 20
4.471016529010121
 42
0.011419
 10
7.11081494832314
 20
4.491660880666247
 42
0.016418
 10
7.133852149093572
 20
4.511251764862916
 42
-0.028908
 10
7.168857371537932
 20
4.539545262946552
 42
-0.032996
 10
7.20543255040109
 20
4.562272339682905
 42
-0.030991
 10
7.237253309440331
 20
4.576791434741405
 42
-0.2961
 10
7.251168814064586
 20
4.573830551940156
 42
-0.28041
 10
7.252041986586393
 20
4.570241013197469
 42
-0.005274
 10
7.245735216653567
 20
4.551126792170972
 42
-0.011209
 10
7.237432172063275
 20
4.528497903397304
 42
-0.00706
 10
7.226774671833148
 20
4.502437923369086
 42
0.027399
 10
7.20597699739925
 20
4.445024714140425
 42
0.077208
 10
7.200093699677184
 20
4.402863554463717
 42
0.146444
 10
7.208463170186721
 20
4.37639743881301
 42
0.218047
 10
7.228915182440713
 20
4.364017459250372
 42
0.180288
 10
7.25144768759619
 20
4.369574440341695
 42
0.127736
 10
7.26875079319238
 20
4.389376116618147
 42
0.080897
 10
7.279530635419396
 20
4.423903466795503
 42
0.03531
 10
7.282926235031855
 20
4.47192682080437
 10
7.282926235031855
 20
4.526714187961137
 10
7.342839912292715
 20
4.555926953057729
 42
-0.018668
 10
7.382415511423197
 20
4.573426453180778
 42
-0.016202
 10
7.425086296109604
 20
4.588838233723648
 42
-0.01608
 10
7.464144783130834
 20
4.600156049630465
 42
-0.05487
 10
7.490314623556441
 20
4.603850733292941
 42
-0.536074
 10
7.491760535942052
 20
4.601813526057684
 42
-0.024021
 10
7.487613343143609
 20
4.592399907434965
 42
-0.022459
 10
7.480546525647771
 20
4.579704009474243
 42
-0.011788
 10
7.470695874328402
 20
4.56454993396785
 42
0.014412
 10
7.442620813536759
 20
4.520859722547897
 42
0.036172
 10
7.425478480614906
 20
4.487114165074857
 42
0.04773
 10
7.41625110940649
 20
4.457527714654331
 42
0.051779
 10
7.41313666200812
 20
4.427533919514498
 42
0.098989
 10
7.419891355809751
 20
4.393749801153578
 42
0.305941
 10
7.438368233999169
 20
4.381582724939786
 42
0.256583
 10
7.459751901858167
 20
4.393650673815674
 42
0.084819
 10
7.473781591726138
 20
4.428229410607955
 42
-0.045114
 10
7.477732724824532
 20
4.440719901620123
 42
-0.022694
 10
7.484810675311875
 20
4.455679842680637
 42
-0.022334
 10
7.49358903446436
 20
4.470595009955767
 42
-0.030731
 10
7.502851143954542
 20
4.483085435862718
 42
-0.074871
 10
7.553888171792051
 20
4.528013613616399
 42
-0.0128349518996208
 10
7.609922628674681
 20
4.562114394474461
 42
-0.0128349518996208
  0
LWPOLYLINE
  5
D0
330
1F
100
AcDbEntity
  8
0
100
AcDbPolyline
 90
       32
 70
     1
 43
0.0
 10
7.397599247004702
 20
4.049560915033771
 42
-0.026591
 10
7.378888213264598
 20
4.022457131019934
 42
-0.0965
 10
7.363232511389028
 20
4.008698148629653
 42
-0.064298
 10
7.340499807702078
 20
3.999082062093735
 42
-0.007569
 10
7.287238376539043
 20
3.985105795703804
 42
0.033138
 10
7.119524342453049
 20
3.931800595235825
 42
0.026111
 10
6.945966213284254
 20
3.853000416383757
 42
0.025964
 10
6.780371837536025
 20
3.755903803091823
 42
0.031452
 10
6.636524472542534
 20
3.647653141407232
 42
-0.005581
 10
6.611300071425707
 20
3.626542562016575
 42
-0.009216
 10
6.589475036722987
 20
3.60934897269022
 42
-0.003382
 10
6.570699046581305
 20
3.595309340326081
 42
-0.369498
 10
6.567780510071058
 20
3.595521546119071
 42
-0.385879
 10
6.567216810531187
 20
3.605991320116485
 42
-0.005003
 10
6.612761702070006
 20
3.660864905177399
 42
-0.01273
 10
6.664495132473968
 20
3.718879109932516
 42
-0.013244
 10
6.718454119495806
 20
3.773404456507227
 42
-0.010423
 10
6.752045210199471
 20
3.804279190290764
 42
-0.007963
 10
6.790016979598645
 20
3.836687626189935
 42
-0.008061
 10
6.826568748487188
 20
3.86591267757039
 42
-0.018752
 10
6.855091974966979
 20
3.886312131315603
 42
-0.021279
 10
6.926057187811498
 20
3.928927446360117
 42
-0.01251
 10
7.014184534863508
 20
3.974051116468416
 42
-0.012464
 10
7.105428738206805
 20
4.015157636791834
 42
-0.019396
 10
7.186171349704777
 20
4.045509408297662
 42
-0.01722
 10
7.250334230332885
 20
4.064401174110404
 42
-0.009788
 10
7.329089840015933
 20
4.083035030270294
 42
-0.003393
 10
7.408100383113525
 20
4.099542875683723
 42
-0.22548
 10
7.421189339849568
 20
4.096279225737522
 42
-0.343698
 10
7.421737721062774
 20
4.09383601309021
 42
-0.006573
 10
7.415663200027948
 20
4.081402340327925
 42
-0.012933
 10
7.407702627462091
 20
4.066601367597259
 42
-0.007931
  0
LWPOLYLINE
  5
D1
330
1F
100
AcDbEntity
  8
0
100
AcDbPolyline
 90
       19
 70
     0
 43
0.0
 10
7.843810905835841
 20
6.131106347171367
 42
-0.0354838111558699
 10
7.885671845428616
 20
6.143330825010584
 42
-0.027716
 10
7.959433941041606
 20
6.155065751418728
 42
0.002911
 10
8.005382084972028
 20
6.160055684702056
 42
0.070644
 10
8.017818148025718
 20
6.163298119649413
 42
0.540983
 10
8.018674430395003
 20
6.167927425854481
 42
0.062656
 10
8.008384328185332
 20
6.175537211530065
 42
0.099416
 10
7.971563432945727
 20
6.187471555207125
 42
0.023881
 10
7.90718630036078
 20
6.191823680616148
 42
0.025255
 10
7.841002935236534
 20
6.189787794086651
 42
0.065568
 10
7.794467198152888
 20
6.179762009742992
 42
0.0653330000000001
 10
7.745350913624456
 20
6.154588027963642
 42
0.074113
 10
7.706732017004696
 20
6.118461675141531
 42
0.078833
 10
7.682078067768459
 20
6.074739571467717
 42
0.08926
 10
7.673557515960649
 20
6.027390781876543
 10
7.673557515960649
 20
5.999189816902774
 10
7.728294240562064
 20
6.053926541504189
 42
-0.039308
 10
7.777249259476691
 20
6.095735137848378
 42
-0.0378183599421822
 10
7.8117825492504
 20
6.117033722538413
 42
-0.0378183599421822
  0
LWPOLYLINE
  5
D2
330
1F
100
AcDbEntity
  8
0
100
AcDbPolyline
 90
       13
 70
     0
 43
0.0
 10
7.665923946965497
 20
4.464538651004339
 42
0.0183899265405141
 10
7.658429901073166
 20
4.456368451222958
 42
0.135353
 10
7.641143694930249
 20
4.419306024942057
 42
0.189433
 10
7.647923751862899
 20
4.387034793629942
 42
0.172159
 10
7.675164154516878
 20
4.366399175373175
 42
0.150351
 10
7.691839143614814
 20
4.366251367937065
 42
0.13968
 10
7.706279638079141
 20
4.375449655716541
 42
0.086521
 10
7.71858279348987
 20
4.395361964352205
 42
0.031224
 10
7.729036923634561
 20
4.427076573991231
 42
0.003913
 10
7.745963823404983
 20
4.49387968494341
 42
0.187564
 10
7.744192319846716
 20
4.507379055644533
 42
0.411416
 10
7.734879214372872
 20
4.510146827081834
 42
0.012068
 10
7.695692721201185
 20
4.487924315750013
  0
LWPOLYLINE
  5
D3
330
1F
100
AcDbEntity
  8
0
100
AcDbPolyline
 90
       17
 70
     0
 43
0.0
 10
8.167643966260522
 20
4.451112450812468
 42
0.0243071299684287
 10
8.158279976812609
 20
4.439884220400537
 42
0.048903
 10
8.14336610234101
 20
4.41549240335529
 42
0.113244
 10
8.138594755161596
 20
4.394695882213753
 42
0.101812
 10
8.142500733144071
 20
4.3757123831552
 42
0.124553
 10
8.153486958897847
 20
4.361370523089307
 42
0.147489
 10
8.168456591334432
 20
4.355453482265162
 42
0.16262
 10
8.183552909215716
 20
4.35912961094179
 42
0.08569
 10
8.198163858429699
 20
4.372264355244402
 42
0.031793
 10
8.213921356956936
 20
4.395099218312057
 42
0.031454
 10
8.227653767119367
 20
4.421633657233943
 42
0.043331
 10
8.236298176945473
 20
4.447030047723307
 42
0.085874
 10
8.237517476684418
 20
4.464384605039644
 42
0.219985
 10
8.231255899070498
 20
4.474967857424165
 42
0.182526
 10
8.217977653576605
 20
4.47825091802473
 42
0.059397
 10
8.198009001029051
 20
4.473420455311472
 42
0.0467679827701419
 10
8.187466863004198
 20
4.468334969529331
 42
0.0467679827701419
  0
LWPOLYLINE
  5
D4
330
1F
100
AcDbEntity
  8
0
100
AcDbPolyline
 90
       17
 70
     0
 43
0.0
 10
6.76561505526043
 20
4.212100821782602
 42
0.0153948505335881
 10
6.761470482655404
 20
4.204276860660267
 42
0.032345
 10
6.755724910362093
 20
4.190366220325537
 42
0.117036
 10
6.75483178774272
 20
4.180894211627069
 42
0.189935
 10
6.762989610503952
 20
4.166459306910352
 42
0.136407
 10
6.78015694382779
 20
4.159000704841234
 42
0.123914
 10
6.800037099788729
 20
4.161153166905858
 42
0.147302
 10
6.815042707506146
 20
4.172487826461482
 42
0.118689
 10
6.823447260425009
 20
4.192641284807902
 42
0.030617
 10
6.826905026215598
 20
4.227952613364591
 42
0.025697
 10
6.826395884844624
 20
4.261924662574613
 42
0.394906
 10
6.818566127254158
 20
4.26925128707525
 42
0.173382
 10
6.813758674583491
 20
4.267532565243628
 42
0.015688
 10
6.803999086856295
 20
4.259005940049473
 42
0.018895
 10
6.792767637665544
 20
4.247733149048156
 42
0.013644
 10
6.781085967322029
 20
4.234373494135175
 42
0.0124672035114813
 10
6.776037864191651
 20
4.227952613364591
 42
0.0124672035114813
  0
LWPOLYLINE
  5
D5
330
1F
100
AcDbEntity
  8
0
100
AcDbPolyline
 90
       12
 70
     0
 43
0.0
 10
7.592683205916527
 20
4.017047250508118
 42
0.0435799999999999
 10
7.603368208448985
 20
4.043708226062785
 42
0.054708
 10
7.606094349752639
 20
4.058294909633632
 42
0.393495
 10
7.602012076152776
 20
4.063402190413903
 42
0.190948
 10
7.592653741157052
 20
4.061204601135586
 42
0.022123
 10
7.575195824663943
 20
4.047871183623644
 42
0.0495959999999999
 10
7.547219863307974
 20
4.019319078331293
 42
0.091765
 10
7.531901564550938
 20
3.990811895636249
 42
0.196005
 10
7.533415121253364
 20
3.971204595625036
 42
0.283945
 10
7.547787803987464
 20
3.962326709202623
 42
0.217389
 10
7.559519995976653
 20
3.967680627133073
 42
0.028849
 10
7.576597186482034
 20
3.989826621237554
  0
LINE
  5
D9
330
1F
100
AcDbEntity
  8
0
100
AcDbLine
 10
7.592683205916527
 20
4.017047250508118
 30
0.0
 11
7.684274596761868
 21
3.949895008198232
 31
0.0
  0
LINE
  5
DA
330
1F
100
AcDbEntity
  8
0
100
AcDbLine
 10
7.576597186482034
 20
3.989826621237554
 30
0.0
 11
7.664624303335525
 21
3.914066551064993
 31
0.0
  0
LINE
  5
DB
330
1F
100
AcDbEntity
  8
0
100
AcDbLine
 10
6.776037864191651
 20
4.227952613364591
 30
0.0
 11
6.739160214109583
 21
4.332483398264987
 31
0.0
  0
LINE
  5
DC
330
1F
100
AcDbEntity
  8
0
100
AcDbLine
 10
6.76561505526043
 20
4.212100821782603
 30
0.0
 11
6.70508385330268
 21
4.299178572542773
 31
0.0
  0
LINE
  5
DD
330
1F
100
AcDbEntity
  8
0
100
AcDbLine
 10
7.695692721201185
 20
4.487924315750013
 30
0.0
 11
7.663548904285142
 21
4.591219980619313
 31
0.0
  0
LINE
  5
DE
330
1F
100
AcDbEntity
  8
0
100
AcDbLine
 10
7.665923946965497
 20
4.464538651004339
 30
0.0
 11
7.609922628674681
 21
4.562114394474461
 31
0.0
  0
LINE
  5
DF
330
1F
100
AcDbEntity
  8
0
100
AcDbLine
 10
8.187466863004198
 20
4.468334969529331
 30
0.0
 11
8.162830455701744
 21
4.595390984998193
 31
0.0
  0
LINE
  5
E0
330
1F
100
AcDbEntity
  8
0
100
AcDbLine
 10
8.167643966260522
 20
4.451112450812468
 30
0.0
 11
8.122649358530056
 21
4.584260705933003
 31
0.0
  0
LWPOLYLINE
  5
E1
330
1F
100
AcDbEntity
  8
0
100
AcDbPolyline
 90
       28
 70
     0
 43
0.0
 10
7.663548904285142
 20
4.591219980619313
 42
-0.0160827383654532
 10
7.741144902915991
 20
4.627918958825659
 42
-0.096275
 10
7.799373285221996
 20
4.640796472429776
 42
-0.061222
 10
7.808079768218785
 20
4.639952811171164
 42
-0.03035
 10
7.818763273331331
 20
4.636885667360758
 42
-0.029581
 10
7.829604109842646
 20
4.632309896242661
 42
-0.038135
 10
7.838901450554073
 20
4.626802571827746
 42
-0.0366009999999999
 10
7.846811259654902
 20
4.620351314824695
 42
-0.039211
 10
7.853500318100591
 20
4.612952553747515
 42
-0.042554
 10
7.858146644668618
 20
4.60572952094229
 42
-0.122246
 10
7.859572411641027
 20
4.599985092640594
 42
0.241751
 10
7.864914582730815
 20
4.589581921276576
 42
0.105892
 10
7.879529438257609
 20
4.5832124643239
 42
0.056151
 10
7.904599549319206
 20
4.581005155767293
 42
0.017859
 10
7.942080425408684
 20
4.583259665603681
 10
7.990151436433825
 20
4.587878685185025
 10
7.972832296353633
 20
4.547149477476004
 42
0.013561
 10
7.956468724093284
 20
4.505571046662991
 42
0.04776
 10
7.949301207433681
 20
4.477775975492335
 42
0.079069
 10
7.949319129968879
 20
4.457535927211974
 42
0.118722
 10
7.956085505505951
 20
4.441307690088983
 42
0.164227
 10
7.970693822609167
 20
4.431013142123302
 42
0.232585
 10
7.986111695139864
 20
4.433639346924243
 42
0.092994
 10
8.004281016300774
 20
4.45277189041796
 42
0.018065
 10
8.02879187357851
 20
4.49384830423051
 42
-0.052218
 10
8.061545376409908
 20
4.541091279248274
 42
-0.081683
 10
8.099384768308578
 20
4.572784618083979
 42
-0.0380035333056281
 10
8.122649358530056
 20
4.584260705933002
 42
-0.0380035333056281
  0
LWPOLYLINE
  5
E4
330
1F
100
AcDbEntity
  8
0
100
AcDbPolyline
 90
      186
 70
     0
 43
0.0
 10
8.162830455701744
 20
4.595390984998193
 42
-0.0300331368276874
 10
8.211250685295185
 20
4.601794068899591
 42
-0.036208
 10
8.26042875467122
 20
4.601746988529499
 42
-0.070029
 10
8.298798437834497
 20
4.59344143273811
 42
-0.090194
 10
8.326798171894127
 20
4.576926537360134
 42
-0.108034
 10
8.345107273948386
 20
4.552476637163715
 42
0.057189
 10
8.35082354889562
 20
4.542978828199212
 42
0.070195
 10
8.358215464624635
 20
4.535744801913648
 42
0.075653
 10
8.366819416210926
 20
4.53122796961525
 42
0.083293
 10
8.376094063105078
 20
4.529672141027779
 42
-0.019614
 10
8.385940705803458
 20
4.529285722984235
 42
-0.008927
 10
8.398767604754464
 20
4.528046668463363
 42
-0.008824
 10
8.412259060521773
 20
4.526258125940653
 42
-0.011988
 10
8.424358036682257
 20
4.5241386164148
 10
8.452025650446392
 20
4.518605091801827
 10
8.430391755349715
 20
4.466008961514682
 42
0.03992
 10
8.411438623222883
 20
4.406928268257417
 42
0.113488
 10
8.411240052321746
 20
4.363959813234198
 42
0.223142
 10
8.42864336414224
 20
4.341558020745922
 42
0.181229
 10
8.459180499491603
 20
4.338103026577277
 42
0.141835
 10
8.480346567125646
 20
4.350439134526776
 42
0.076895
 10
8.497691581877834
 20
4.375371464355143
 42
0.058396
 10
8.510424915336312
 20
4.411635979741023
 42
0.032658
 10
8.517686676442815
 20
4.457891113354531
 10
8.522711366609403
 20
4.513304281124091
 10
8.57190534955977
 20
4.507522491730592
 42
-0.016971
 10
8.619633097997162
 20
4.500263660358696
 42
-0.06637
 10
8.647903474429259
 20
4.490976206338971
 42
-0.125056
 10
8.663120395068157
 20
4.478190872416406
 42
-0.157072
 10
8.66873720785067
 20
4.460752236367226
 42
0.08908
 10
8.676127421543396
 20
4.419600691138307
 42
0.065757
 10
8.69781653516185
 20
4.378613406363018
 42
0.064076
 10
8.730137776578672
 20
4.343640197082208
 42
0.074799
 10
8.768720214278884
 20
4.320118185689167
 42
-0.041268
 10
8.791595005443893
 20
4.308190157217814
 42
-0.27187
 10
8.797286177680952
 20
4.297170867316324
 42
-0.238768
 10
8.790672752891854
 20
4.285698314918533
 42
-0.033547
 10
8.766105188973169
 20
4.271890354806224
 42
0.064397
 10
8.745281360844948
 20
4.258437348317849
 42
0.09355
 10
8.731527075330781
 20
4.241499334157412
 42
0.097019
 10
8.725202299156052
 20
4.22120042146331
 42
0.074144
 10
8.726120570989316
 20
4.197906157407789
 42
0.253654
 10
8.737328461393536
 20
4.184166074130914
 42
0.080277
 10
8.763983298456649
 20
4.177938741859283
 42
0.066366
 10
8.797248714280963
 20
4.180045128034246
 42
0.070485
 10
8.828076163078019
 20
4.19082909979195
 42
0.034793
 10
8.842910209257148
 20
4.199858904579663
 42
0.011419
 10
8.8634433147049
 20
4.215121268657576
 42
0.011313
 10
8.885527895991584
 20
4.233151236759385
 42
0.01256
 10
8.906000165267707
 20
4.251561261195296
 10
8.953676954924437
 20
4.296651978764824
 10
9.001972113898874
 20
4.278301255877654
 42
0.012045
 10
9.021891900333336
 20
4.271276598657924
 42
0.012647
 10
9.041807752552765
 20
4.265341067953148
 42
0.012374
 10
9.059216505308958
 20
4.261088060581294
 42
0.053767
 10
9.069764070735741
 20
4.259950542291229
 42
-0.040407
 10
9.079113439813486
 20
4.259193749988899
 42
-0.188615
 10
9.083678840601153
 20
4.256491827824674
 42
-0.214691
 10
9.084861300090013
 20
4.251672358591742
 42
-0.053023
 10
9.082489266042529
 20
4.243674238919195
 42
0.061303
 10
9.072525982703828
 20
4.207925487034571
 42
0.052057
 10
9.070748852194956
 20
4.168751010425137
 42
0.047779
 10
9.077250881963788
 20
4.126912056449975
 42
0.037199
 10
9.091914780317825
 20
4.083251393496205
 42
-0.058917
 10
9.111582860696215
 20
4.015030876941177
 42
-0.112174
 10
9.108152327486346
 20
3.958323984872901
 42
-0.133579
 10
9.081704971437879
 20
3.915131195885492
 42
-0.102561
 10
9.034381926308265
 20
3.886027082089467
 42
0.046948
 10
9.011440439502402
 20
3.87520414951186
 42
0.377686
 10
9.008122529011137
 20
3.864984295827537
 42
0.233039
 10
9.018775583485258
 20
3.855927965315697
 42
0.02789
 10
9.050016041155203
 20
3.849891009989054
 42
-0.103161
 10
9.09452799197831
 20
3.834109524841018
 42
-0.121788
 10
9.125942978124109
 20
3.802486676350033
 42
-0.11735
 10
9.139728365328831
 20
3.758864788201266
 42
-0.09114
 10
9.134280295958932
 20
3.70922736434109
 42
-0.088482
 10
9.10998032376843
 20
3.661103971521327
 42
-0.122331
 10
9.072618487911443
 20
3.630690201250775
 42
-0.119631
 10
9.024699962597042
 20
3.620893940686899
 42
-0.082269
 10
8.970131600077701
 20
3.631991933490746
 42
-0.036026
 10
8.948966127691335
 20
3.641874411958769
 42
-0.010678
 10
8.9181188311049
 20
3.659956975772329
 42
-0.010655
 10
8.884218193013335
 20
3.681823826623608
 42
-0.0113
 10
8.851948319609951
 20
3.70470504460327
 42
0.010682
 10
8.773803452633883
 20
3.760259499986845
 42
0.017338
 10
8.704869262029337
 20
3.803668029050267
 42
0.018381
 10
8.63611026955429
 20
3.840391619897939
 42
0.014226
 10
8.558750757467786
 20
3.875434863786969
 42
0.022175
 10
8.404882909555164
 20
3.932045465244497
 42
0.022365
 10
8.247040602276229
 20
3.974623623813597
 42
0.022551
 10
8.087338722686657
 20
4.002639969003412
 42
0.023482
 10
7.927906843718165
 20
4.015680347949444
 42
-0.004009
 10
7.873147406697992
 20
4.018018527285913
 42
-0.005983
 10
7.825318029022335
 20
4.02101936608675
 42
-0.002788
 10
7.784781690857901
 20
4.024277398383101
 42
-0.117486
 10
7.776573281345791
 20
4.026994620272497
 42
-0.2524739999999999
 10
7.773012705122354
 20
4.033175820850002
 42
-0.052509
 10
7.774009047407341
 20
4.046102907423819
 42
-0.033933
 10
7.778920249886077
 20
4.06536208055777
 42
-0.010887
 10
7.788748198087439
 20
4.09320745945696
 10
7.811324351638182
 20
4.152991977275007
 10
7.921480270891771
 20
4.152049588610513
 42
-0.030716
 10
8.057665133588251
 20
4.142505489839221
 42
-0.02557
 10
8.200412146067828
 20
4.116159679322299
 42
-0.023727
 10
8.350227027027402
 20
4.072904017300151
 42
-0.018788
 10
8.507651926181193
 20
4.012550107886424
 42
-0.013626
 10
8.61380615348774
 20
3.963747388667637
 42
-0.019821
 10
8.704337287329924
 20
3.914547778766677
 42
-0.018697
 10
8.794473120917301
 20
3.856157330982816
 42
-0.010429
 10
8.899922872610938
 20
3.778774092696363
 42
0.006214
 10
8.966872228474096
 20
3.728770377604363
 42
0.052212
 10
8.999467060599492
 20
3.709901696240166
 42
0.139926
 10
9.021287491433545
 20
3.706773855769302
 42
0.151108
 10
9.040729219586117
 20
3.715822782888292
 42
0.017968
 10
9.047866434419221
 20
3.722764263547421
 42
0.022996
 10
9.053893205430329
 20
3.729672122014148
 42
0.021804
 10
9.058307924851755
 20
3.73575508812524
 42
0.147097
 10
9.059368488779476
 20
3.739282051457022
 42
0.209303
 10
9.052339720630543
 20
3.755337341230756
 42
0.034711
 10
9.025394412007079
 20
3.776953843934686
 42
0.03554
 10
8.990154829395658
 20
3.797870121466058
 42
0.035855
 10
8.952409923763253
 20
3.813514792658318
 42
-0.056248
 10
8.89564186999728
 20
3.839799515883495
 42
-0.078441
 10
8.852999350274268
 20
3.875904318879943
 42
-0.087376
 10
8.826697011438476
 20
3.920047244052255
 42
-0.091012
 10
8.817549124394975
 20
3.969887228833083
 42
-0.136872
 10
8.826521794707483
 20
4.002050673813894
 42
-0.161239
 10
8.850457010289048
 20
4.022497570658256
 42
-0.226234
 10
8.875952583920797
 20
4.021023802542011
 42
-0.212164
 10
8.891803833955455
 20
4.000170398045379
 42
0.065489
 10
8.898608268140186
 20
3.982235260337394
 42
0.222818
 10
8.908386103928648
 20
3.974971694886395
 42
0.226529
 10
8.920094197688085
 20
3.977900183193561
 42
0.067389
 10
8.932940749112823
 20
3.991812581369056
 42
0.085595
 10
8.943144466004943
 20
4.013473132400277
 42
0.059237
 10
8.947231148157827
 20
4.040307511040702
 42
0.060553
 10
8.944910640236452
 20
4.066560621034363
 42
0.105957
 10
8.936044100722677
 20
4.08640217890445
 42
0.133457
 10
8.9268569459347
 20
4.09374191745523
 42
0.160678
 10
8.915900994105198
 20
4.094731702715145
 42
0.055993
 10
8.898204894838901
 20
4.088463902902958
 42
0.005443
 10
8.857487350263834
 20
4.068129972904747
 42
-0.014021
 10
8.820242489874001
 20
4.050321771761572
 42
-0.036183
 10
8.792217439187069
 20
4.040230342761229
 42
-0.041198
 10
8.765229821475584
 20
4.035013536410384
 42
-0.023416
 10
8.732016815348137
 20
4.032959113496533
 42
-0.064567
 10
8.664444700215721
 20
4.040695975248098
 42
-0.100569
 10
8.611678254690097
 20
4.065758273684081
 42
-0.111247
 10
8.576392651993479
 20
4.107200634600904
 42
-0.093144
 10
8.559400395889458
 20
4.162525026761496
 42
-0.075261
 10
8.560652285438127
 20
4.195455466961674
 42
-0.058693
 10
8.571435485234017
 20
4.229648659980426
 42
-0.062159
 10
8.58866413836821
 20
4.257945896963462
 42
-0.134129
 10
8.6090600764319
 20
4.272913120507144
 42
0.070382
 10
8.61411306876486
 20
4.275719285418908
 42
0.10057
 10
8.617496010063668
 20
4.279554205711232
 42
0.123764
 10
8.618695610825163
 20
4.283787746624257
 42
0.146897
 10
8.617623709289551
 20
4.287787085482873
 42
0.209765
 10
8.605838084521591
 20
4.295914048372917
 42
0.139762
 10
8.589253424256982
 20
4.294458016776977
 42
0.07871
 10
8.567926528144143
 20
4.282179257219818
 42
0.030637
 10
8.542739534622837
 20
4.259146976543381
 42
-0.07046
 10
8.47043052226969
 20
4.202875787165258
 42
-0.093878
 10
8.391942978652801
 20
4.175692053949257
 42
-0.106371
 10
8.316492732756296
 20
4.180659126001904
 42
-0.115814
 10
8.252362553546852
 20
4.21638656988023
 42
0.034917
 10
8.238434446413416
 20
4.227400344440064
 42
0.13747
 10
8.228169884048927
 20
4.230870954559197
 42
0.08942
 10
8.21529688130602
 20
4.229246281858836
 42
0.010061
 10
8.187257340058724
 20
4.219828691818095
 42
-0.050053
 10
8.12900641274736
 20
4.205318488271611
 42
-0.094667
 10
8.080836413895486
 20
4.207471331666763
 42
-0.09553
 10
8.037140956855481
 20
4.227190063901238
 42
-0.051693
 10
7.992540109513722
 20
4.266126208925583
 10
7.953316692385243
 20
4.308245589656726
 10
7.923294306755941
 20
4.286867762665442
 42
-0.028923
 10
7.908568465441643
 20
4.277616004904202
 42
-0.013962
 10
7.888757758141998
 20
4.267423086176776
 42
-0.013794
 10
7.867455778724428
 20
4.257918255149961
 42
-0.019244
 10
7.847882193913058
 20
4.25069301806822
 42
0.025543
 10
7.819463805428465
 20
4.239794377428072
 42
0.115813
 10
7.805413319095164
 20
4.229160054653942
 42
0.082665
 10
7.795261174832869
 20
4.211727836118657
 42
0.009397
 10
7.77984670637476
 20
4.168647344323773
 42
-0.022447
 10
7.738115920061437
 20
4.06096191680194
 42
-0.018398
 10
7.684274596761868
 20
3.949895008198232
  0
LWPOLYLINE
  5
EF
330
1F
100
AcDbEntity
  8
0
100
AcDbPolyline
 90
      101
 70
     0
 43
0.0
 10
7.664624303335525
 20
3.914066551064993
 42
-0.0119704785492079
 10
7.627366873711475
 20
3.851781005035871
 42
-0.048299
 10
7.577249726736084
 20
3.787144214258039
 42
-0.041967
 10
7.538678245313235
 20
3.752566807472258
 42
-0.089933
 10
7.503123534867038
 20
3.734614221567056
 42
-0.108864
 10
7.46810759796468
 20
3.732112414227604
 42
-0.083116
 10
7.431433710297138
 20
3.743916640485136
 42
-0.204971
 10
7.384364175568107
 20
3.801039759483979
 42
-0.119554
 10
7.380135173418542
 20
3.8911709706012
 42
-0.084572
 10
7.421347415307915
 20
4.000715514697171
 42
-0.054638
 10
7.502225808378987
 20
4.109856499476956
 42
0.011888
 10
7.541018870745578
 20
4.153807950216402
 42
0.095899
 10
7.554058366120859
 20
4.177221105692495
 42
0.353534
 10
7.54934595776114
 20
4.189638678865553
 42
0.132887
 10
7.530101358894263
 20
4.194845328803097
 42
-0.069076
 10
7.520099570472151
 20
4.196233725382962
 42
-0.031256
 10
7.507593519313958
 20
4.200634475085712
 42
-0.030204
 10
7.494765978611567
 20
4.207009670597922
 42
-0.036238
 10
7.483598341830775
 20
4.21455307685798
 10
7.458544014133076
 20
4.234260815612117
 10
7.438165524266599
 20
4.215529599255829
 42
-0.048827
 10
7.394709914833084
 20
4.182786559762313
 42
-0.067514
 10
7.350055969539353
 20
4.163201730350494
 42
-0.079456
 10
7.30793351026169
 20
4.158125876786852
 42
-0.113671
 10
7.27175138087311
 20
4.167946086768546
 42
0.07063
 10
7.260431379291262
 20
4.17208296504103
 42
0.093915
 10
7.24950063248012
 20
4.172324161255516
 42
0.066574
 10
7.236588055068171
 20
4.16835571947107
 42
0.020231
 10
7.218311589327354
 20
4.15903561053641
 42
-0.092978
 10
7.138243802667934
 20
4.131913290138218
 42
-0.181689
 10
7.073388016553419
 20
4.146298454471827
 42
-0.179662
 10
7.033576848159045
 20
4.200044528844067
 42
-0.090775
 10
7.024962414633378
 20
4.285084047229276
 10
7.029596008481801
 20
4.342808766302984
 10
7.001218134041494
 20
4.331229394851352
 42
0.052142
 10
6.984344685651349
 20
4.322194353744321
 42
0.157009
 10
6.976400752117907
 20
4.312032750624582
 42
0.076629
 10
6.972946827534917
 20
4.294913427745328
 42
0.006626
 10
6.971478816579688
 20
4.250272112863018
 42
-0.045672
 10
6.96392124528533
 20
4.182405247827658
 42
-0.05604
 10
6.944225132462166
 20
4.121784183820757
 42
-0.055926
 10
6.911518282166611
 20
4.066953344982867
 42
-0.045209
 10
6.865274616371417
 20
4.016301600498037
 42
-0.024269
 10
6.819604006665356
 20
3.978456032904834
 42
-0.059032
 10
6.781820809866671
 20
3.95654500351583
 42
-0.073383
 10
6.745318102406876
 20
3.946791917009237
 42
-0.058183
 10
6.704443728673263
 20
3.946859366010413
 10
6.660469798033675
 20
3.952067429661164
 10
6.644721079409517
 20
3.895939397346753
 42
-0.095049
 10
6.5754858608993
 20
3.757272221671897
 42
-0.10823
 10
6.462386879071452
 20
3.661512646247136
 42
-0.130215
 10
6.336098120434115
 20
3.632212565758513
 42
-0.174112
 10
6.227526192423194
 20
3.675045369419058
 42
-0.03938
 10
6.196425134316081
 20
3.707020334806823
 42
-0.050181
 10
6.173463781119368
 20
3.741125459073216
 42
-0.045775
 10
6.156315709637981
 20
3.781595975866816
 42
-0.02594
 10
6.142752442820187
 20
3.833114400953598
 42
-0.108423
 10
6.144400451089214
 20
3.990942310679611
 42
-0.079585
 10
6.210385096500397
 20
4.153647875097923
 42
-0.067474
 10
6.336963824457864
 20
4.310543310753384
 42
-0.04706
 10
6.516438092278566
 20
4.450741147200328
 42
-0.013888
 10
6.563946333838314
 20
4.479304366882693
 42
-0.009231
 10
6.619888221046617
 20
4.50950955865072
 42
-0.00256
 10
6.676098323132997
 20
4.538168780620748
 42
-0.323578
 10
6.683467731059629
 20
4.536983223983876
 42
-0.273947
 10
6.684213120648857
 20
4.534071625829235
 42
-0.001756
 10
6.676344616155617
 20
4.507477234306476
 42
-0.006289
 10
6.666736295741591
 20
4.476824369789761
 42
-0.003892
 10
6.654714525063562
 20
4.4410416143822
 42
0.008022
 10
6.64203683796112
 20
4.402248059076141
 42
0.007604
 10
6.630371434620244
 20
4.362372948061385
 42
0.00758
 10
6.621124671358952
 20
4.326789600621998
 42
0.026376
 10
6.61672559579026
 20
4.30345558518327
 42
-0.055737
 10
6.608531807048938
 20
4.270677723701279
 42
-0.114199
 10
6.594015604522068
 20
4.248700603219841
 42
-0.046654
 10
6.563742228994032
 20
4.224892696232884
 42
-0.003368
 10
6.473761438822199
 20
4.167669510520905
 10
6.38540436337402
 20
4.112311375258233
 10
6.380711412172397
 20
4.137020543016253
 10
6.376018460970763
 20
4.161729710774273
 10
6.355130411199809
 20
4.135174856717585
 42
0.083183
 10
6.326675917223962
 20
4.083155074983221
 42
0.096766
 10
6.318729872421465
 20
4.027421022217869
 42
0.109276
 10
6.332356960949962
 20
3.977991125876058
 42
0.134949
 10
6.364984299178365
 20
3.943315196300777
 42
0.022097
 10
6.377584920309518
 20
3.936376319850191
 42
0.02149
 10
6.390864626020334
 20
3.930506368696892
 42
0.02198
 10
6.402961844340058
 20
3.926372568970927
 42
0.070927
 10
6.411351934600784
 20
3.925158496250547
 42
0.107237
 10
6.437913513095942
 20
3.930863470792871
 42
0.037984
 10
6.472207405278474
 20
3.949649849866472
 42
0.033023
 10
6.510368323924321
 20
3.978247231184433
 42
0.023158
 10
6.549475444540032
 20
4.015078775776815
 42
0.012867
 10
6.57755164002253
 20
4.045623481932433
 42
0.044525
 10
6.593330902292562
 20
4.067329476402676
 42
0.06001
 10
6.602479021854673
 20
4.087830057145927
 42
0.039942
 10
6.608101043054274
 20
4.112970742258949
 42
-0.054496
 10
6.621643541308952
 20
4.166219124477051
 42
-0.040731
 10
6.647422164506714
 20
4.221068936834299
 42
-0.03849
 10
6.683621193348566
 20
4.274242122530822
 42
-0.0180131533085417
 10
6.70508385330268
 20
4.299178572542773
  0
LINE
  5
F0
330
1F
100
AcDbEntity
  8
0
100
AcDbLine
 10
7.888385705808909
 20
6.000622472130288
 30
0.0
 11
7.8117825492504
 21
6.117033722538413
 31
0.0
  0
LINE
  5
F1
330
1F
100
AcDbEntity
  8
0
100
AcDbLine
 10
7.843810905835841
 20
6.131106347171367
 30
0.0
 11
7.923768116438969
 21
6.037101683734397
 31
0.0
  0
LINE
  5
F2
330
1F
100
AcDbEntity
  8
0
100
AcDbLine
 10
7.888385705808909
 20
6.000622472130288
 30
0.0
 11
7.886113147880249
 21
5.99827946835847
 31
0.0
  0
INSERT
  5
FC
102
{ACAD_REACTORS
330
10B
102
}
330
1F
100
AcDbEntity
  8
0
100
AcDbBlockReference
  2
*U3
 10
0.0
 20
0.0
 30
0.0
  0
INSERT
  5
117
102
{ACAD_REACTORS
330
12E
102
}
330
1F
100
AcDbEntity
  8
0
100
AcDbBlockReference
  2
*U6
 10
6.226829334812464
 20
0.0
 30
0.0
  0
INSERT
  5
135
102
{ACAD_REACTORS
330
14C
102
}
330
1F
100
AcDbEntity
  8
0
100
AcDbBlockReference
  2
*U9
 10
6.226829334812464
 20
0.0
 30
0.0
  0
ENDSEC
  0
SECTION
  2
OBJECTS
  0
DICTIONARY
  5
C
330
0
100
AcDbDictionary
281
     1
  3
ACAD_ASSOCNETWORK
350
101
  3
ACAD_CIP_PREVIOUS_PRODUCT_INFO
350
BA
  3
ACAD_COLOR
350
AF
  3
ACAD_DETAILVIEWSTYLE
350
B6
  3
ACAD_GROUP
350
D
  3
ACAD_LAYOUT
350
1A
  3
ACAD_MATERIAL
350
7D
  3
ACAD_MLEADERSTYLE
350
B2
  3
ACAD_MLINESTYLE
350
17
  3
ACAD_PLOTSETTINGS
350
19
  3
ACAD_PLOTSTYLENAME
350
E
  3
ACAD_SCALELIST
350
47
  3
ACAD_SECTIONVIEWSTYLE
350
B4
  3
ACAD_TABLESTYLE
350
B0
  3
ACAD_VISUALSTYLE
350
96
  3
ACDB_RECOMPOSE_DATA
350
16C
  3
AcDbVariableDictionary
350
10D
  0
DICTIONARY
  5
164
330
2
100
AcDbDictionary
280
     1
281
     1
  3
ACAD_LAYERSTATES
360
165
  0
DICTIONARY
  5
153
330
10
100
AcDbDictionary
280
     1
281
     1
  3
ADSK_XREC_LAYER_RECONCILED
360
154
  0
DICTIONARY
  5
E2
330
1F
100
AcDbDictionary
280
     1
281
     1
  3
ACAD_ASSOCNETWORK
360
FF
  3
ACAD_SORTENTS
360
E3
  0
DICTIONARY
  5
101
102
{ACAD_REACTORS
330
C
102
}
330
C
100
AcDbDictionary
281
     1
  3
ACAD_ASSOCNETWORK
350
102
  0
XRECORD
  5
BA
102
{ACAD_REACTORS
330
C
102
}
330
C
100
AcDbXrecord
280
     1
300
ACAD_E
300
2020
300
ACAD_E_F_S
  0
DICTIONARY
  5
AF
102
{ACAD_REACTORS
330
C
102
}
330
C
100
AcDbDictionary
281
     1
  0
DICTIONARY
  5
B6
102
{ACAD_REACTORS
330
C
102
}
330
C
100
AcDbDictionary
281
     1
  3
Imperial24
350
B7
  0
DICTIONARY
  5
D
102
{ACAD_REACTORS
330
C
102
}
330
C
100
AcDbDictionary
281
     1
  0
DICTIONARY
  5
1A
102
{ACAD_REACTORS
330
C
102
}
330
C
100
AcDbDictionary
281
     1
  3
Layout1
350
1E
  3
Layout2
350
26
  3
Model
350
22
  0
DICTIONARY
  5
7D
102
{ACAD_REACTORS
330
C
102
}
330
C
100
AcDbDictionary
281
     1
  3
ByBlock
350
86
  3
ByLayer
350
7E
  3
Global
350
8E
  0
DICTIONARY
  5
B2
102
{ACAD_REACTORS
330
C
102
}
330
C
100
AcDbDictionary
281
     1
  3
Standard
350
B3
  0
DICTIONARY
  5
17
102
{ACAD_REACTORS
330
C
102
}
330
C
100
AcDbDictionary
281
     1
  3
Standard
350
18
  0
DICTIONARY
  5
19
102
{ACAD_REACTORS
330
C
102
}
330
C
100
AcDbDictionary
281
     1
  0
ACDBDICTIONARYWDFLT
  5
E
102
{ACAD_REACTORS
330
C
102
}
330
C
100
AcDbDictionary
281
     1
  3
Normal
350
F
100
AcDbDictionaryWithDefault
340
F
  0
DICTIONARY
  5
47
102
{ACAD_REACTORS
330
C
102
}
330
C
100
AcDbDictionary
281
     1
  3
A0
350
48
  3
A1
350
49
  3
A2
350
4A
  3
A3
350
4B
  3
A4
350
4C
  3
A5
350
4D
  3
A6
350
4E
  3
A7
350
4F
  3
A8
350
50
  3
A9
350
51
  3
B0
350
52
  3
B1
350
53
  3
B2
350
54
  3
B3
350
55
  3
B4
350
56
  3
B5
350
57
  3
B6
350
58
  3
B7
350
59
  3
B8
350
5A
  3
B9
350
5B
  3
C0
350
5C
  3
C1
350
5D
  3
C2
350
5E
  3
C3
350
5F
  3
C4
350
60
  3
C5
350
61
  3
C6
350
62
  3
C7
350
63
  3
C8
350
64
  3
C9
350
65
  3
D0
350
66
  3
D1
350
67
  3
D2
350
68
  0
DICTIONARY
  5
B4
102
{ACAD_REACTORS
330
C
102
}
330
C
100
AcDbDictionary
281
     1
  3
Imperial24
350
B5
  0
DICTIONARY
  5
B0
102
{ACAD_REACTORS
330
C
102
}
330
C
100
AcDbDictionary
281
     1
  3
Standard
350
B1
  0
DICTIONARY
  5
96
102
{ACAD_REACTORS
330
C
102
}
330
C
100
AcDbDictionary
281
     1
  3
2dWireframe
350
9C
  3
Basic
350
9B
  3
Brighten
350
A2
  3
ColorChange
350
A6
  3
Conceptual
350
9F
  3
Dim
350
A1
  3
EdgeColorOff
350
AE
  3
Facepattern
350
A5
  3
Flat
350
97
  3
FlatWithEdges
350
98
  3
Gouraud
350
99
  3
GouraudWithEdges
350
9A
  3
Hidden
350
9E
  3
JitterOff
350
AC
  3
Linepattern
350
A4
  3
OverhangOff
350
AD
  3
Realistic
350
A0
  3
Shaded
350
AB
  3
Shaded with edges
350
AA
  3
Shades of Gray
350
A7
  3
Sketchy
350
A8
  3
Thicken
350
A3
  3
Wireframe
350
9D
  3
X-Ray
350
A9
  0
XRECORD
  5
16C
102
{ACAD_REACTORS
330
C
102
}
330
C
100
AcDbXrecord
280
     1
 90
        1
330
B1
  0
DICTIONARY
  5
10D
102
{ACAD_REACTORS
330
C
102
}
330
C
100
AcDbDictionary
281
     1
  3
CANNOSCALE
350
15A
  3
CMLEADERSTYLE
350
156
  3
CTABLESTYLE
350
155
  3
CVIEWDETAILSTYLE
350
157
  3
CVIEWSECTIONSTYLE
350
158
  3
LAYEREVAL
350
15C
  3
LAYERNOTIFY
350
15D
  3
LIGHTINGUNITS
350
15B
  3
MSLTSCALE
350
159
  0
DICTIONARY
  5
165
102
{ACAD_REACTORS
330
164
102
}
330
164
100
AcDbDictionary
281
     1
  0
XRECORD
  5
154
102
{ACAD_REACTORS
330
153
102
}
330
153
100
AcDbXrecord
280
     1
290
     1
  0
DICTIONARY
  5
FF
102
{ACAD_REACTORS
330
E2
102
}
330
E2
100
AcDbDictionary
281
     1
  3
ACAD_ASSOCNETWORK
350
100
  0
SORTENTSTABLE
  5
E3
102
{ACAD_REACTORS
330
E2
102
}
330
E2
100
AcDbSortentsTable
330
1F
331
D0
  5
D3
331
D1
  5
D4
331
D2
  5
D5
331
D3
  5
D6
331
D4
  5
D7
331
D5
  5
D8
331
D9
  5
DC
331
DA
  5
DD
331
DB
  5
DE
331
DC
  5
DF
331
DD
  5
E0
331
DE
  5
E1
331
DF
  5
E4
331
E0
  5
EF
331
E1
  5
D0
331
E4
  5
D1
331
EF
  5
D2
  0
ACDBASSOCNETWORK
  5
102
102
{ACAD_REACTORS
330
101
102
}
330
101
100
AcDbAssocAction
 90
        2
 90
        0
330
0
360
0
 90
        0
 90
        0
 90
        0
 90
        0
 90
        0
 90
        0
 90
        0
100
AcDbAssocNetwork
 90
        0
 90
        1
 90
        1
330
100
 90
        0
  0
ACDBDETAILVIEWSTYLE
  5
B7
102
{ACAD_REACTORS
330
B6
102
}
330
B6
100
AcDbModelDocViewStyle
 70
     0
  3
Imperial24
290
     0
300
Imperial24
 90
        0
100
AcDbDetailViewStyle
 70
     0
 71
     0
 90
        3
 71
     1
340
11
 62
   256
 40
0.24
340
0
 62
   256
 40
0.24
300

 40
0.36
280
     3
 71
     2
340
16
 90
       25
 62
   256
 71
     3
340
11
 62
   256
 40
0.24
 90
        1
 40
0.75
 90
        1
300
%<\AcVar ViewType \f "%tc1">% %<\AcVar ViewDetailId>%\PSCALE %<\AcVar ViewScale \f "%sn">%
 71
     4
340
16
 90
       25
 62
   256
340
16
 90
       25
 62
   256
280
     0
  0
LAYOUT
  5
1E
102
{ACAD_REACTORS
330
1A
102
}
330
1A
100
AcDbPlotSettings
  1

  2
none_device
  4

  6

 40
0.0
 41
0.0
 42
0.0
 43
0.0
 44
0.0
 45
0.0
 46
0.0
 47
0.0
 48
0.0
 49
0.0
140
0.0
141
0.0
142
1.0
143
1.0
 70
   688
 72
     0
 73
     0
 74
     5
  7

 75
    16
147
1.0
 76
     0
 77
     2
 78
   300
148
0.0
149
0.0
100
AcDbLayout
  1
Layout1
 70
     1
 71
     1
 10
0.0
 20
0.0
 11
12.0
 21
9.0
 12
0.0
 22
0.0
 32
0.0
 14
1.000000000000000E+20
 24
1.000000000000000E+20
 34
1.000000000000000E+20
 15
-1.000000000000000E+20
 25
-1.000000000000000E+20
 35
-1.000000000000000E+20
146
0.0
 13
0.0
 23
0.0
 33
0.0
 16
1.0
 26
0.0
 36
0.0
 17
0.0
 27
1.0
 37
0.0
 76
     0
330
1B
  0
LAYOUT
  5
26
102
{ACAD_REACTORS
330
1A
102
}
330
1A
100
AcDbPlotSettings
  1

  2
none_device
  4

  6

 40
0.0
 41
0.0
 42
0.0
 43
0.0
 44
0.0
 45
0.0
 46
0.0
 47
0.0
 48
0.0
 49
0.0
140
0.0
141
0.0
142
1.0
143
1.0
 70
   688
 72
     0
 73
     0
 74
     5
  7

 75
    16
147
1.0
 76
     0
 77
     2
 78
   300
148
0.0
149
0.0
100
AcDbLayout
  1
Layout2
 70
     1
 71
     2
 10
0.0
 20
0.0
 11
0.0
 21
0.0
 12
0.0
 22
0.0
 32
0.0
 14
0.0
 24
0.0
 34
0.0
 15
0.0
 25
0.0
 35
0.0
146
0.0
 13
0.0
 23
0.0
 33
0.0
 16
1.0
 26
0.0
 36
0.0
 17
0.0
 27
1.0
 37
0.0
 76
     0
330
23
  0
LAYOUT
  5
22
102
{ACAD_REACTORS
330
1A
102
}
330
1A
100
AcDbPlotSettings
  1

  2
none_device
  4
ANSI_A_(11.00_x_8.50_Inches)
  6

 40
6.349999999999999
 41
19.05
 42
6.350005079999999
 43
19.05000254
 44
279.4
 45
215.9
 46
-4.953002539999999
 47
-1.7904930733
 48
0.0
 49
0.0
140
0.0
141
0.0
142
0.7140983606999999
143
1.0
 70
  1696
 72
     0
 73
     0
 74
     0
  7

 75
     0
147
0.5913241897
 76
     0
 77
     2
 78
   300
148
-39.4088153714
149
0.0
100
AcDbLayout
  1
Model
 70
     1
 71
     0
 10
0.0
 20
0.0
 11
12.0
 21
9.0
 12
0.0
 22
0.0
 32
0.0
 14
0.0
 24
0.0
 34
0.0
 15
15.25
 25
10.0
 35
0.0
146
0.0
 13
0.0
 23
0.0
 33
0.0
 16
1.0
 26
0.0
 36
0.0
 17
0.0
 27
1.0
 37
0.0
 76
     0
330
1F
331
29
  0
MATERIAL
  5
86
102
{ACAD_XDICTIONARY
360
87
102
}
102
{ACAD_REACTORS
330
7D
102
}
330
7D
100
AcDbMaterial
  1
ByBlock
 72
     0
 43
0.0208333333333333
 43
0.0
 43
0.0
 43
0.0
 43
0.0
 43
0.0208333333333333
 43
0.0
 43
0.0
 43
0.0
 43
0.0
 43
1.0
 43
0.0
 43
0.0
 43
0.0
 43
0.0
 43
1.0
 77
     0
 47
0.0208333333333333
 47
0.0
 47
0.0
 47
0.0
 47
0.0
 47
0.0208333333333333
 47
0.0
 47
0.0
 47
0.0
 47
0.0
 47
1.0
 47
0.0
 47
0.0
 47
0.0
 47
0.0
 47
1.0
171
     0
 49
0.0208333333333333
 49
0.0
 49
0.0
 49
0.0
 49
0.0
 49
0.0208333333333333
 49
0.0
 49
0.0
 49
0.0
 49
0.0
 49
1.0
 49
0.0
 49
0.0
 49
0.0
 49
0.0
 49
1.0
175
     0
142
0.0208333333333333
142
0.0
142
0.0
142
0.0
142
0.0
142
0.0208333333333333
142
0.0
142
0.0
142
0.0
142
0.0
142
1.0
142
0.0
142
0.0
142
0.0
142
0.0
142
1.0
179
     0
144
0.0208333333333333
144
0.0
144
0.0
144
0.0
144
0.0
144
0.0208333333333333
144
0.0
144
0.0
144
0.0
144
0.0
144
1.0
144
0.0
144
0.0
144
0.0
144
0.0
144
1.0
147
0.0208333333333333
147
0.0
147
0.0
147
0.0
147
0.0
147
0.0208333333333333
147
0.0
147
0.0
147
0.0
147
0.0
147
1.0
147
0.0
147
0.0
147
0.0
147
0.0
147
1.0
  0
MATERIAL
  5
7E
102
{ACAD_XDICTIONARY
360
7F
102
}
102
{ACAD_REACTORS
330
7D
102
}
330
7D
100
AcDbMaterial
  1
ByLayer
 72
     0
 43
0.0208333333333333
 43
0.0
 43
0.0
 43
0.0
 43
0.0
 43
0.0208333333333333
 43
0.0
 43
0.0
 43
0.0
 43
0.0
 43
1.0
 43
0.0
 43
0.0
 43
0.0
 43
0.0
 43
1.0
 77
     0
 47
0.0208333333333333
 47
0.0
 47
0.0
 47
0.0
 47
0.0
 47
0.0208333333333333
 47
0.0
 47
0.0
 47
0.0
 47
0.0
 47
1.0
 47
0.0
 47
0.0
 47
0.0
 47
0.0
 47
1.0
171
     0
 49
0.0208333333333333
 49
0.0
 49
0.0
 49
0.0
 49
0.0
 49
0.0208333333333333
 49
0.0
 49
0.0
 49
0.0
 49
0.0
 49
1.0
 49
0.0
 49
0.0
 49
0.0
 49
0.0
 49
1.0
175
     0
142
0.0208333333333333
142
0.0
142
0.0
142
0.0
142
0.0
142
0.0208333333333333
142
0.0
142
0.0
142
0.0
142
0.0
142
1.0
142
0.0
142
0.0
142
0.0
142
0.0
142
1.0
179
     0
144
0.0208333333333333
144
0.0
144
0.0
144
0.0
144
0.0
144
0.0208333333333333
144
0.0
144
0.0
144
0.0
144
0.0
144
1.0
144
0.0
144
0.0
144
0.0
144
0.0
144
1.0
147
0.0208333333333333
147
0.0
147
0.0
147
0.0
147
0.0
147
0.0208333333333333
147
0.0
147
0.0
147
0.0
147
0.0
147
1.0
147
0.0
147
0.0
147
0.0
147
0.0
147
1.0
  0
MATERIAL
  5
8E
102
{ACAD_XDICTIONARY
360
8F
102
}
102
{ACAD_REACTORS
330
7D
102
}
330
7D
100
AcDbMaterial
  1
Global
 72
     0
 43
0.0208333333333333
 43
0.0
 43
0.0
 43
0.0
 43
0.0
 43
0.0208333333333333
 43
0.0
 43
0.0
 43
0.0
 43
0.0
 43
1.0
 43
0.0
 43
0.0
 43
0.0
 43
0.0
 43
1.0
 77
     0
 47
0.0208333333333333
 47
0.0
 47
0.0
 47
0.0
 47
0.0
 47
0.0208333333333333
 47
0.0
 47
0.0
 47
0.0
 47
0.0
 47
1.0
 47
0.0
 47
0.0
 47
0.0
 47
0.0
 47
1.0
171
     0
 49
0.0208333333333333
 49
0.0
 49
0.0
 49
0.0
 49
0.0
 49
0.0208333333333333
 49
0.0
 49
0.0
 49
0.0
 49
0.0
 49
1.0
 49
0.0
 49
0.0
 49
0.0
 49
0.0
 49
1.0
175
     0
142
0.0208333333333333
142
0.0
142
0.0
142
0.0
142
0.0
142
0.0208333333333333
142
0.0
142
0.0
142
0.0
142
0.0
142
1.0
142
0.0
142
0.0
142
0.0
142
0.0
142
1.0
179
     0
144
0.0208333333333333
144
0.0
144
0.0
144
0.0
144
0.0
144
0.0208333333333333
144
0.0
144
0.0
144
0.0
144
0.0
144
1.0
144
0.0
144
0.0
144
0.0
144
0.0
144
1.0
147
0.0208333333333333
147
0.0
147
0.0
147
0.0
147
0.0
147
0.0208333333333333
147
0.0
147
0.0
147
0.0
147
0.0
147
1.0
147
0.0
147
0.0
147
0.0
147
0.0
147
1.0
  0
MLEADERSTYLE
  5
B3
102
{ACAD_REACTORS
330
B2
102
}
330
B2
100
AcDbMLeaderStyle
179
     2
170
     2
171
     1
172
     0
 90
        2
 40
0.0
 41
0.0
173
     1
 91
-1056964608
340
14
 92
       -2
290
     1
 42
0.09
291
     1
 43
0.36
  3
Standard
 44
0.18
300

342
11
174
     1
178
     6
175
     1
176
     0
 93
-1056964608
 45
0.18
292
     0
297
     0
 46
0.18
 94
-1056964608
 47
1.0
 49
1.0
140
1.0
293
     1
141
0.0
294
     1
177
     0
142
1.0
295
     0
296
     0
143
0.125
271
     0
272
     9
273
     9
298
     0
  0
MLINESTYLE
  5
18
102
{ACAD_REACTORS
330
17
102
}
330
17
100
AcDbMlineStyle
  2
STANDARD
 70
     0
  3

 62
   256
 51
90.0
 52
90.0
 71
     2
 49
0.5
 62
   256
  6
BYLAYER
 49
-0.5
 62
   256
  6
BYLAYER
  0
ACDBPLACEHOLDER
  5
F
102
{ACAD_REACTORS
330
E
102
}
330
E
  0
SCALE
  5
48
102
{ACAD_REACTORS
330
47
102
}
330
47
100
AcDbScale
 70
     0
300
1:1
140
1.0
141
1.0
290
     1
  0
SCALE
  5
49
102
{ACAD_REACTORS
330
47
102
}
330
47
100
AcDbScale
 70
     0
300
1:2
140
1.0
141
2.0
290
     0
  0
SCALE
  5
4A
102
{ACAD_REACTORS
330
47
102
}
330
47
100
AcDbScale
 70
     0
300
1:4
140
1.0
141
4.0
290
     0
  0
SCALE
  5
4B
102
{ACAD_REACTORS
330
47
102
}
330
47
100
AcDbScale
 70
     0
300
1:5
140
1.0
141
5.0
290
     0
  0
SCALE
  5
4C
102
{ACAD_REACTORS
330
47
102
}
330
47
100
AcDbScale
 70
     0
300
1:8
140
1.0
141
8.0
290
     0
  0
SCALE
  5
4D
102
{ACAD_REACTORS
330
47
102
}
330
47
100
AcDbScale
 70
     0
300
1:10
140
1.0
141
10.0
290
     0
  0
SCALE
  5
4E
102
{ACAD_REACTORS
330
47
102
}
330
47
100
AcDbScale
 70
     0
300
1:16
140
1.0
141
16.0
290
     0
  0
SCALE
  5
4F
102
{ACAD_REACTORS
330
47
102
}
330
47
100
AcDbScale
 70
     0
300
1:20
140
1.0
141
20.0
290
     0
  0
SCALE
  5
50
102
{ACAD_REACTORS
330
47
102
}
330
47
100
AcDbScale
 70
     0
300
1:30
140
1.0
141
30.0
290
     0
  0
SCALE
  5
51
102
{ACAD_REACTORS
330
47
102
}
330
47
100
AcDbScale
 70
     0
300
1:40
140
1.0
141
40.0
290
     0
  0
SCALE
  5
52
102
{ACAD_REACTORS
330
47
102
}
330
47
100
AcDbScale
 70
     0
300
1:50
140
1.0
141
50.0
290
     0
  0
SCALE
  5
53
102
{ACAD_REACTORS
330
47
102
}
330
47
100
AcDbScale
 70
     0
300
1:100
140
1.0
141
100.0
290
     0
  0
SCALE
  5
54
102
{ACAD_REACTORS
330
47
102
}
330
47
100
AcDbScale
 70
     0
300
2:1
140
2.0
141
1.0
290
     0
  0
SCALE
  5
55
102
{ACAD_REACTORS
330
47
102
}
330
47
100
AcDbScale
 70
     0
300
4:1
140
4.0
141
1.0
290
     0
  0
SCALE
  5
56
102
{ACAD_REACTORS
330
47
102
}
330
47
100
AcDbScale
 70
     0
300
8:1
140
8.0
141
1.0
290
     0
  0
SCALE
  5
57
102
{ACAD_REACTORS
330
47
102
}
330
47
100
AcDbScale
 70
     0
300
10:1
140
10.0
141
1.0
290
     0
  0
SCALE
  5
58
102
{ACAD_REACTORS
330
47
102
}
330
47
100
AcDbScale
 70
     0
300
100:1
140
100.0
141
1.0
290
     0
  0
SCALE
  5
59
102
{ACAD_REACTORS
330
47
102
}
330
47
100
AcDbScale
 70
     0
300
1/128" = 1'-0"
140
0.0078125
141
12.0
290
     0
  0
SCALE
  5
5A
102
{ACAD_REACTORS
330
47
102
}
330
47
100
AcDbScale
 70
     0
300
1/64" = 1'-0"
140
0.015625
141
12.0
290
     0
  0
SCALE
  5
5B
102
{ACAD_REACTORS
330
47
102
}
330
47
100
AcDbScale
 70
     0
300
1/32" = 1'-0"
140
0.03125
141
12.0
290
     0
  0
SCALE
  5
5C
102
{ACAD_REACTORS
330
47
102
}
330
47
100
AcDbScale
 70
     0
300
1/16" = 1'-0"
140
0.0625
141
12.0
290
     0
  0
SCALE
  5
5D
102
{ACAD_REACTORS
330
47
102
}
330
47
100
AcDbScale
 70
     0
300
3/32" = 1'-0"
140
0.09375
141
12.0
290
     0
  0
SCALE
  5
5E
102
{ACAD_REACTORS
330
47
102
}
330
47
100
AcDbScale
 70
     0
300
1/8" = 1'-0"
140
0.125
141
12.0
290
     0
  0
SCALE
  5
5F
102
{ACAD_REACTORS
330
47
102
}
330
47
100
AcDbScale
 70
     0
300
3/16" = 1'-0"
140
0.1875
141
12.0
290
     0
  0
SCALE
  5
60
102
{ACAD_REACTORS
330
47
102
}
330
47
100
AcDbScale
 70
     0
300
1/4" = 1'-0"
140
0.25
141
12.0
290
     0
  0
SCALE
  5
61
102
{ACAD_REACTORS
330
47
102
}
330
47
100
AcDbScale
 70
     0
300
3/8" = 1'-0"
140
0.375
141
12.0
290
     0
  0
SCALE
  5
62
102
{ACAD_REACTORS
330
47
102
}
330
47
100
AcDbScale
 70
     0
300
1/2" = 1'-0"
140
0.5
141
12.0
290
     0
  0
SCALE
  5
63
102
{ACAD_REACTORS
330
47
102
}
330
47
100
AcDbScale
 70
     0
300
3/4" = 1'-0"
140
0.75
141
12.0
290
     0
  0
SCALE
  5
64
102
{ACAD_REACTORS
330
47
102
}
330
47
100
AcDbScale
 70
     0
300
1" = 1'-0"
140
1.0
141
12.0
290
     0
  0
SCALE
  5
65
102
{ACAD_REACTORS
330
47
102
}
330
47
100
AcDbScale
 70
     0
300
1-1/2" = 1'-0"
140
1.5
141
12.0
290
     0
  0
SCALE
  5
66
102
{ACAD_REACTORS
330
47
102
}
330
47
100
AcDbScale
 70
     0
300
3" = 1'-0"
140
3.0
141
12.0
290
     0
  0
SCALE
  5
67
102
{ACAD_REACTORS
330
47
102
}
330
47
100
AcDbScale
 70
     0
300
6" = 1'-0"
140
6.0
141
12.0
290
     0
  0
SCALE
  5
68
102
{ACAD_REACTORS
330
47
102
}
330
47
100
AcDbScale
 70
     0
300
1'-0" = 1'-0"
140
12.0
141
12.0
290
     0
  0
ACDBSECTIONVIEWSTYLE
  5
B5
102
{ACAD_REACTORS
330
B4
102
}
330
B4
100
AcDbModelDocViewStyle
 70
     0
  3
Imperial24
290
     0
300
Imperial24
 90
        0
100
AcDbSectionViewStyle
 70
     0
 71
     0
 90
       78
 71
     1
340
11
 62
   256
 40
0.24
340
0
340
0
 62
   256
 40
0.24
300
I, O, Q, S, X, Z
 40
0.48
 90
        3
 40
0.18
 90
        1
 71
     2
340
16
 90
       25
 62
   256
340
16
 90
       50
 62
   256
 40
0.24
 40
0.0
 40
0.24
 71
     3
340
11
 62
   256
 40
0.24
 90
        1
 40
0.75
 90
        1
300
%<\AcVar ViewType \f "%tc1">% %<\AcVar ViewSectionStartId>%-%<\AcVar ViewSectionEndId>%\PSCALE %<\AcVar ViewScale \f "%sn">%
 71
     4
 62
   256
 62
   257
300
ANSI31
 40
1.0
 90
        0
290
     0
290
     0
 90
        6
 40
0.0
 40
1.570796326794896
 40
0.2617993877991494
 40
1.308996938995747
 40
-0.2617993877991494
 40
1.832595714594046
  0
TABLESTYLE
  5
B1
102
{ACAD_XDICTIONARY
360
16A
102
}
102
{ACAD_REACTORS
330
B0
102
}
330
B0
100
AcDbTableStyle
280
     0
  3
Standard
 70
     0
 71
     0
 40
0.06
 41
0.06
280
     0
281
     0
  7
Standard
140
0.18
170
     2
 62
     0
 63
     7
283
     0
 90
      512
 91
        0
  1

274
    -2
284
     1
 64
     0
275
    -2
285
     1
 65
     0
276
    -2
286
     1
 66
     0
277
    -2
287
     1
 67
     0
278
    -2
288
     1
 68
     0
279
    -2
289
     1
 69
     0
  7
Standard
140
0.25
170
     5
 62
     0
 63
     7
283
     0
 90
      512
 91
        0
  1

274
    -2
284
     1
 64
     0
275
    -2
285
     1
 65
     0
276
    -2
286
     1
 66
     0
277
    -2
287
     1
 67
     0
278
    -2
288
     1
 68
     0
279
    -2
289
     1
 69
     0
  7
Standard
140
0.18
170
     5
 62
     0
 63
     7
283
     0
 90
      512
 91
        0
  1

274
    -2
284
     1
 64
     0
275
    -2
285
     1
 65
     0
276
    -2
286
     1
 66
     0
277
    -2
287
     1
 67
     0
278
    -2
288
     1
 68
     0
279
    -2
289
     1
 69
     0
  0
VISUALSTYLE
  5
9C
102
{ACAD_REACTORS
330
96
102
}
330
96
100
AcDbVisualStyle
  2
2dWireframe
 70
     4
177
     3
291
     0
 70
    58
 90
        0
176
     1
 90
        2
176
     1
 90
        0
176
     1
 90
        0
176
     1
 40
0.6
176
     1
 40
30.0
176
     1
 62
     7
420
 16777215
176
     1
 90
        1
176
     1
 90
        4
176
     1
 62
     7
176
     1
 62
   257
176
     1
 90
        1
176
     1
 90
        1
176
     1
 40
1.0
176
     1
 90
        0
176
     1
 62
   257
176
     1
 40
1.0
176
     1
 90
        1
176
     1
 90
        6
176
     1
 90
        2
176
     1
 62
     7
176
     1
 90
        5
176
     1
 90
        0
176
     1
 90
        0
176
     1
290
     0
176
     1
 90
        1
176
     1
 40
0.0
176
     1
 90
        0
176
     1
290
     1
176
     1
290
     1
176
     1
290
     0
176
     1
290
     0
176
     1
290
     0
176
     1
290
     0
176
     1
290
     0
176
     1
290
     0
176
     1
290
     0
176
     1
 90
       50
176
     1
 40
0.0
176
     1
 40
1.0
176
     1
 90
        0
176
     1
 62
    18
420
        0
176
     1
 90
       50
176
     1
 90
        3
176
     1
 62
     5
420
      255
176
     1
290
     0
176
     1
 90
       50
176
     1
 90
       50
176
     1
 90
       50
176
     1
290
     0
176
     1
 90
       50
176
     1
 62
   256
176
     0
 40
1.0
176
     0
 90
        2
176
     1
  1
strokes_ogs.tif
176
     1
290
     0
176
     1
 40
1.0
176
     1
 40
1.0
176
     1
  0
VISUALSTYLE
  5
9B
102
{ACAD_REACTORS
330
96
102
}
330
96
100
AcDbVisualStyle
  2
Basic
 70
     7
177
     3
291
     1
 70
    58
 90
        1
176
     1
 90
        0
176
     1
 90
        1
176
     1
 90
        0
176
     1
 40
0.6
176
     1
 40
30.0
176
     1
 62
     7
420
 16777215
176
     1
 90
        0
176
     1
 90
        4
176
     1
 62
     7
176
     1
 62
   257
176
     1
 90
        1
176
     1
 90
        1
176
     1
 40
1.0
176
     1
 90
        8
176
     1
 62
     7
176
     1
 40
1.0
176
     1
 90
        1
176
     1
 90
        6
176
     1
 90
        2
176
     1
 62
     7
176
     1
 90
        5
176
     1
 90
        0
176
     1
 90
        0
176
     1
290
     0
176
     1
 90
        1
176
     1
 40
0.0
176
     1
 90
        0
176
     1
290
     0
176
     1
290
     1
176
     1
290
     1
176
     1
290
     0
176
     1
290
     0
176
     1
290
     0
176
     1
290
     0
176
     1
290
     0
176
     1
290
     0
176
     1
 90
       50
176
     1
 40
0.0
176
     1
 40
1.0
176
     1
 90
        0
176
     1
 62
    18
420
        0
176
     1
 90
       50
176
     1
 90
        3
176
     1
 62
     5
420
      255
176
     1
290
     0
176
     1
 90
       50
176
     1
 90
       50
176
     1
 90
       50
176
     1
290
     0
176
     1
 90
       50
176
     1
 62
   256
176
     0
 40
1.0
176
     0
 90
        2
176
     1
  1
strokes_ogs.tif
176
     1
290
     0
176
     1
 40
1.0
176
     1
 40
1.0
176
     1
  0
VISUALSTYLE
  5
A2
102
{ACAD_REACTORS
330
96
102
}
330
96
100
AcDbVisualStyle
  2
Brighten
 70
    12
177
     3
291
     1
 70
    58
 90
        2
176
     1
 90
        2
176
     1
 90
        0
176
     1
 90
        0
176
     1
 40
0.6
176
     1
 40
30.0
176
     1
 62
     7
420
 16777215
176
     1
 90
        1
176
     1
 90
        4
176
     1
 62
     7
176
     1
 62
   257
176
     1
 90
        1
176
     1
 90
        1
176
     1
 40
1.0
176
     1
 90
        8
176
     1
 62
     7
176
     1
 40
1.0
176
     1
 90
        1
176
     1
 90
        6
176
     1
 90
        2
176
     1
 62
     7
176
     1
 90
        5
176
     1
 90
        0
176
     1
 90
        0
176
     1
290
     0
176
     1
 90
        1
176
     1
 40
50.0
176
     1
 90
        0
176
     1
290
     0
176
     1
290
     1
176
     1
290
     1
176
     1
290
     0
176
     1
290
     0
176
     1
290
     0
176
     1
290
     0
176
     1
290
     0
176
     1
290
     0
176
     1
 90
       50
176
     1
 40
0.0
176
     1
 40
1.0
176
     1
 90
        0
176
     1
 62
    18
420
        0
176
     1
 90
       50
176
     1
 90
        3
176
     1
 62
     5
420
      255
176
     1
290
     0
176
     1
 90
       50
176
     1
 90
       50
176
     1
 90
       50
176
     1
290
     0
176
     1
 90
       50
176
     1
 62
   256
176
     0
 40
1.0
176
     0
 90
        2
176
     1
  1
strokes_ogs.tif
176
     1
290
     0
176
     1
 40
1.0
176
     1
 40
1.0
176
     1
  0
VISUALSTYLE
  5
A6
102
{ACAD_REACTORS
330
96
102
}
330
96
100
AcDbVisualStyle
  2
ColorChange
 70
    16
177
     3
291
     1
 70
    58
 90
        2
176
     1
 90
        2
176
     1
 90
        3
176
     1
 90
        0
176
     1
 40
0.6
176
     1
 40
30.0
176
     1
 62
     8
420
  8421504
176
     1
 90
        1
176
     1
 90
        4
176
     1
 62
     7
176
     1
 62
   257
176
     1
 90
        1
176
     1
 90
        1
176
     1
 40
1.0
176
     1
 90
        8
176
     1
 62
     8
420
  8421504
176
     1
 40
1.0
176
     1
 90
        1
176
     1
 90
        6
176
     1
 90
        2
176
     1
 62
     7
176
     1
 90
        5
176
     1
 90
        0
176
     1
 90
        0
176
     1
290
     0
176
     1
 90
        1
176
     1
 40
0.0
176
     1
 90
        0
176
     1
290
     0
176
     1
290
     1
176
     1
290
     1
176
     1
290
     0
176
     1
290
     0
176
     1
290
     0
176
     1
290
     0
176
     1
290
     0
176
     1
290
     0
176
     1
 90
       50
176
     1
 40
0.0
176
     1
 40
1.0
176
     1
 90
        0
176
     1
 62
    18
420
        0
176
     1
 90
       50
176
     1
 90
        3
176
     1
 62
     5
420
      255
176
     1
290
     0
176
     1
 90
       50
176
     1
 90
       50
176
     1
 90
       50
176
     1
290
     0
176
     1
 90
       50
176
     1
 62
   256
176
     0
 40
1.0
176
     0
 90
        2
176
     1
  1
strokes_ogs.tif
176
     1
290
     0
176
     1
 40
1.0
176
     1
 40
1.0
176
     1
  0
VISUALSTYLE
  5
9F
102
{ACAD_REACTORS
330
96
102
}
330
96
100
AcDbVisualStyle
  2
Conceptual
 70
     9
177
     3
291
     0
 70
    58
 90
        3
176
     1
 90
        2
176
     1
 90
        0
176
     1
 90
        0
176
     1
 40
0.6
176
     1
 40
30.0
176
     1
 62
     7
420
 16777215
176
     1
 90
        2
176
     1
 90
        2
176
     1
 62
     7
176
     1
 62
   257
176
     1
 90
        1
176
     1
 90
        1
176
     1
 40
179.0
176
     1
 90
        8
176
     1
 62
     7
176
     1
 40
1.0
176
     1
 90
        1
176
     1
 90
        6
176
     1
 90
        2
176
     1
 62
     7
176
     1
 90
        3
176
     1
 90
        0
176
     1
 90
        0
176
     1
290
     0
176
     1
 90
        1
176
     1
 40
0.0
176
     1
 90
        0
176
     1
290
     0
176
     1
290
     1
176
     1
290
     1
176
     1
290
     0
176
     1
290
     0
176
     1
290
     0
176
     1
290
     0
176
     1
290
     0
176
     1
290
     0
176
     1
 90
       50
176
     1
 40
0.0
176
     1
 40
1.0
176
     1
 90
        0
176
     1
 62
    18
420
        0
176
     1
 90
       50
176
     1
 90
        3
176
     1
 62
     5
420
      255
176
     1
290
     0
176
     1
 90
       50
176
     1
 90
       50
176
     1
 90
       50
176
     1
290
     0
176
     1
 90
       50
176
     1
 62
   256
176
     0
 40
1.0
176
     0
 90
        2
176
     1
  1
strokes_ogs.tif
176
     1
290
     0
176
     1
 40
1.0
176
     1
 40
1.0
176
     1
  0
VISUALSTYLE
  5
A1
102
{ACAD_REACTORS
330
96
102
}
330
96
100
AcDbVisualStyle
  2
Dim
 70
    11
177
     3
291
     1
 70
    58
 90
        2
176
     1
 90
        2
176
     1
 90
        0
176
     1
 90
        0
176
     1
 40
0.6
176
     1
 40
30.0
176
     1
 62
     7
420
 16777215
176
     1
 90
        1
176
     1
 90
        4
176
     1
 62
     7
176
     1
 62
   257
176
     1
 90
        1
176
     1
 90
        1
176
     1
 40
1.0
176
     1
 90
        8
176
     1
 62
     7
176
     1
 40
1.0
176
     1
 90
        1
176
     1
 90
        6
176
     1
 90
        2
176
     1
 62
     7
176
     1
 90
        5
176
     1
 90
        0
176
     1
 90
        0
176
     1
290
     0
176
     1
 90
        1
176
     1
 40
-50.0
176
     1
 90
        0
176
     1
290
     0
176
     1
290
     1
176
     1
290
     1
176
     1
290
     0
176
     1
290
     0
176
     1
290
     0
176
     1
290
     0
176
     1
290
     0
176
     1
290
     0
176
     1
 90
       50
176
     1
 40
0.0
176
     1
 40
1.0
176
     1
 90
        0
176
     1
 62
    18
420
        0
176
     1
 90
       50
176
     1
 90
        3
176
     1
 62
     5
420
      255
176
     1
290
     0
176
     1
 90
       50
176
     1
 90
       50
176
     1
 90
       50
176
     1
290
     0
176
     1
 90
       50
176
     1
 62
   256
176
     0
 40
1.0
176
     0
 90
        2
176
     1
  1
strokes_ogs.tif
176
     1
290
     0
176
     1
 40
1.0
176
     1
 40
1.0
176
     1
  0
VISUALSTYLE
  5
AE
102
{ACAD_REACTORS
330
96
102
}
330
96
100
AcDbVisualStyle
  2
EdgeColorOff
 70
    22
177
     3
291
     1
 70
    58
 90
        2
176
     0
 90
        2
176
     0
 90
        0
176
     0
 90
        0
176
     0
 40
0.6
176
     0
 40
30.0
176
     0
 62
     7
420
 16777215
176
     0
 90
        1
176
     0
 90
        4
176
     0
 62
     7
176
     0
 62
   257
176
     0
 90
        1
176
     0
 90
        1
176
     0
 40
1.0
176
     0
 90
        8
176
     2
 62
     7
176
     0
 40
1.0
176
     0
 90
        1
176
     0
 90
        6
176
     0
 90
        2
176
     0
 62
     7
176
     0
 90
        5
176
     0
 90
        0
176
     0
 90
        0
176
     0
290
     0
176
     0
 90
        1
176
     0
 40
0.0
176
     0
 90
        0
176
     0
290
     0
176
     1
290
     1
176
     1
290
     1
176
     1
290
     0
176
     1
290
     0
176
     1
290
     0
176
     1
290
     0
176
     1
290
     0
176
     1
290
     0
176
     1
 90
       50
176
     0
 40
0.0
176
     0
 40
1.0
176
     0
 90
        0
176
     0
 62
    18
420
        0
176
     0
 90
       50
176
     0
 90
        3
176
     0
 62
     5
420
      255
176
     0
290
     0
176
     1
 90
       50
176
     0
 90
       50
176
     0
 90
       50
176
     0
290
     0
176
     1
 90
       50
176
     0
 62
   256
176
     0
 40
1.0
176
     0
 90
        2
176
     0
  1
strokes_ogs.tif
176
     0
290
     0
176
     1
 40
1.0
176
     0
 40
1.0
176
     0
  0
VISUALSTYLE
  5
A5
102
{ACAD_REACTORS
330
96
102
}
330
96
100
AcDbVisualStyle
  2
Facepattern
 70
    15
177
     3
291
     1
 70
    58
 90
        2
176
     1
 90
        2
176
     1
 90
        0
176
     1
 90
        0
176
     1
 40
0.6
176
     1
 40
30.0
176
     1
 62
     7
420
 16777215
176
     1
 90
        1
176
     1
 90
        4
176
     1
 62
     7
176
     1
 62
   257
176
     1
 90
        1
176
     1
 90
        1
176
     1
 40
1.0
176
     1
 90
        8
176
     1
 62
     7
176
     1
 40
1.0
176
     1
 90
        1
176
     1
 90
        6
176
     1
 90
        2
176
     1
 62
     7
176
     1
 90
        5
176
     1
 90
        0
176
     1
 90
        0
176
     1
290
     0
176
     1
 90
        1
176
     1
 40
0.0
176
     1
 90
        0
176
     1
290
     0
176
     1
290
     1
176
     1
290
     1
176
     1
290
     0
176
     1
290
     0
176
     1
290
     0
176
     1
290
     0
176
     1
290
     0
176
     1
290
     0
176
     1
 90
       50
176
     1
 40
0.0
176
     1
 40
1.0
176
     1
 90
        0
176
     1
 62
    18
420
        0
176
     1
 90
       50
176
     1
 90
        3
176
     1
 62
     5
420
      255
176
     1
290
     0
176
     1
 90
       50
176
     1
 90
       50
176
     1
 90
       50
176
     1
290
     0
176
     1
 90
       50
176
     1
 62
   256
176
     0
 40
1.0
176
     0
 90
        2
176
     1
  1
strokes_ogs.tif
176
     1
290
     0
176
     1
 40
1.0
176
     1
 40
1.0
176
     1
  0
VISUALSTYLE
  5
97
102
{ACAD_REACTORS
330
96
102
}
330
96
100
AcDbVisualStyle
  2
Flat
 70
     0
177
     3
291
     1
 70
    58
 90
        2
176
     1
 90
        1
176
     1
 90
        1
176
     1
 90
        2
176
     1
 40
0.6
176
     1
 40
30.0
176
     1
 62
     7
420
 16777215
176
     1
 90
        0
176
     1
 90
        0
176
     1
 62
     7
176
     1
 62
   257
176
     1
 90
        1
176
     1
 90
        1
176
     1
 40
1.0
176
     1
 90
        8
176
     1
 62
     7
176
     1
 40
1.0
176
     1
 90
        1
176
     1
 90
        6
176
     1
 90
        2
176
     1
 62
     7
176
     1
 90
        5
176
     1
 90
        0
176
     1
 90
        0
176
     1
290
     0
176
     1
 90
       13
176
     1
 40
0.0
176
     1
 90
        0
176
     1
290
     0
176
     1
290
     1
176
     1
290
     1
176
     1
290
     0
176
     1
290
     0
176
     1
290
     0
176
     1
290
     0
176
     1
290
     0
176
     1
290
     0
176
     1
 90
       50
176
     1
 40
0.0
176
     1
 40
1.0
176
     1
 90
        0
176
     1
 62
    18
420
        0
176
     1
 90
       50
176
     1
 90
        3
176
     1
 62
     5
420
      255
176
     1
290
     0
176
     1
 90
       50
176
     1
 90
       50
176
     1
 90
       50
176
     1
290
     0
176
     1
 90
       50
176
     1
 62
   256
176
     0
 40
1.0
176
     0
 90
        2
176
     1
  1
strokes_ogs.tif
176
     1
290
     0
176
     1
 40
1.0
176
     1
 40
1.0
176
     1
  0
VISUALSTYLE
  5
98
102
{ACAD_REACTORS
330
96
102
}
330
96
100
AcDbVisualStyle
  2
FlatWithEdges
 70
     1
177
     3
291
     1
 70
    58
 90
        2
176
     1
 90
        1
176
     1
 90
        1
176
     1
 90
        2
176
     1
 40
0.6
176
     1
 40
30.0
176
     1
 62
     7
420
 16777215
176
     1
 90
        1
176
     1
 90
        0
176
     1
 62
     7
176
     1
 62
   257
176
     1
 90
        1
176
     1
 90
        1
176
     1
 40
1.0
176
     1
 90
        0
176
     1
 62
   257
176
     1
 40
1.0
176
     1
 90
        1
176
     1
 90
        6
176
     1
 90
        2
176
     1
 62
     7
176
     1
 90
        5
176
     1
 90
        0
176
     1
 90
        0
176
     1
290
     0
176
     1
 90
       13
176
     1
 40
0.0
176
     1
 90
        0
176
     1
290
     0
176
     1
290
     1
176
     1
290
     1
176
     1
290
     0
176
     1
290
     0
176
     1
290
     0
176
     1
290
     0
176
     1
290
     0
176
     1
290
     0
176
     1
 90
       50
176
     1
 40
0.0
176
     1
 40
1.0
176
     1
 90
        0
176
     1
 62
    18
420
        0
176
     1
 90
       50
176
     1
 90
        3
176
     1
 62
     5
420
      255
176
     1
290
     0
176
     1
 90
       50
176
     1
 90
       50
176
     1
 90
       50
176
     1
290
     0
176
     1
 90
       50
176
     1
 62
   256
176
     0
 40
1.0
176
     0
 90
        2
176
     1
  1
strokes_ogs.tif
176
     1
290
     0
176
     1
 40
1.0
176
     1
 40
1.0
176
     1
  0
VISUALSTYLE
  5
99
102
{ACAD_REACTORS
330
96
102
}
330
96
100
AcDbVisualStyle
  2
Gouraud
 70
     2
177
     3
291
     1
 70
    58
 90
        2
176
     1
 90
        2
176
     1
 90
        1
176
     1
 90
        2
176
     1
 40
0.6
176
     1
 40
30.0
176
     1
 62
     7
420
 16777215
176
     1
 90
        0
176
     1
 90
        0
176
     1
 62
     7
176
     1
 62
   257
176
     1
 90
        1
176
     1
 90
        1
176
     1
 40
1.0
176
     1
 90
        0
176
     1
 62
     7
176
     1
 40
1.0
176
     1
 90
        1
176
     1
 90
        6
176
     1
 90
        2
176
     1
 62
     7
176
     1
 90
        5
176
     1
 90
        0
176
     1
 90
        0
176
     1
290
     0
176
     1
 90
       13
176
     1
 40
0.0
176
     1
 90
        0
176
     1
290
     0
176
     1
290
     1
176
     1
290
     1
176
     1
290
     0
176
     1
290
     0
176
     1
290
     0
176
     1
290
     0
176
     1
290
     0
176
     1
290
     0
176
     1
 90
       50
176
     1
 40
0.0
176
     1
 40
1.0
176
     1
 90
        0
176
     1
 62
    18
420
        0
176
     1
 90
       50
176
     1
 90
        3
176
     1
 62
     5
420
      255
176
     1
290
     0
176
     1
 90
       50
176
     1
 90
       50
176
     1
 90
       50
176
     1
290
     0
176
     1
 90
       50
176
     1
 62
   256
176
     0
 40
1.0
176
     0
 90
        2
176
     1
  1
strokes_ogs.tif
176
     1
290
     0
176
     1
 40
1.0
176
     1
 40
1.0
176
     1
  0
VISUALSTYLE
  5
9A
102
{ACAD_REACTORS
330
96
102
}
330
96
100
AcDbVisualStyle
  2
GouraudWithEdges
 70
     3
177
     3
291
     1
 70
    58
 90
        2
176
     1
 90
        2
176
     1
 90
        1
176
     1
 90
        2
176
     1
 40
0.6
176
     1
 40
30.0
176
     1
 62
     7
420
 16777215
176
     1
 90
        1
176
     1
 90
        0
176
     1
 62
     7
176
     1
 62
   257
176
     1
 90
        1
176
     1
 90
        1
176
     1
 40
1.0
176
     1
 90
        0
176
     1
 62
   257
176
     1
 40
1.0
176
     1
 90
        1
176
     1
 90
        6
176
     1
 90
        2
176
     1
 62
     7
176
     1
 90
        5
176
     1
 90
        0
176
     1
 90
        0
176
     1
290
     0
176
     1
 90
       13
176
     1
 40
0.0
176
     1
 90
        0
176
     1
290
     0
176
     1
290
     1
176
     1
290
     1
176
     1
290
     0
176
     1
290
     0
176
     1
290
     0
176
     1
290
     0
176
     1
290
     0
176
     1
290
     0
176
     1
 90
       50
176
     1
 40
0.0
176
     1
 40
1.0
176
     1
 90
        0
176
     1
 62
    18
420
        0
176
     1
 90
       50
176
     1
 90
        3
176
     1
 62
     5
420
      255
176
     1
290
     0
176
     1
 90
       50
176
     1
 90
       50
176
     1
 90
       50
176
     1
290
     0
176
     1
 90
       50
176
     1
 62
   256
176
     0
 40
1.0
176
     0
 90
        2
176
     1
  1
strokes_ogs.tif
176
     1
290
     0
176
     1
 40
1.0
176
     1
 40
1.0
176
     1
  0
VISUALSTYLE
  5
9E
102
{ACAD_REACTORS
330
96
102
}
330
96
100
AcDbVisualStyle
  2
Hidden
 70
     6
177
     3
291
     0
 70
    58
 90
        1
176
     1
 90
        2
176
     1
 90
        2
176
     1
 90
        0
176
     1
 40
0.6
176
     1
 40
30.0
176
     1
 62
     7
420
 16777215
176
     1
 90
        2
176
     1
 90
        2
176
     1
 62
     7
176
     1
 62
   257
176
     1
 90
        2
176
     1
 90
        1
176
     1
 40
40.0
176
     1
 90
        0
176
     1
 62
   257
176
     1
 40
1.0
176
     1
 90
        1
176
     1
 90
        6
176
     1
 90
        2
176
     1
 62
     7
176
     1
 90
        3
176
     1
 90
        0
176
     1
 90
        0
176
     1
290
     0
176
     1
 90
        1
176
     1
 40
0.0
176
     1
 90
        0
176
     1
290
     0
176
     1
290
     1
176
     1
290
     1
176
     1
290
     0
176
     1
290
     0
176
     1
290
     0
176
     1
290
     0
176
     1
290
     0
176
     1
290
     0
176
     1
 90
       50
176
     1
 40
0.0
176
     1
 40
1.0
176
     1
 90
        0
176
     1
 62
    18
420
        0
176
     1
 90
       50
176
     1
 90
        3
176
     1
 62
     5
420
      255
176
     1
290
     0
176
     1
 90
       50
176
     1
 90
       50
176
     1
 90
       50
176
     1
290
     0
176
     1
 90
       50
176
     1
 62
   256
176
     0
 40
1.0
176
     0
 90
        2
176
     1
  1
strokes_ogs.tif
176
     1
290
     0
176
     1
 40
1.0
176
     1
 40
1.0
176
     1
  0
VISUALSTYLE
  5
AC
102
{ACAD_REACTORS
330
96
102
}
330
96
100
AcDbVisualStyle
  2
JitterOff
 70
    20
177
     3
291
     1
 70
    58
 90
        2
176
     0
 90
        2
176
     0
 90
        0
176
     0
 90
        0
176
     0
 40
0.6
176
     0
 40
30.0
176
     0
 62
     7
420
 16777215
176
     0
 90
        1
176
     0
 90
        4
176
     0
 62
     7
176
     0
 62
   257
176
     0
 90
        1
176
     0
 90
        1
176
     0
 40
1.0
176
     0
 90
       10
176
     2
 62
     7
176
     0
 40
1.0
176
     0
 90
        1
176
     0
 90
        6
176
     0
 90
        2
176
     0
 62
     7
176
     0
 90
        5
176
     0
 90
        0
176
     0
 90
        0
176
     0
290
     0
176
     0
 90
        1
176
     0
 40
0.0
176
     0
 90
        0
176
     0
290
     0
176
     1
290
     1
176
     1
290
     1
176
     1
290
     0
176
     1
290
     0
176
     1
290
     0
176
     1
290
     0
176
     1
290
     0
176
     1
290
     0
176
     1
 90
       50
176
     0
 40
0.0
176
     0
 40
1.0
176
     0
 90
        0
176
     0
 62
    18
420
        0
176
     0
 90
       50
176
     0
 90
        3
176
     0
 62
     5
420
      255
176
     0
290
     0
176
     1
 90
       50
176
     0
 90
       50
176
     0
 90
       50
176
     0
290
     0
176
     1
 90
       50
176
     0
 62
   256
176
     0
 40
1.0
176
     0
 90
        2
176
     0
  1
strokes_ogs.tif
176
     0
290
     0
176
     1
 40
1.0
176
     0
 40
1.0
176
     0
  0
VISUALSTYLE
  5
A4
102
{ACAD_REACTORS
330
96
102
}
330
96
100
AcDbVisualStyle
  2
Linepattern
 70
    14
177
     3
291
     1
 70
    58
 90
        2
176
     1
 90
        2
176
     1
 90
        0
176
     1
 90
        0
176
     1
 40
0.6
176
     1
 40
30.0
176
     1
 62
     7
420
 16777215
176
     1
 90
        1
176
     1
 90
        4
176
     1
 62
     7
176
     1
 62
   257
176
     1
 90
        7
176
     1
 90
        7
176
     1
 40
1.0
176
     1
 90
        8
176
     1
 62
     7
176
     1
 40
1.0
176
     1
 90
        1
176
     1
 90
        6
176
     1
 90
        2
176
     1
 62
     7
176
     1
 90
        5
176
     1
 90
        0
176
     1
 90
        0
176
     1
290
     0
176
     1
 90
        1
176
     1
 40
0.0
176
     1
 90
        0
176
     1
290
     0
176
     1
290
     1
176
     1
290
     1
176
     1
290
     0
176
     1
290
     0
176
     1
290
     0
176
     1
290
     0
176
     1
290
     0
176
     1
290
     0
176
     1
 90
       50
176
     1
 40
0.0
176
     1
 40
1.0
176
     1
 90
        0
176
     1
 62
    18
420
        0
176
     1
 90
       50
176
     1
 90
        3
176
     1
 62
     5
420
      255
176
     1
290
     0
176
     1
 90
       50
176
     1
 90
       50
176
     1
 90
       50
176
     1
290
     0
176
     1
 90
       50
176
     1
 62
   256
176
     0
 40
1.0
176
     0
 90
        2
176
     1
  1
strokes_ogs.tif
176
     1
290
     0
176
     1
 40
1.0
176
     1
 40
1.0
176
     1
  0
VISUALSTYLE
  5
AD
102
{ACAD_REACTORS
330
96
102
}
330
96
100
AcDbVisualStyle
  2
OverhangOff
 70
    21
177
     3
291
     1
 70
    58
 90
        2
176
     0
 90
        2
176
     0
 90
        0
176
     0
 90
        0
176
     0
 40
0.6
176
     0
 40
30.0
176
     0
 62
     7
420
 16777215
176
     0
 90
        1
176
     0
 90
        4
176
     0
 62
     7
176
     0
 62
   257
176
     0
 90
        1
176
     0
 90
        1
176
     0
 40
1.0
176
     0
 90
        9
176
     2
 62
     7
176
     0
 40
1.0
176
     0
 90
        1
176
     0
 90
        6
176
     0
 90
        2
176
     0
 62
     7
176
     0
 90
        5
176
     0
 90
        0
176
     0
 90
        0
176
     0
290
     0
176
     0
 90
        1
176
     0
 40
0.0
176
     0
 90
        0
176
     0
290
     0
176
     1
290
     1
176
     1
290
     1
176
     1
290
     0
176
     1
290
     0
176
     1
290
     0
176
     1
290
     0
176
     1
290
     0
176
     1
290
     0
176
     1
 90
       50
176
     0
 40
0.0
176
     0
 40
1.0
176
     0
 90
        0
176
     0
 62
    18
420
        0
176
     0
 90
       50
176
     0
 90
        3
176
     0
 62
     5
420
      255
176
     0
290
     0
176
     1
 90
       50
176
     0
 90
       50
176
     0
 90
       50
176
     0
290
     0
176
     1
 90
       50
176
     0
 62
   256
176
     0
 40
1.0
176
     0
 90
        2
176
     0
  1
strokes_ogs.tif
176
     0
290
     0
176
     1
 40
1.0
176
     0
 40
1.0
176
     0
  0
VISUALSTYLE
  5
A0
102
{ACAD_REACTORS
330
96
102
}
330
96
100
AcDbVisualStyle
  2
Realistic
 70
     8
177
     3
291
     0
 70
    58
 90
        2
176
     1
 90
        3
176
     1
 90
        0
176
     1
 90
        2
176
     1
 40
0.6
176
     1
 40
30.0
176
     1
 62
     7
420
 16777215
176
     1
 90
        0
176
     1
 90
        0
176
     1
 62
     7
176
     1
 62
   257
176
     1
 90
        1
176
     1
 90
        1
176
     1
 40
1.0
176
     1
 90
        8
176
     1
 62
   257
176
     1
 40
1.0
176
     1
 90
        1
176
     1
 90
        6
176
     1
 90
        2
176
     1
 62
     7
176
     1
 90
        3
176
     1
 90
        0
176
     1
 90
        0
176
     1
290
     0
176
     1
 90
       13
176
     1
 40
0.0
176
     1
 90
        0
176
     1
290
     0
176
     1
290
     1
176
     1
290
     1
176
     1
290
     0
176
     1
290
     0
176
     1
290
     0
176
     1
290
     0
176
     1
290
     0
176
     1
290
     0
176
     1
 90
       50
176
     1
 40
0.0
176
     1
 40
1.0
176
     1
 90
        0
176
     1
 62
    18
420
        0
176
     1
 90
       50
176
     1
 90
        3
176
     1
 62
     5
420
      255
176
     1
290
     0
176
     1
 90
       50
176
     1
 90
       50
176
     1
 90
       50
176
     1
290
     0
176
     1
 90
       50
176
     1
 62
   256
176
     0
 40
1.0
176
     0
 90
        2
176
     1
  1
strokes_ogs.tif
176
     1
290
     0
176
     1
 40
1.0
176
     1
 40
1.0
176
     1
  0
VISUALSTYLE
  5
AB
102
{ACAD_REACTORS
330
96
102
}
330
96
100
AcDbVisualStyle
  2
Shaded
 70
    27
177
     3
291
     0
 70
    58
 90
        2
176
     1
 90
        2
176
     1
 90
        1
176
     1
 90
        2
176
     1
 40
0.6
176
     1
 40
30.0
176
     1
 62
     7
420
 16777215
176
     1
 90
        0
176
     1
 90
        4
176
     1
 62
     7
176
     1
 62
   257
176
     1
 90
        1
176
     1
 90
        1
176
     1
 40
1.0
176
     1
 90
        8
176
     1
 62
   257
176
     1
 40
1.0
176
     1
 90
        1
176
     1
 90
        6
176
     1
 90
        2
176
     1
 62
     8
420
  7895160
176
     1
 90
        3
176
     1
 90
        0
176
     1
 90
        0
176
     1
290
     0
176
     1
 90
        5
176
     1
 40
0.0
176
     1
 90
        0
176
     1
290
     0
176
     1
290
     1
176
     1
290
     1
176
     1
290
     0
176
     1
290
     0
176
     1
290
     0
176
     1
290
     0
176
     1
290
     0
176
     1
290
     0
176
     1
 90
       50
176
     1
 40
0.0
176
     1
 40
1.0
176
     1
 90
        0
176
     1
 62
    18
420
        0
176
     1
 90
       50
176
     1
 90
        3
176
     1
 62
     5
420
      255
176
     1
290
     0
176
     1
 90
       50
176
     1
 90
       50
176
     1
 90
       50
176
     1
290
     0
176
     1
 90
       50
176
     1
 62
   256
176
     0
 40
1.0
176
     0
 90
        2
176
     1
  1
strokes_ogs.tif
176
     1
290
     0
176
     1
 40
1.0
176
     1
 40
1.0
176
     1
  0
VISUALSTYLE
  5
AA
102
{ACAD_REACTORS
330
96
102
}
330
96
100
AcDbVisualStyle
  2
Shaded with edges
 70
    26
177
     3
291
     0
 70
    58
 90
        2
176
     1
 90
        2
176
     1
 90
        1
176
     1
 90
        2
176
     1
 40
0.6
176
     1
 40
30.0
176
     1
 62
     7
420
 16777215
176
     1
 90
        1
176
     1
 90
        2
176
     1
 62
     7
176
     1
 62
   257
176
     1
 90
        2
176
     1
 90
        1
176
     1
 40
1.0
176
     1
 90
        8
176
     1
 62
   257
176
     1
 40
1.0
176
     1
 90
        1
176
     1
 90
        6
176
     1
 90
        2
176
     1
 62
     7
176
     1
 90
        3
176
     1
 90
        0
176
     1
 90
        0
176
     1
290
     0
176
     1
 90
        5
176
     1
 40
0.0
176
     1
 90
        0
176
     1
290
     0
176
     1
290
     1
176
     1
290
     1
176
     1
290
     0
176
     1
290
     0
176
     1
290
     0
176
     1
290
     0
176
     1
290
     0
176
     1
290
     0
176
     1
 90
       50
176
     1
 40
0.0
176
     1
 40
1.0
176
     1
 90
        0
176
     1
 62
    18
420
        0
176
     1
 90
       50
176
     1
 90
        3
176
     1
 62
     5
420
      255
176
     1
290
     0
176
     1
 90
       50
176
     1
 90
       50
176
     1
 90
       50
176
     1
290
     0
176
     1
 90
       50
176
     1
 62
   256
176
     0
 40
1.0
176
     0
 90
        2
176
     1
  1
strokes_ogs.tif
176
     1
290
     0
176
     1
 40
1.0
176
     1
 40
1.0
176
     1
  0
VISUALSTYLE
  5
A7
102
{ACAD_REACTORS
330
96
102
}
330
96
100
AcDbVisualStyle
  2
Shades of Gray
 70
    23
177
     3
291
     0
 70
    58
 90
        2
176
     1
 90
        2
176
     1
 90
        3
176
     1
 90
        0
176
     1
 40
0.6
176
     1
 40
30.0
176
     1
 62
     7
420
 16777215
176
     1
 90
        2
176
     1
 90
        2
176
     1
 62
     7
176
     1
 62
     7
176
     1
 90
        1
176
     1
 90
        1
176
     1
 40
40.0
176
     1
 90
        8
176
     1
 62
     7
176
     1
 40
1.0
176
     1
 90
        1
176
     1
 90
        6
176
     1
 90
        2
176
     1
 62
     7
176
     1
 90
        3
176
     1
 90
        0
176
     1
 90
        0
176
     1
290
     0
176
     1
 90
        1
176
     1
 40
0.0
176
     1
 90
        0
176
     1
290
     0
176
     1
290
     1
176
     1
290
     1
176
     1
290
     0
176
     1
290
     0
176
     1
290
     0
176
     1
290
     0
176
     1
290
     0
176
     1
290
     0
176
     1
 90
       50
176
     1
 40
0.0
176
     1
 40
1.0
176
     1
 90
        0
176
     1
 62
    18
420
        0
176
     1
 90
       50
176
     1
 90
        3
176
     1
 62
     5
420
      255
176
     1
290
     0
176
     1
 90
       50
176
     1
 90
       50
176
     1
 90
       50
176
     1
290
     0
176
     1
 90
       50
176
     1
 62
   256
176
     0
 40
1.0
176
     0
 90
        2
176
     1
  1
strokes_ogs.tif
176
     1
290
     0
176
     1
 40
1.0
176
     1
 40
1.0
176
     1
  0
VISUALSTYLE
  5
A8
102
{ACAD_REACTORS
330
96
102
}
330
96
100
AcDbVisualStyle
  2
Sketchy
 70
    24
177
     3
291
     0
 70
    58
 90
        1
176
     1
 90
        2
176
     1
 90
        2
176
     1
 90
        0
176
     1
 40
0.6
176
     1
 40
30.0
176
     1
 62
     7
420
 16777215
176
     1
 90
        2
176
     1
 90
        2
176
     1
 62
     7
176
     1
 62
     7
176
     1
 90
        1
176
     1
 90
        1
176
     1
 40
40.0
176
     1
 90
       11
176
     1
 62
     7
176
     1
 40
1.0
176
     1
 90
        1
176
     1
 90
        6
176
     1
 90
        2
176
     1
 62
     7
176
     1
 90
        6
176
     1
 90
        0
176
     1
 90
        0
176
     1
290
     0
176
     1
 90
        1
176
     1
 40
0.0
176
     1
 90
        0
176
     1
290
     0
176
     1
290
     1
176
     1
290
     1
176
     1
290
     0
176
     1
290
     0
176
     1
290
     0
176
     1
290
     0
176
     1
290
     0
176
     1
290
     0
176
     1
 90
       50
176
     1
 40
0.0
176
     1
 40
1.0
176
     1
 90
        0
176
     1
 62
    18
420
        0
176
     1
 90
       50
176
     1
 90
        3
176
     1
 62
     5
420
      255
176
     1
290
     0
176
     1
 90
       50
176
     1
 90
       50
176
     1
 90
       50
176
     1
290
     0
176
     1
 90
       50
176
     1
 62
   256
176
     0
 40
1.0
176
     0
 90
        2
176
     1
  1
strokes_ogs.tif
176
     1
290
     0
176
     1
 40
1.0
176
     1
 40
1.0
176
     1
  0
VISUALSTYLE
  5
A3
102
{ACAD_REACTORS
330
96
102
}
330
96
100
AcDbVisualStyle
  2
Thicken
 70
    13
177
     3
291
     1
 70
    58
 90
        2
176
     1
 90
        2
176
     1
 90
        0
176
     1
 90
        0
176
     1
 40
0.6
176
     1
 40
30.0
176
     1
 62
     7
420
 16777215
176
     1
 90
        1
176
     1
 90
        4
176
     1
 62
     7
176
     1
 62
   257
176
     1
 90
        1
176
     1
 90
        1
176
     1
 40
1.0
176
     1
 90
       12
176
     1
 62
     7
176
     1
 40
1.0
176
     1
 90
        1
176
     1
 90
        6
176
     1
 90
        2
176
     1
 62
     7
176
     1
 90
        5
176
     1
 90
        0
176
     1
 90
        0
176
     1
290
     0
176
     1
 90
        1
176
     1
 40
0.0
176
     1
 90
        0
176
     1
290
     0
176
     1
290
     1
176
     1
290
     1
176
     1
290
     0
176
     1
290
     0
176
     1
290
     0
176
     1
290
     0
176
     1
290
     0
176
     1
290
     0
176
     1
 90
       50
176
     1
 40
0.0
176
     1
 40
1.0
176
     1
 90
        0
176
     1
 62
    18
420
        0
176
     1
 90
       50
176
     1
 90
        3
176
     1
 62
     5
420
      255
176
     1
290
     0
176
     1
 90
       50
176
     1
 90
       50
176
     1
 90
       50
176
     1
290
     0
176
     1
 90
       50
176
     1
 62
   256
176
     0
 40
1.0
176
     0
 90
        2
176
     1
  1
strokes_ogs.tif
176
     1
290
     0
176
     1
 40
1.0
176
     1
 40
1.0
176
     1
  0
VISUALSTYLE
  5
9D
102
{ACAD_REACTORS
330
96
102
}
330
96
100
AcDbVisualStyle
  2
Wireframe
 70
     5
177
     3
291
     0
 70
    58
 90
        0
176
     1
 90
        2
176
     1
 90
        0
176
     1
 90
        0
176
     1
 40
0.6
176
     1
 40
30.0
176
     1
 62
     7
420
 16777215
176
     1
 90
        1
176
     1
 90
        4
176
     1
 62
     7
176
     1
 62
   257
176
     1
 90
        1
176
     1
 90
        1
176
     1
 40
1.0
176
     1
 90
        0
176
     1
 62
   257
176
     1
 40
1.0
176
     1
 90
        1
176
     1
 90
        6
176
     1
 90
        2
176
     1
 62
     7
176
     1
 90
        3
176
     1
 90
        0
176
     1
 90
        0
176
     1
290
     0
176
     1
 90
        1
176
     1
 40
0.0
176
     1
 90
        0
176
     1
290
     0
176
     1
290
     1
176
     1
290
     1
176
     1
290
     0
176
     1
290
     0
176
     1
290
     0
176
     1
290
     0
176
     1
290
     0
176
     1
290
     0
176
     1
 90
       50
176
     1
 40
0.0
176
     1
 40
1.0
176
     1
 90
        0
176
     1
 62
    18
420
        0
176
     1
 90
       50
176
     1
 90
        3
176
     1
 62
     5
420
      255
176
     1
290
     0
176
     1
 90
       50
176
     1
 90
       50
176
     1
 90
       50
176
     1
290
     0
176
     1
 90
       50
176
     1
 62
   256
176
     0
 40
1.0
176
     0
 90
        2
176
     1
  1
strokes_ogs.tif
176
     1
290
     0
176
     1
 40
1.0
176
     1
 40
1.0
176
     1
  0
VISUALSTYLE
  5
A9
102
{ACAD_REACTORS
330
96
102
}
330
96
100
AcDbVisualStyle
  2
X-Ray
 70
    25
177
     3
291
     0
 70
    58
 90
        2
176
     1
 90
        2
176
     1
 90
        1
176
     1
 90
        1
176
     1
 40
0.5
176
     1
 40
30.0
176
     1
 62
     7
420
 16777215
176
     1
 90
        1
176
     1
 90
        0
176
     1
 62
     7
176
     1
 62
   257
176
     1
 90
        1
176
     1
 90
        1
176
     1
 40
1.0
176
     1
 90
        8
176
     1
 62
     7
176
     1
 40
1.0
176
     1
 90
        1
176
     1
 90
        6
176
     1
 90
        2
176
     1
 62
     7
176
     1
 90
        3
176
     1
 90
        0
176
     1
 90
        0
176
     1
290
     0
176
     1
 90
       13
176
     1
 40
0.0
176
     1
 90
        0
176
     1
290
     0
176
     1
290
     1
176
     1
290
     1
176
     1
290
     0
176
     1
290
     0
176
     1
290
     0
176
     1
290
     0
176
     1
290
     0
176
     1
290
     0
176
     1
 90
       50
176
     1
 40
0.0
176
     1
 40
1.0
176
     1
 90
        0
176
     1
 62
    18
420
        0
176
     1
 90
       50
176
     1
 90
        3
176
     1
 62
     5
420
      255
176
     1
290
     0
176
     1
 90
       50
176
     1
 90
       50
176
     1
 90
       50
176
     1
290
     0
176
     1
 90
       50
176
     1
 62
   256
176
     0
 40
1.0
176
     0
 90
        2
176
     1
  1
strokes_ogs.tif
176
     1
290
     0
176
     1
 40
1.0
176
     1
 40
1.0
176
     1
  0
DICTIONARYVAR
  5
15A
102
{ACAD_REACTORS
330
10D
102
}
330
10D
100
DictionaryVariables
280
     0
  1
1:1
  0
DICTIONARYVAR
  5
156
102
{ACAD_REACTORS
330
10D
102
}
330
10D
100
DictionaryVariables
280
     0
  1
STANDARD
  0
DICTIONARYVAR
  5
155
102
{ACAD_REACTORS
330
10D
102
}
330
10D
100
DictionaryVariables
280
     0
  1
STANDARD
  0
DICTIONARYVAR
  5
157
102
{ACAD_REACTORS
330
10D
102
}
330
10D
100
DictionaryVariables
280
     0
  1
Imperial24
  0
DICTIONARYVAR
  5
158
102
{ACAD_REACTORS
330
10D
102
}
330
10D
100
DictionaryVariables
280
     0
  1
Imperial24
  0
DICTIONARYVAR
  5
15C
102
{ACAD_REACTORS
330
10D
102
}
330
10D
100
DictionaryVariables
280
     0
  1
1
  0
DICTIONARYVAR
  5
15D
102
{ACAD_REACTORS
330
10D
102
}
330
10D
100
DictionaryVariables
280
     0
  1
15
  0
DICTIONARYVAR
  5
15B
102
{ACAD_REACTORS
330
10D
102
}
330
10D
100
DictionaryVariables
280
     0
  1
0
  0
DICTIONARYVAR
  5
159
102
{ACAD_REACTORS
330
10D
102
}
330
10D
100
DictionaryVariables
280
     0
  1
0
  0
ACDBASSOCNETWORK
  5
100
102
{ACAD_REACTORS
330
FF
102
}
330
FF
100
AcDbAssocAction
 90
        2
 90
        0
330
102
360
0
 90
        1
 90
        0
 90
        0
 90
        0
 90
        0
 90
        0
 90
        0
100
AcDbAssocNetwork
 90
        0
 90
        5
 90
        3
360
103
360
129
360
147
 90
        0
  0
DICTIONARY
  5
87
330
86
100
AcDbDictionary
280
     1
281
     1
  3
BUMPTILE
360
89
  3
DIFFUSETILE
360
88
  3
OPACITYTILE
360
8C
  3
REFLECTIONTILE
360
8B
  3
REFRACTIONTILE
360
8D
  3
SPECULARTILE
360
8A
  0
DICTIONARY
  5
7F
330
7E
100
AcDbDictionary
280
     1
281
     1
  3
BUMPTILE
360
81
  3
DIFFUSETILE
360
80
  3
OPACITYTILE
360
84
  3
REFLECTIONTILE
360
83
  3
REFRACTIONTILE
360
85
  3
SPECULARTILE
360
82
  0
DICTIONARY
  5
8F
330
8E
100
AcDbDictionary
280
     1
281
     1
  3
BUMPTILE
360
91
  3
DIFFUSETILE
360
90
  3
OPACITYTILE
360
94
  3
REFLECTIONTILE
360
93
  3
REFRACTIONTILE
360
95
  3
SPECULARTILE
360
92
  0
DICTIONARY
  5
16A
330
B1
100
AcDbDictionary
280
     1
281
     1
  3
ACAD_ROUNDTRIP_2008_TABLESTYLE_CELLSTYLEMAP
360
16B
  0
ACDBASSOCACTION
  5
103
330
100
100
AcDbAssocAction
 90
        2
 90
        0
330
100
360
104
 90
        1
 90
        4
 90
        4
360
108
360
109
360
10A
360
10B
 90
        0
 90
        4
360
105
360
106
360
107
360
10C
 90
        0
 90
       13
 90
        0
  1
ItemSpacing
 90
        1
 90
        1
 40
0.25
330
0
330
0
 90
        0
  1
Items
 90
        0
 90
        1
 90
        8
330
0
330
0
 90
        0
  1
LevelSpacing
 90
        1
 90
        1
 40
0.2494470412084411
330
0
330
0
 90
        0
  1
Levels
 90
        0
 90
        1
 90
        1
330
0
330
0
 90
        0
  1
RowElevation
 90
        1
 90
        1
 40
0.0
330
0
330
0
 90
        0
  1
RowSpacing
 90
        1
 90
        1
 40
1.0
330
0
330
0
 90
        0
  1
Rows
 90
        0
 90
        1
 90
        1
330
0
330
0
 90
        0
  1
AlignItems
 90
        0
 90
        1
 90
        1
330
0
330
0
 90
        0
  1
FillPath
 90
        0
 90
        1
 40
0.0
330
0
330
0
 90
        0
  1
MaintainZ
 90
        0
 90
        1
 40
1.0
330
0
330
0
 90
        0
  1
Orientation
 90
        0
 90
        1
 90
        1
330
0
330
0
 90
        0
  1
PathDirection
 90
        0
 90
        1
 90
        0
330
0
330
0
 90
        0
  1
TangentOrientationAngle
 90
        0
 90
        1
 40
0.0
330
0
330
0
  0
ACDBASSOCACTION
  5
129
330
100
100
AcDbAssocAction
 90
        2
 90
        0
330
100
360
12A
 90
        3
 90
        4
 90
        3
360
12C
360
12D
360
12E
 90
        0
 90
        4
360
12F
360
130
360
131
360
132
 90
        0
 90
       13
 90
        0
  1
ItemSpacing
 90
        1
 90
        1
 40
0.25
330
0
330
0
 90
        0
  1
Items
 90
        0
 90
        1
 90
        8
330
0
330
0
 90
        0
  1
LevelSpacing
 90
        1
 90
        1
 40
0.2494470412084411
330
0
330
0
 90
        0
  1
Levels
 90
        0
 90
        1
 90
        1
330
0
330
0
 90
        0
  1
RowElevation
 90
        1
 90
        1
 40
0.0
330
0
330
0
 90
        0
  1
RowSpacing
 90
        1
 90
        1
 40
1.0
330
0
330
0
 90
        0
  1
Rows
 90
        0
 90
        1
 90
        1
330
0
330
0
 90
        0
  1
AlignItems
 90
        0
 90
        1
 90
        1
330
0
330
0
 90
        0
  1
FillPath
 90
        0
 90
        1
 40
0.0
330
0
330
0
 90
        0
  1
MaintainZ
 90
        0
 90
        1
 40
1.0
330
0
330
0
 90
        0
  1
Orientation
 90
        0
 90
        1
 90
        1
330
0
330
0
 90
        0
  1
PathDirection
 90
        0
 90
        1
 90
        0
330
0
330
0
 90
        0
  1
TangentOrientationAngle
 90
        0
 90
        1
 40
0.0
330
0
330
0
  0
ACDBASSOCACTION
  5
147
330
100
100
AcDbAssocAction
 90
        2
 90
        0
330
100
360
148
 90
        5
 90
        4
 90
        3
360
14A
360
14B
360
14C
 90
        0
 90
        4
360
14D
360
14E
360
14F
360
150
 90
        0
 90
       13
 90
        0
  1
ItemSpacing
 90
        1
 90
        1
 40
0.25
330
0
330
0
 90
        0
  1
Items
 90
        0
 90
        1
 90
        8
330
0
330
0
 90
        0
  1
LevelSpacing
 90
        1
 90
        1
 40
0.2494470412084411
330
0
330
0
 90
        0
  1
Levels
 90
        0
 90
        1
 90
        1
330
0
330
0
 90
        0
  1
RowElevation
 90
        1
 90
        1
 40
0.0
330
0
330
0
 90
        0
  1
RowSpacing
 90
        1
 90
        1
 40
1.0
330
0
330
0
 90
        0
  1
Rows
 90
        0
 90
        1
 90
        1
330
0
330
0
 90
        0
  1
AlignItems
 90
        0
 90
        1
 90
        1
330
0
330
0
 90
        0
  1
FillPath
 90
        0
 90
        1
 40
0.0
330
0
330
0
 90
        0
  1
MaintainZ
 90
        0
 90
        1
 40
1.0
330
0
330
0
 90
        0
  1
Orientation
 90
        0
 90
        1
 90
        1
330
0
330
0
 90
        0
  1
PathDirection
 90
        0
 90
        1
 90
        0
330
0
330
0
 90
        0
  1
TangentOrientationAngle
 90
        0
 90
        1
 40
0.0
330
0
330
0
  0
XRECORD
  5
89
102
{ACAD_REACTORS
330
87
102
}
330
87
100
AcDbXrecord
280
     1
270
     1
271
     1
  0
XRECORD
  5
88
102
{ACAD_REACTORS
330
87
102
}
330
87
100
AcDbXrecord
280
     1
270
     1
271
     1
  0
XRECORD
  5
8C
102
{ACAD_REACTORS
330
87
102
}
330
87
100
AcDbXrecord
280
     1
270
     1
271
     1
  0
XRECORD
  5
8B
102
{ACAD_REACTORS
330
87
102
}
330
87
100
AcDbXrecord
280
     1
270
     1
271
     1
  0
XRECORD
  5
8D
102
{ACAD_REACTORS
330
87
102
}
330
87
100
AcDbXrecord
280
     1
270
     1
271
     1
  0
XRECORD
  5
8A
102
{ACAD_REACTORS
330
87
102
}
330
87
100
AcDbXrecord
280
     1
270
     1
271
     1
  0
XRECORD
  5
81
102
{ACAD_REACTORS
330
7F
102
}
330
7F
100
AcDbXrecord
280
     1
270
     1
271
     1
  0
XRECORD
  5
80
102
{ACAD_REACTORS
330
7F
102
}
330
7F
100
AcDbXrecord
280
     1
270
     1
271
     1
  0
XRECORD
  5
84
102
{ACAD_REACTORS
330
7F
102
}
330
7F
100
AcDbXrecord
280
     1
270
     1
271
     1
  0
XRECORD
  5
83
102
{ACAD_REACTORS
330
7F
102
}
330
7F
100
AcDbXrecord
280
     1
270
     1
271
     1
  0
XRECORD
  5
85
102
{ACAD_REACTORS
330
7F
102
}
330
7F
100
AcDbXrecord
280
     1
270
     1
271
     1
  0
XRECORD
  5
82
102
{ACAD_REACTORS
330
7F
102
}
330
7F
100
AcDbXrecord
280
     1
270
     1
271
     1
  0
XRECORD
  5
91
102
{ACAD_REACTORS
330
8F
102
}
330
8F
100
AcDbXrecord
280
     1
270
     1
271
     1
  0
XRECORD
  5
90
102
{ACAD_REACTORS
330
8F
102
}
330
8F
100
AcDbXrecord
280
     1
270
     1
271
     1
  0
XRECORD
  5
94
102
{ACAD_REACTORS
330
8F
102
}
330
8F
100
AcDbXrecord
280
     1
270
     1
271
     1
  0
XRECORD
  5
93
102
{ACAD_REACTORS
330
8F
102
}
330
8F
100
AcDbXrecord
280
     1
270
     1
271
     1
  0
XRECORD
  5
95
102
{ACAD_REACTORS
330
8F
102
}
330
8F
100
AcDbXrecord
280
     1
270
     1
271
     1
  0
XRECORD
  5
92
102
{ACAD_REACTORS
330
8F
102
}
330
8F
100
AcDbXrecord
280
     1
270
     1
271
     1
  0
CELLSTYLEMAP
  5
16B
102
{ACAD_REACTORS
330
16A
102
}
330
16A
100
AcDbCellStyleMap
 90
        3
300
CELLSTYLE
  1
TABLEFORMAT_BEGIN
 90
        5
170
     1
 91
        0
 92
    32768
 62
   257
 93
        1
300
CONTENTFORMAT
  1
CONTENTFORMAT_BEGIN
 90
        0
 91
        0
 92
      512
 93
        0
300

 40
0.0
140
1.0
 94
        5
 62
     0
340
11
144
0.25
309
CONTENTFORMAT_END
171
     0
 94
        0
309
TABLEFORMAT_END
  1
CELLSTYLE_BEGIN
 90
        1
 91
        1
300
_TITLE
309
CELLSTYLE_END
300
CELLSTYLE
  1
TABLEFORMAT_BEGIN
 90
        5
170
     1
 91
        0
 92
        0
 62
   257
 93
        1
300
CONTENTFORMAT
  1
CONTENTFORMAT_BEGIN
 90
        0
 91
        0
 92
      512
 93
        0
300

 40
0.0
140
1.0
 94
        5
 62
     0
340
11
144
0.18
309
CONTENTFORMAT_END
171
     0
 94
        0
309
TABLEFORMAT_END
  1
CELLSTYLE_BEGIN
 90
        2
 91
        1
300
_HEADER
309
CELLSTYLE_END
300
CELLSTYLE
  1
TABLEFORMAT_BEGIN
 90
        5
170
     1
 91
        0
 92
        0
 62
   257
 93
        1
300
CONTENTFORMAT
  1
CONTENTFORMAT_BEGIN
 90
        0
 91
        0
 92
      512
 93
        0
300

 40
0.0
140
1.0
 94
        2
 62
     0
340
11
144
0.18
309
CONTENTFORMAT_END
171
     0
 94
        0
309
TABLEFORMAT_END
  1
CELLSTYLE_BEGIN
 90
        3
 91
        2
300
_DATA
309
CELLSTYLE_END
  0
ACDBASSOCARRAYACTIONBODY
  5
104
330
103
100
AcDbAssocActionBody
 90
        2
100
AcDbAssocArrayActionBody
 90
        1
  1
AcDbAssocArrayPathParameters
 90
        0
 90
        8
  1
AcDbAssocArrayItem
100
AcDbAssocArrayItem
 90
        0
 90
        0
 90
        0
 90
        0
 90
        8
 11
0.0
 21
10.0
 31
0.0
330
10F
100
AcDbAssocArrayItem
 90
        0
 90
        1
 90
        0
 90
        0
 90
        8
 11
0.25
 21
10.0
 31
0.0
330
110
100
AcDbAssocArrayItem
 90
        0
 90
        2
 90
        0
 90
        0
 90
        8
 11
0.5
 21
10.0
 31
0.0
330
111
100
AcDbAssocArrayItem
 90
        0
 90
        3
 90
        0
 90
        0
 90
        8
 11
0.75
 21
10.0
 31
0.0
330
112
100
AcDbAssocArrayItem
 90
        0
 90
        4
 90
        0
 90
        0
 90
        8
 11
1.0
 21
10.0
 31
0.0
330
113
100
AcDbAssocArrayItem
 90
        0
 90
        5
 90
        0
 90
        0
 90
        8
 11
1.25
 21
10.0
 31
0.0
330
114
100
AcDbAssocArrayItem
 90
        0
 90
        6
 90
        0
 90
        0
 90
        8
 11
1.5
 21
10.0
 31
0.0
330
115
100
AcDbAssocArrayItem
 90
        0
 90
        7
 90
        0
 90
        0
 90
        8
 11
1.75
 21
10.0
 31
0.0
330
116
 40
1.0
 40
0.0
 40
0.0
 40
0.0
 40
0.0
 40
1.0
 40
0.0
 40
0.0
 40
0.0
 40
0.0
 40
1.0
 40
0.0
 40
0.0
 40
0.0
 40
0.0
 40
1.0
  0
ACDBASSOCDEPENDENCY
  5
108
330
103
100
AcDbAssocDependency
 90
        2
 90
        0
290
     1
290
     0
290
     1
290
     1
 90
        0
330
77
290
     0
330
0
330
0
360
0
 90
        1
  0
ACDBASSOCDEPENDENCY
  5
109
330
103
100
AcDbAssocDependency
 90
        2
 90
        0
290
     0
290
     1
290
     1
290
     1
 90
        0
330
F9
290
     0
330
0
330
0
360
0
 90
        2
  0
ACDBASSOCDEPENDENCY
  5
10A
330
103
100
AcDbAssocDependency
 90
        2
 90
        0
290
     1
290
     0
290
     1
290
     1
 90
        0
330
F6
290
     0
330
0
330
0
360
0
 90
        3
  0
ACDBASSOCDEPENDENCY
  5
10B
330
103
100
AcDbAssocDependency
 90
        2
 90
        0
290
     1
290
     1
290
     1
290
     1
 90
-2147483648
330
FC
290
     0
330
0
330
0
360
0
 90
        4
  0
ACDBASSOCVERTEXACTIONPARAM
  5
105
330
103
100
AcDbAssocActionParam
 90
        1
 90
        0
  1
BaseNormal
100
AcDbAssocSingleDependencyActionParam
 90
        0
330
0
100
AcDbAssocVertexActionParam
 90
        0
 10
0.0
 20
0.0
 30
1.0
  0
ACDBASSOCVERTEXACTIONPARAM
  5
106
330
103
100
AcDbAssocActionParam
 90
        1
 90
        0
  1
Origin
100
AcDbAssocSingleDependencyActionParam
 90
        0
330
0
100
AcDbAssocVertexActionParam
 90
        0
 10
0.0
 20
0.0
 30
0.0
  0
ACDBASSOCEDGEACTIONPARAM
  5
107
330
103
100
AcDbAssocActionParam
 90
        1
 90
        0
  1
RowProfile
100
AcDbAssocSingleDependencyActionParam
 90
        0
330
108
100
AcDbAssocEdgeActionParam
 90
        0
330
0
290
     1
 90
       23
 10
15.25
 20
10.0
 30
0.0
 10
-15.25
 20
0.0
 30
0.0
  0
ACDBASSOCVERTEXACTIONPARAM
  5
10C
330
103
100
AcDbAssocActionParam
 90
        1
 90
        0
  1
basePoint
100
AcDbAssocSingleDependencyActionParam
 90
        0
330
0
100
AcDbAssocVertexActionParam
 90
        0
 10
0.0
 20
0.0
 30
0.0
  0
ACDBASSOCARRAYACTIONBODY
  5
12A
330
129
100
AcDbAssocActionBody
 90
        2
100
AcDbAssocArrayActionBody
 90
        1
  1
AcDbAssocArrayPathParameters
 90
        0
 90
        8
  1
AcDbAssocArrayItem
100
AcDbAssocArrayItem
 90
        0
 90
        0
 90
        0
 90
        0
 90
        8
 11
0.0
 21
10.0
 31
0.0
330
120
100
AcDbAssocArrayItem
 90
        0
 90
        1
 90
        0
 90
        0
 90
        8
 11
0.25
 21
10.0
 31
0.0
330
121
100
AcDbAssocArrayItem
 90
        0
 90
        2
 90
        0
 90
        0
 90
        8
 11
0.5
 21
10.0
 31
0.0
330
122
100
AcDbAssocArrayItem
 90
        0
 90
        3
 90
        0
 90
        0
 90
        8
 11
0.75
 21
10.0
 31
0.0
330
123
100
AcDbAssocArrayItem
 90
        0
 90
        4
 90
        0
 90
        0
 90
        8
 11
1.0
 21
10.0
 31
0.0
330
124
100
AcDbAssocArrayItem
 90
        0
 90
        5
 90
        0
 90
        0
 90
        8
 11
1.25
 21
10.0
 31
0.0
330
125
100
AcDbAssocArrayItem
 90
        0
 90
        6
 90
        0
 90
        0
 90
        8
 11
1.5
 21
10.0
 31
0.0
330
126
100
AcDbAssocArrayItem
 90
        0
 90
        7
 90
        0
 90
        0
 90
        8
 11
1.75
 21
10.0
 31
0.0
330
127
 40
1.0
 40
0.0
 40
0.0
 40
6.226829334812464
 40
0.0
 40
1.0
 40
0.0
 40
0.0
 40
0.0
 40
0.0
 40
1.0
 40
0.0
 40
0.0
 40
0.0
 40
0.0
 40
1.0
  0
ACDBASSOCDEPENDENCY
  5
12C
330
129
100
AcDbAssocDependency
 90
        2
 90
        0
290
     0
290
     1
290
     1
290
     1
 90
        0
330
11E
290
     0
330
0
330
0
360
0
 90
        2
  0
ACDBASSOCDEPENDENCY
  5
12D
330
129
100
AcDbAssocDependency
 90
        2
 90
        0
290
     1
290
     0
290
     1
290
     1
 90
        0
330
118
290
     0
330
0
330
0
360
0
 90
        3
  0
ACDBASSOCDEPENDENCY
  5
12E
330
129
100
AcDbAssocDependency
 90
        2
 90
        0
290
     1
290
     1
290
     1
290
     1
 90
-2147483648
330
117
290
     0
330
0
330
0
360
0
 90
        4
  0
ACDBASSOCVERTEXACTIONPARAM
  5
12F
330
129
100
AcDbAssocActionParam
 90
        1
 90
        0
  1
BaseNormal
100
AcDbAssocSingleDependencyActionParam
 90
        0
330
0
100
AcDbAssocVertexActionParam
 90
        0
 10
0.0
 20
0.0
 30
1.0
  0
ACDBASSOCVERTEXACTIONPARAM
  5
130
330
129
100
AcDbAssocActionParam
 90
        1
 90
        0
  1
Origin
100
AcDbAssocSingleDependencyActionParam
 90
        0
330
0
100
AcDbAssocVertexActionParam
 90
        0
 10
0.0
 20
0.0
 30
0.0
  0
ACDBASSOCEDGEACTIONPARAM
  5
131
330
129
100
AcDbAssocActionParam
 90
        1
 90
        0
  1
RowProfile
100
AcDbAssocSingleDependencyActionParam
 90
        0
330
0
100
AcDbAssocEdgeActionParam
 90
        0
330
0
290
     1
 90
       23
 10
15.25
 20
10.0
 30
0.0
 10
-15.25
 20
0.0
 30
0.0
  0
ACDBASSOCVERTEXACTIONPARAM
  5
132
330
129
100
AcDbAssocActionParam
 90
        1
 90
        0
  1
basePoint
100
AcDbAssocSingleDependencyActionParam
 90
        0
330
0
100
AcDbAssocVertexActionParam
 90
        0
 10
0.0
 20
0.0
 30
0.0
  0
ACDBASSOCARRAYACTIONBODY
  5
148
330
147
100
AcDbAssocActionBody
 90
        2
100
AcDbAssocArrayActionBody
 90
        1
  1
AcDbAssocArrayPathParameters
 90
        0
 90
        8
  1
AcDbAssocArrayItem
100
AcDbAssocArrayItem
 90
        0
 90
        0
 90
        0
 90
        0
 90
        8
 11
0.0
 21
10.0
 31
0.0
330
13E
100
AcDbAssocArrayItem
 90
        0
 90
        1
 90
        0
 90
        0
 90
        8
 11
0.25
 21
10.0
 31
0.0
330
13F
100
AcDbAssocArrayItem
 90
        0
 90
        2
 90
        0
 90
        0
 90
        8
 11
0.5
 21
10.0
 31
0.0
330
140
100
AcDbAssocArrayItem
 90
        0
 90
        3
 90
        0
 90
        0
 90
        8
 11
0.75
 21
10.0
 31
0.0
330
141
100
AcDbAssocArrayItem
 90
        0
 90
        4
 90
        0
 90
        0
 90
        8
 11
1.0
 21
10.0
 31
0.0
330
142
100
AcDbAssocArrayItem
 90
        0
 90
        5
 90
        0
 90
        0
 90
        8
 11
1.25
 21
10.0
 31
0.0
330
143
100
AcDbAssocArrayItem
 90
        0
 90
        6
 90
        0
 90
        0
 90
        8
 11
1.5
 21
10.0
 31
0.0
330
144
100
AcDbAssocArrayItem
 90
        0
 90
        7
 90
        0
 90
        0
 90
        8
 11
1.75
 21
10.0
 31
0.0
330
145
 40
1.0
 40
0.0
 40
0.0
 40
6.226829334812464
 40
0.0
 40
1.0
 40
0.0
 40
0.0
 40
0.0
 40
0.0
 40
1.0
 40
0.0
 40
0.0
 40
0.0
 40
0.0
 40
1.0
  0
ACDBASSOCDEPENDENCY
  5
14A
330
147
100
AcDbAssocDependency
 90
        2
 90
        0
290
     0
290
     1
290
     1
290
     1
 90
        0
330
13C
290
     0
330
0
330
0
360
0
 90
        2
  0
ACDBASSOCDEPENDENCY
  5
14B
330
147
100
AcDbAssocDependency
 90
        2
 90
        0
290
     1
290
     0
290
     1
290
     1
 90
        0
330
136
290
     0
330
0
330
0
360
0
 90
        3
  0
ACDBASSOCDEPENDENCY
  5
14C
330
147
100
AcDbAssocDependency
 90
        2
 90
        0
290
     1
290
     1
290
     1
290
     1
 90
-2147483648
330
135
290
     0
330
0
330
0
360
0
 90
        4
  0
ACDBASSOCVERTEXACTIONPARAM
  5
14D
330
147
100
AcDbAssocActionParam
 90
        1
 90
        0
  1
BaseNormal
100
AcDbAssocSingleDependencyActionParam
 90
        0
330
0
100
AcDbAssocVertexActionParam
 90
        0
 10
0.0
 20
0.0
 30
1.0
  0
ACDBASSOCVERTEXACTIONPARAM
  5
14E
330
147
100
AcDbAssocActionParam
 90
        1
 90
        0
  1
Origin
100
AcDbAssocSingleDependencyActionParam
 90
        0
330
0
100
AcDbAssocVertexActionParam
 90
        0
 10
0.0
 20
0.0
 30
0.0
  0
ACDBASSOCEDGEACTIONPARAM
  5
14F
330
147
100
AcDbAssocActionParam
 90
        1
 90
        0
  1
RowProfile
100
AcDbAssocSingleDependencyActionParam
 90
        0
330
0
100
AcDbAssocEdgeActionParam
 90
        0
330
0
290
     1
 90
       23
 10
15.25
 20
10.0
 30
0.0
 10
-15.25
 20
0.0
 30
0.0
  0
ACDBASSOCVERTEXACTIONPARAM
  5
150
330
147
100
AcDbAssocActionParam
 90
        1
 90
        0
  1
basePoint
100
AcDbAssocSingleDependencyActionParam
 90
        0
330
0
100
AcDbAssocVertexActionParam
 90
        0
 10
0.0
 20
0.0
 30
0.0
  0
ENDSEC
  0
SECTION
  2
ACDSDATA
 70
     2
 71
     8
  0
ACDSSCHEMA
 90
        0
  1
AcDb_Thumbnail_Schema
  2
AcDbDs::ID
280
    10
 91
        8
  2
Thumbnail_Data
280
    15
 91
        0
101
ACDSRECORD
 95
        0
 90
        1
  2
AcDbDs::TreatedAsObjectData
280
     1
291
     1
101
ACDSRECORD
 95
        0
 90
        2
  2
AcDbDs::Legacy
280
     1
291
     1
101
ACDSRECORD
  1
AcDbDs::ID
 90
        3
  2
AcDs:Indexable
280
     1
291
     1
101
ACDSRECORD
  1
AcDbDs::ID
 90
        4
  2
AcDbDs::HandleAttribute
280
     7
282
     1
  0
ACDSSCHEMA
 90
        1
  1
AcDbDs::TreatedAsObjectDataSchema
  2
AcDbDs::TreatedAsObjectData
280
     1
 91
        0
  0
ACDSSCHEMA
 90
        2
  1
AcDbDs::LegacySchema
  2
AcDbDs::Legacy
280
     1
 91
        0
  0
ACDSSCHEMA
 90
        3
  1
AcDbDs::IndexedPropertySchema
  2
AcDs:Indexable
280
     1
 91
        0
  0
ACDSSCHEMA
 90
        4
  1
AcDbDs::HandleAttributeSchema
  2
AcDbDs::HandleAttribute
280
     7
 91
        1
284
     1
  0
ACDSRECORD
 90
        0
  2
AcDbDs::ID
280
    10
320
22
  2
Thumbnail_Data
280
    15
 94
     1112
310
89504E470D0A1A0A0000000D4948445200000100000000730803000000406D2C8F00000300504C5445212830FFFFFF2128300000000000000000000000000000000000000000000000000000330000660000990000CC0000FF0033000033330033660033990033CC0033FF0066000066330066660066990066CC0066FF0099
310
000099330099660099990099CC0099FF00CC0000CC3300CC6600CC9900CCCC00CCFF00FF0000FF3300FF6600FF9900FFCC00FFFF3300003300333300663300993300CC3300FF3333003333333333663333993333CC3333FF3366003366333366663366993366CC3366FF3399003399333399663399993399CC3399FF33CC00
310
33CC3333CC6633CC9933CCCC33CCFF33FF0033FF3333FF6633FF9933FFCC33FFFF6600006600336600666600996600CC6600FF6633006633336633666633996633CC6633FF6666006666336666666666996666CC6666FF6699006699336699666699996699CC6699FF66CC0066CC3366CC6666CC9966CCCC66CCFF66FF0066
310
FF3366FF6666FF9966FFCC66FFFF9900009900339900669900999900CC9900FF9933009933339933669933999933CC9933FF9966009966339966669966999966CC9966FF9999009999339999669999999999CC9999FF99CC0099CC3399CC6699CC9999CCCC99CCFF99FF0099FF3399FF6699FF9999FFCC99FFFFCC0000CC00
310
33CC0066CC0099CC00CCCC00FFCC3300CC3333CC3366CC3399CC33CCCC33FFCC6600CC6633CC6666CC6699CC66CCCC66FFCC9900CC9933CC9966CC9999CC99CCCC99FFCCCC00CCCC33CCCC66CCCC99CCCCCCCCCCFFCCFF00CCFF33CCFF66CCFF99CCFFCCCCFFFFFF0000FF0033FF0066FF0099FF00CCFF00FFFF3300FF3333
310
FF3366FF3399FF33CCFF33FFFF6600FF6633FF6666FF6699FF66CCFF66FFFF9900FF9933FF9966FF9999FF99CCFF99FFFFCC00FFCC33FFCC66FFCC99FFCCCCFFCCFFFFFF00FFFF33FFFF66FFFF99FFFFCCFFFFFF0000000D0D0D1A1A1A2828283535354343435050505D5D5D6B6B6B787878868686939393A1A1A1AEAEAEBB
310
BBBBC9C9C9D6D6D6E4E4E4F1F1F1FFFFFF0000000000000000000000000000000000000000000000000000000000002E4550F1000001134944415478DAEDDCE10A82301886D1DDFFFD7EFF2324996D191194FA9EA77F998A87B912A5D6244992247D59FDB3430084EE1B000000000000000000000000000000000000000000
310
0000000000E0A7EB9F00E0EDBDACE1CD4F6E7F5D0460BB917ABC3200C6055900150E305B1204D0BF9D3802BAA3AFC849703DF8DA6C2306A01FFEC9006D18182100CB99BF9E04A100D3A92105A09B012A7C0E78DE5ECE08B8AF3B5E0DC67D0DA6022C4B97092079121CAE0642005E3FFA9C01B0F3F07704408503EC3EFD9F09
310
D0A246407FC8D55F18B42480EA7F00F457C531A7C0E483F3F3E3DC00D7DD3700000000000000000000000000000000000000000000000000000000007100E97FA828499224499224493A7A37DF20AC1D8F968B8D0000000049454E44AE426082
  0
ENDSEC
  0
EOF
